<svg width="16" height="15" viewBox="0 0 16 15" fill="none" xmlns="http://www.w3.org/2000/svg">
<path fill-rule="evenodd" clip-rule="evenodd" d="M4.1842 0.719763C2.43426 0.719763 1.01566 2.13837 1.01566 3.8883V10.8941C1.01566 12.6441 2.43426 14.0627 4.1842 14.0627H11.19C12.94 14.0627 14.3586 12.6441 14.3586 10.8941V3.8883C14.3586 2.13837 12.94 0.719763 11.19 0.719763H4.1842ZM0.346924 3.8883C0.346924 1.76903 2.06493 0.0510254 4.1842 0.0510254H11.19C13.3093 0.0510254 15.0273 1.76903 15.0273 3.8883V10.8941C15.0273 13.0134 13.3093 14.7314 11.19 14.7314H4.1842C2.06493 14.7314 0.346924 13.0134 0.346924 10.8941V3.8883ZM8.07944 4.91954C7.56596 4.84339 7.04153 4.9311 6.58077 5.17018C6.12 5.40927 5.74635 5.78755 5.51297 6.25123C5.27958 6.71491 5.19835 7.24037 5.28082 7.75288C5.36329 8.26539 5.60526 8.73885 5.97232 9.10591C6.33938 9.47297 6.81284 9.71494 7.32535 9.79741C7.83786 9.87988 8.36332 9.79865 8.827 9.56527C9.29068 9.33188 9.66897 8.95823 9.90805 8.49747C10.1471 8.0367 10.2348 7.51228 10.1587 6.99879C10.081 6.47501 9.83696 5.9901 9.46254 5.61569C9.08813 5.24127 8.60322 4.99721 8.07944 4.91954ZM6.27276 4.5766C6.85838 4.27273 7.52491 4.16126 8.17753 4.25803C8.84324 4.35675 9.45954 4.66695 9.93541 5.14282C10.4113 5.61869 10.7215 6.235 10.8202 6.9007C10.917 7.55332 10.8055 8.21985 10.5016 8.80547C10.1978 9.39109 9.71698 9.86598 9.12766 10.1626C8.53834 10.4592 7.87049 10.5625 7.21911 10.4577C6.56772 10.3528 5.96598 10.0453 5.49945 9.57878C5.03293 9.11226 4.72539 8.51051 4.62058 7.85913C4.51576 7.20774 4.61901 6.53989 4.91563 5.95057C5.21225 5.36125 5.68714 4.88046 6.27276 4.5766ZM11.5403 3.20361C11.3556 3.20361 11.2059 3.35331 11.2059 3.53798C11.2059 3.72264 11.3556 3.87235 11.5403 3.87235H11.547C11.7316 3.87235 11.8813 3.72264 11.8813 3.53798C11.8813 3.35331 11.7316 3.20361 11.547 3.20361H11.5403Z" fill="white"/>
</svg>
