<svg xmlns="http://www.w3.org/2000/svg" xmlns:xlink="http://www.w3.org/1999/xlink" viewBox="0,0,256,256" width="50px" height="50px" fill-rule="nonzero">
  <g fill="#ffffff" fill-rule="nonzero" stroke="none" stroke-width="1" stroke-linecap="butt" stroke-linejoin="miter" stroke-miterlimit="10" stroke-dasharray="" stroke-dashoffset="0" font-family="none" font-weight="none" font-size="none" text-anchor="none" style="mix-blend-mode: normal">
    <g transform="scale(5.12,5.12)">
      <path d="M11,4c-3.85433,0 -7,3.14567 -7,7v28c0,3.85433 3.14567,7 7,7h28c3.85433,0 7,-3.14567 7,-7v-28c0,-3.85433 -3.14567,-7 -7,-7zM11,6h28c2.77367,0 5,2.22633 5,5v28c0,2.77367 -2.22633,5 -5,5h-28c-2.77367,0 -5,-2.22633 -5,-5v-28c0,-2.77367 2.22633,-5 5,-5z" />
      <path d="M25.1,10.1c-7.6,0-11.5,5.4-11.5,9.9c0,2.7,1,5.1,3.2,6c0.4,0.2,0.8,0,0.9-0.4c0.1-0.3,0.3-1,0.4-1.3
        c0.1-0.4,0.1-0.5-0.2-0.9c-0.6-0.7-1-1.5-1-2.8c0-3.6,2.7-6.9,7.1-6.9c3.9,0,6,2.4,6,5.7c0,4.2-1.9,7.7-4.8,7.7c-1.6,0-2.8-1.3-2.4-2.9
        c0.5-2.2,1.5-4.6,1.5-6.2c0-1.4-0.8-2.6-2.5-2.6c-2,0-3.6,2-3.6,4.7c0,1.7,0.6,2.8,0.6,2.8s-2,8.6-2.3,10.1c-0.4,1.8-0.2,4.3-0.1,6
        c0.1,0.3,0.3,0.4,0.4,0.2c0.6-0.7,2.5-3.3,3.2-6.2c0.2-0.9,1.3-4.7,1.3-4.7c0.6,1.1,2.4,2,4.2,2c5.5,0,9.2-5,9.2-11.6
        C36.9,14.4,31.9,10.1,25.1,10.1z" />
    </g>
  </g>
</svg>

