<svg width="56" height="56" viewBox="0 0 56 56" fill="none" xmlns="http://www.w3.org/2000/svg">
<path d="M51.3333 0H4.66667C2.08934 0 0 2.08934 0 4.66667V51.3333C0 53.9107 2.08934 56 4.66667 56H51.3333C53.9107 56 56 53.9107 56 51.3333V4.66667C56 2.08934 53.9107 0 51.3333 0Z" fill="url(#paint0_linear_673_518)"/>
<path fill-rule="evenodd" clip-rule="evenodd" d="M32.3513 16.5033C35.5925 13.2687 40.8571 13.8367 44.0884 17.0613L44.7717 17.7433C48.3804 21.3445 48.9853 27.1735 45.4108 30.7406L38.1687 37.9679C34.5943 41.535 28.7532 40.9315 25.1447 37.3302L24.4613 36.6483C21.2302 33.4236 20.6611 28.1697 23.9022 24.9352L24.5056 24.3328C25.2593 23.5808 26.481 23.5808 27.2347 24.3328C27.9882 25.0848 27.9882 26.3041 27.2347 27.0561L26.6311 27.6584C25.2059 29.0807 25.1374 31.8763 27.1903 33.925L27.8735 34.6069C30.3037 37.0321 33.6814 36.9995 35.4398 35.2447L42.682 28.0174C44.4404 26.2625 44.473 22.8917 42.0429 20.4665L41.3596 19.7845C39.3069 17.736 36.5054 17.8043 35.0802 19.2265L34.4766 19.8288C33.7231 20.5808 32.5013 20.5808 31.7478 19.8288C30.9943 19.0768 30.9943 17.8576 31.7478 17.1055L32.3513 16.5033ZM17.8316 20.0815C21.4061 16.5143 27.247 17.118 30.8555 20.7192L31.539 21.4012C34.7703 24.6257 35.3393 29.8798 32.0982 33.1143L31.4946 33.7165C30.7411 34.4687 29.5193 34.4687 28.7658 33.7165C28.0123 32.9645 28.0123 31.7454 28.7658 30.9932L29.3694 30.3911C30.7944 28.9688 30.8629 26.173 28.8102 24.1245L28.1267 23.4425C25.6966 21.0173 22.319 21.0499 20.5605 22.8048L13.3184 30.0322C11.5599 31.787 11.5273 35.1576 13.9574 37.583L14.6408 38.2649C16.6935 40.3134 19.495 40.2452 20.9202 38.8229L21.5237 38.2206C22.2772 37.4686 23.499 37.4686 24.2525 38.2206C25.0062 38.9725 25.0062 40.1919 24.2525 40.9438L23.649 41.5462C20.4079 44.7807 15.1431 44.2128 11.9119 40.9881L11.2286 40.3062C7.61995 36.7049 7.0151 30.876 10.5896 27.3087L17.8316 20.0815Z" fill="white"/>
<defs>
<linearGradient id="paint0_linear_673_518" x1="0" y1="28" x2="56" y2="28" gradientUnits="userSpaceOnUse">
<stop stop-color="#F82255"/>
<stop offset="1" stop-color="#FE7C62"/>
</linearGradient>
</defs>
</svg>
