<svg width="150" height="167" viewBox="0 0 150 167" fill="none" xmlns="http://www.w3.org/2000/svg">
<path d="M10.9215 23.0122C10.6453 23.4548 10.4919 23.1239 10.3453 22.9093C9.31229 21.3976 9.66189 19.7933 11.2016 18.732C12.2408 18.0157 13.4088 17.5853 14.5563 17.1056C15.8831 16.5519 16.394 15.4876 16.4235 14.1367C16.4623 12.3804 15.8731 10.7119 15.6747 8.98308C15.6093 9.25143 15.611 9.51436 15.6089 9.7773C15.6064 10.0736 15.6093 10.3702 15.5939 10.6657C15.4456 13.4754 14.3238 15.5206 11.4774 16.5177C8.95518 17.4011 8.23472 19.1445 8.99602 21.7055C9.3402 22.8639 10.0194 23.914 10.0344 25.209C10.8165 24.594 10.9807 24.1644 10.9199 23.0131C10.5636 21.8701 10.2903 20.7309 11.0499 19.6291C10.7557 20.8071 11.0249 21.9501 11.2141 23.1052C11.387 24.1623 11.0291 25.0286 10.0973 25.6212C10.0065 25.6787 9.9119 25.7649 9.87065 25.8603C9.47188 26.7854 8.88643 27.5963 8.34431 28.4371C7.80137 29.2789 7.80386 30.1289 8.44432 30.971C8.97102 31.6644 9.65606 32.1282 10.3928 32.5441C10.9457 32.8566 11.5295 33.1262 12.0441 33.4924C12.6362 33.9137 13.0263 34.4842 13.0213 35.2717C13.0167 35.9718 12.6875 36.4405 12.007 36.7576C13.1396 36.906 13.6509 36.7814 14.1997 36.2597C15.6156 34.9134 15.5193 32.8874 13.9771 31.6998C13.4892 31.324 12.9521 31.0277 12.4008 30.7531C11.8079 30.4577 11.3591 29.9981 11.1395 29.376C10.6069 27.8659 11.3607 26.5462 11.7153 25.0307C11.9779 25.3878 11.8945 25.5966 11.8354 25.8107C11.6849 26.3562 11.5224 26.9 11.4032 27.4525C11.0461 29.113 11.8624 30.4323 13.3846 30.6852C12.2887 28.953 12.1154 28.2305 12.3204 26.2491C12.5029 24.4865 13.4317 22.3722 14.1759 22.1559C13.593 23.1339 13.2288 24.1481 12.9675 25.2049C12.4175 27.4296 12.6725 29.4118 14.4359 31.0906C15.4972 32.1011 15.8981 33.3874 15.4927 34.8784C15.2376 35.8159 15.8418 36.691 16.9082 37.0202C16.4306 35.8609 16.8352 34.8775 17.4649 33.9408C17.6169 33.7141 17.782 33.4954 17.954 33.2833C18.5858 32.5036 18.6199 31.644 18.1945 30.7902C17.5149 29.4272 17.7257 28.168 18.6453 27.0533C19.4341 26.097 20.0467 25.0411 20.6563 23.9798C21.3492 22.7726 21.4888 21.4551 21.2851 20.0929C21.2663 19.9679 21.1734 19.8379 21.4068 19.7191C22.0943 21.3288 21.5976 22.801 20.928 24.3298C22.8243 22.4768 23.1264 20.3188 22.3939 17.9528C22.7102 17.9165 22.7139 18.0895 22.7564 18.2049C23.4315 20.0412 23.3644 21.808 22.2485 23.4719C21.5343 24.5365 20.6513 25.4586 19.7792 26.3899C19.3275 26.8721 18.9049 27.375 18.5699 27.9513C17.9953 28.9401 18.1357 30.3631 19.0912 30.9281C19.24 31.0161 19.275 31.1594 19.2995 31.3298C19.5291 32.9295 20.6567 33.7862 22.3064 33.4724C23.2598 33.2912 24.0073 33.407 24.5936 34.2854C24.6044 33.5912 24.4932 33.3487 23.9169 32.7237C22.158 30.8177 22.4489 28.5851 24.6315 27.2154C25.4203 26.7204 26.2391 26.2645 26.9858 25.7116C28.5359 24.5628 28.7901 23.6119 28.1326 21.8022C28.0859 21.6742 28.0321 21.5492 27.988 21.4205C27.7267 20.6659 27.4929 19.9083 27.8059 19.0845C27.6946 19.0433 27.613 19.0145 27.5325 18.9828C25.1078 18.0365 24.5457 15.1551 26.4366 13.38C26.8392 13.0021 27.3292 12.6991 27.8505 12.8754C28.5818 13.1225 28.943 12.7112 29.3435 12.2754C29.5593 12.0403 29.7773 11.8074 29.9868 11.567C30.4877 10.9932 30.9844 10.4161 31.4832 9.84022C31.5361 9.88313 31.5886 9.92605 31.6415 9.96897C31.0269 11.2374 29.8885 12.1078 29.0589 13.2329C31.0873 11.9887 32.507 10.0515 34.3296 8.57139C34.3375 8.69307 34.3183 8.7889 34.2613 8.84807C32.8212 10.339 31.4319 11.8828 29.8527 13.2321C29.5597 13.4821 29.3568 13.6442 29.8464 13.9675C33.5662 11.497 36.3735 7.98636 39.6762 4.92451C39.9683 5.72956 40.327 6.35793 40.5229 7.06005C41.2133 9.53186 40.9258 11.9812 40.3195 14.4059C40.0408 15.5206 40.1879 16.5102 40.765 17.4698C40.9758 17.8207 41.1863 18.172 41.3838 18.5299C41.7838 19.2549 41.715 19.5637 40.9779 19.9679C40.387 20.2921 39.7578 20.5467 39.1574 20.8267C39.2866 21.883 39.2866 21.8826 38.2886 21.9939C38.2223 22.0014 38.1277 21.9964 38.0961 22.0368C37.6648 22.5847 37.1489 22.4376 36.5885 22.2226C36.6997 22.3964 36.8439 22.4972 36.9735 22.6143C37.8731 23.4244 37.7902 23.8931 36.6506 24.2769C36.0468 24.4802 36.0672 24.9174 36.2193 25.3595C36.4197 25.9433 36.5631 26.5404 36.6277 27.1437C36.831 29.0447 36.2943 30.1318 34.4596 30.6998C33.7479 30.9202 33.0029 31.0327 32.2853 31.2365C31.1457 31.5598 31.0036 31.7598 30.924 32.9382C30.9165 33.0466 30.9256 33.1712 30.7811 33.2091C30.4535 32.9849 30.4535 32.9849 30.3819 32.8141C30.0514 32.0299 30.2919 31.1015 31.0415 30.4919C31.5628 30.0681 32.1482 29.7151 32.0257 28.8438C32.4016 29.093 32.3341 29.3655 32.2766 29.588C32.1607 30.036 31.7757 30.2764 31.4294 30.5323C30.8506 30.9602 30.5548 31.5215 30.5856 32.2624C30.7273 31.4094 31.3815 31.1311 32.074 30.9265C32.9191 30.6773 33.7871 30.5031 34.6229 30.2289C35.4997 29.941 36.148 29.3543 36.241 28.3934C36.3168 27.6096 36.3622 26.8016 36.0505 25.9958C35.8909 26.3729 35.7647 26.7116 35.6063 27.035C35.3842 27.4871 35.0263 27.8184 34.525 27.8934C33.255 28.0834 32.0607 27.7809 31.0202 27.0716C29.961 26.3499 29.7643 26.3916 29.5827 27.6675C29.5602 27.825 29.5681 27.9863 29.5564 28.1455C29.4447 29.6647 29.3751 31.1894 29.2035 32.702C29.0889 33.7108 29.321 34.5854 29.8435 35.4234C29.9956 35.6672 30.1764 35.773 30.4515 35.7222C30.6056 35.5222 30.366 35.1971 30.7077 35.0363C31.2469 35.4509 31.6853 36.0276 32.3799 36.2522C33.2037 36.5185 33.8058 36.368 34.3046 35.7313C34.2242 35.6859 34.15 35.6305 34.0662 35.5988C32.9045 35.16 32.5103 34.0996 33.1195 33.0233C33.5546 32.2545 34.2996 32.0028 35.1051 31.8686C35.6863 31.7719 36.2768 31.7215 36.8506 31.594C38.9265 31.1315 39.9433 29.553 39.5645 27.4746C39.497 27.1033 39.3186 26.7225 39.4632 26.3329C39.5607 26.0691 39.5016 25.7207 39.847 25.5807C40.1604 25.4536 40.3654 25.7087 40.6554 25.8703C40.5708 25.1736 40.7221 24.5703 40.7971 23.964C40.8796 23.2956 40.9754 22.6022 41.4067 22.0418C41.5959 21.7955 41.85 21.5051 42.203 21.6705C42.5355 21.8268 42.4347 22.1914 42.3892 22.4722C42.2972 23.0431 42.1213 23.6027 42.1876 24.3432C42.4709 23.3806 42.6601 22.5368 43.161 21.8222C43.4093 21.4676 43.6989 21.183 44.3135 21.6105C43.9385 20.8575 43.4747 20.3592 43.3585 19.6908C43.0109 17.6882 43.4022 15.6976 43.4472 13.7021C43.4926 11.6807 43.7252 9.64812 43.228 7.65592C42.8776 6.25167 42.3622 4.91826 40.8354 4.33656C40.6583 4.26905 40.6637 4.10029 40.6512 3.9332C40.5808 3.01064 40.3779 2.71896 39.4566 2.60395C38.4303 2.47561 37.4202 2.33435 36.3418 2.48895C35.6572 2.58729 35.0334 2.65146 34.4671 3.03356C33.1237 3.94028 32.1024 5.16702 31.1652 6.4621C29.8481 8.28179 28.4097 9.97022 26.5025 11.2115C25.7908 11.6745 25.0216 11.8908 24.1557 12.0028C24.2594 11.6495 24.5474 11.6207 24.739 11.487C26.212 10.4569 27.4946 9.32644 28.0059 7.46508C28.5701 5.41079 29.0151 3.28483 30.474 1.51222C29.4618 1.50097 28.5526 1.04636 27.6738 1.25846C25.3566 1.81766 22.2576 4.07446 21.9401 7.01838C21.8414 7.93427 22.0076 8.84016 22.2422 9.71396C23.086 12.86 22.7231 15.5847 19.7071 17.4582C19.5546 17.5528 19.4366 17.7015 19.3004 17.8232C18.5416 18.5011 17.9149 19.267 17.6707 20.2846C17.4315 21.2813 17.4373 22.2935 17.7936 23.2406C18.1307 24.1373 17.9103 25.2149 18.6845 25.9633C18.6966 25.9749 18.6599 26.0366 18.6462 26.0741C18.5528 26.1295 18.4666 26.1049 18.4028 26.0324C16.9269 24.344 16.3106 22.358 16.3656 20.1392C16.3952 18.9453 17.0552 18.0545 17.7711 17.1911C18.7574 16.0014 19.9075 14.9443 20.6892 13.5896C21.2784 12.5695 21.6026 11.5457 21.383 10.2977C20.8513 7.27048 21.7739 4.70991 24.1557 2.70146C24.9145 2.06184 25.7858 1.61473 26.8112 1.07595C23.4731 0.873018 20.6659 1.84099 18.1066 3.5986C17.1132 4.28114 16.5306 5.27328 16.2985 6.46835C16.0385 7.80801 16.1464 9.13851 16.3485 10.4707C16.5456 11.7691 16.9515 13.0471 16.8252 14.3784C16.6986 15.716 16.1981 16.8406 14.8489 17.3902C14.3038 17.6123 13.7505 17.8144 13.2113 18.0503C12.0641 18.5524 10.8949 19.0358 10.2836 20.2492C9.82982 21.1509 10.1657 22.5768 10.9215 23.0122Z" fill="#A86127"/>
<path d="M17.5581 36.7577C17.6635 37.2002 18.1039 36.881 18.1619 37.2265C17.3076 37.8811 17.2935 37.8773 17.2085 38.1799C16.5072 40.6742 15.9967 43.2035 15.8976 45.7999C15.848 47.0971 16.2759 48.3142 16.6184 49.5376C17.516 52.7428 18.2114 55.988 18.421 59.3132C18.4885 60.387 18.5456 61.5271 18.0656 62.5351C17.2743 64.1977 16.438 65.8419 15.2875 67.302C13.5032 69.5667 11.6644 71.7906 10.431 74.4366C9.07798 77.3393 7.65332 80.2103 6.56284 83.2271C4.60064 88.6562 3.2318 94.2569 1.79172 99.8364C1.20043 102.128 0.772494 104.447 0.658321 106.819C0.629986 107.409 0.834164 107.702 1.41128 107.798C2.10299 107.912 2.78803 108.066 3.45265 108.199C4.86523 101.277 7.1487 94.6486 9.56301 88.0636C11.9707 81.4974 14.3166 74.9033 17.6335 68.71C12.0127 81.5353 7.13787 94.6174 3.72017 108.252C4.0306 108.321 4.16228 108.343 4.2902 108.379C4.43896 108.422 4.57772 108.527 4.80523 108.405C5.37276 104.71 6.27782 101.051 7.42997 97.4513C6.76535 101.169 5.70237 104.803 5.20609 108.603C6.92077 109.056 8.60087 109.499 10.3364 109.725C11.8106 109.916 13.2932 109.784 14.7704 109.926C16.7555 110.118 18.7511 110.205 20.7803 110.34C21.0083 109.259 21.0358 108.164 21.0549 107.083C21.0904 105.1 21.2658 103.127 21.39 101.153C21.6296 97.3371 21.91 93.5244 22.0529 89.7025C22.12 87.909 22.3163 86.1202 22.4521 84.3293C22.4679 84.1192 22.4788 83.9109 22.8305 83.8884C22.28 92.7135 21.73 101.526 21.1816 110.314C21.4933 110.517 21.7921 110.506 22.0842 110.53C23.738 110.668 25.3931 110.795 27.0349 111.047C29.5634 111.434 32.0039 111.007 34.4432 110.277C33.939 108.328 33.4553 106.403 32.9411 104.486C32.4244 102.56 32.0393 100.605 31.6489 98.653C31.2651 96.7341 30.9697 94.7974 30.6359 92.8685C30.7393 92.8473 30.843 92.826 30.9468 92.8048C31.8785 98.6776 33.2152 104.455 34.8062 110.197C34.927 110.173 35.0333 110.152 35.1395 110.133C35.2487 110.113 35.3708 110.12 35.425 109.971C35.425 109.919 35.4412 109.846 35.4229 109.784C34.1661 105.549 33.0644 101.281 32.3652 96.91C31.8493 93.6827 31.3997 90.4484 31.0797 87.1978C30.848 84.846 30.6497 82.4908 30.4826 80.1319C30.2496 76.8384 30.2034 73.537 29.9717 70.2447C29.8571 68.6171 30.0267 66.9441 29.1338 65.3377C29.75 65.5927 29.8521 66.0603 29.9634 66.5049C30.2688 67.7258 30.2747 68.9859 30.3459 70.2276C30.5818 74.3395 30.6772 78.4593 31.058 82.5633C31.2555 84.6897 31.4039 86.8211 31.6422 88.9429C31.956 91.7384 32.3781 94.5199 32.824 97.2988C33.5107 101.58 34.6374 105.75 35.8296 109.945C36.4534 109.818 37.083 109.787 37.6938 109.559C37.6709 109.399 37.6634 109.266 37.6322 109.139C36.3708 104.003 35.6579 98.778 35.3575 93.5102C35.1549 89.9642 34.6295 86.4869 33.9145 83.0192C33.0357 78.7556 32.0814 74.5045 31.5714 70.1713C31.1772 66.8224 31.3022 63.4968 31.9152 60.1891C31.9789 59.8449 31.9456 59.6832 31.6797 59.4607C30.4522 58.4336 29.3263 57.2931 28.3916 55.9963C26.0232 52.7091 23.7459 49.3572 21.3675 46.0762C20.3537 44.6777 19.5011 43.1702 18.9594 41.5071C18.2635 39.372 18.579 37.3823 20.0128 35.6885C21.392 34.0592 22.6617 33.7458 24.181 34.7092C24.2051 34.7247 24.2605 34.6909 24.3014 34.6801C23.9343 33.9267 23.5926 33.7742 22.8146 33.8775C21.7567 34.0179 20.6774 34.1805 19.7874 33.2783C18.9973 34.4963 18.1248 35.5755 17.5581 36.7577Z" fill="#FF5D3E"/>
<path d="M32.4224 55.923C31.967 55.6259 31.9657 55.3363 31.8936 55.0929C31.4524 53.6033 31.9574 52.2165 32.4233 50.8452C32.5537 50.4606 32.5178 50.2493 32.3008 49.9351C30.1415 46.8079 28.0997 43.6106 26.63 40.0858C26.22 39.1016 25.8591 38.0965 25.4353 37.1189C25.0545 36.2414 24.442 35.5414 23.604 35.0617C23.0244 34.7301 22.4123 34.5913 21.7839 34.9192C20.0621 35.818 19.1525 37.296 19.0591 39.1841C18.9708 40.9733 19.8108 42.5264 20.7134 44.0098C22.7152 47.2991 25.2545 50.2172 27.288 53.4874C28.5439 55.5071 30.0594 57.3131 31.7899 58.9582C33.1537 60.2545 36.2022 60.372 37.3123 58.2102C37.6544 57.5443 38.0394 56.9022 38.3282 56.2072C39.2416 54.007 39.9308 51.7277 40.7046 49.4793C42.3109 44.8111 43.9389 40.1487 45.349 35.4163C45.6603 34.3717 45.9982 33.3075 45.8724 32.1645C45.6657 30.2869 45.624 28.3993 45.6749 26.5104C45.6853 26.1233 45.6853 25.7349 45.7165 25.3491C45.7478 24.9666 45.9291 24.5886 45.7361 24.1169C45.0228 25.2312 45.1678 26.4858 44.8144 27.6209C44.101 25.7766 44.8082 23.9369 44.8582 22.0231C44.3998 22.3331 44.3206 22.7252 44.2077 23.0839C43.861 24.184 43.896 25.3274 43.8602 26.4621C43.8527 26.6929 44.0027 27.0496 43.6323 27.0584C43.2564 27.0675 43.3918 26.6925 43.3814 26.4712C43.3085 24.9249 43.5068 23.3977 43.6906 21.861C42.4614 23.5973 42.3784 25.5916 42.4276 27.6426C41.7892 26.8563 41.7296 25.9491 41.7221 25.0211C41.7146 24.0536 41.7305 23.0902 41.9088 22.1356C40.8425 24.0928 40.9717 26.1658 41.3992 28.2888C40.7913 27.5771 40.5992 26.6817 40.0533 25.9458C39.6774 26.57 39.9129 27.0938 40.06 27.6088C40.38 28.7314 41.0125 29.7156 41.498 30.7648C41.8359 31.4953 41.9417 32.1999 41.6684 32.9954C40.9742 35.0155 40.2041 37.006 39.2207 38.8978C37.429 42.3455 35.5551 45.7503 33.74 49.1859C32.6591 51.2314 31.6824 53.3141 32.4224 55.923Z" fill="#FFD4AE"/>
<path d="M15.291 110.664C15.3681 110.837 15.396 110.917 15.4373 110.99C16.4523 112.783 17.1157 114.707 17.5691 116.711C18.0178 118.695 18.0753 120.585 16.5165 122.199C16.074 122.658 15.8748 123.304 15.7569 123.931C15.4906 125.352 15.4639 126.803 15.6627 128.218C16.364 133.21 17.462 138.138 18.1149 143.139C18.5691 146.616 18.94 150.105 18.462 153.606C18.2087 155.463 17.6407 157.211 15.8456 158.235C15.664 158.339 15.4448 158.445 15.3673 158.68C16.7844 159.596 17.1236 160.798 16.6057 163.102C17.4936 163.634 18.3258 164.254 18.8237 165.171C19.6813 164.982 20.4934 164.804 21.341 164.618C21.341 164.444 21.3405 164.287 21.341 164.13C21.3514 157.524 21.2639 150.916 21.6306 144.315C21.7022 143.022 21.8152 141.731 21.9477 140.443C22.1406 138.57 22.356 136.699 22.5848 134.83C22.849 132.67 23.0069 130.491 23.5032 128.367C24.319 124.876 25.2241 121.406 25.1266 117.771C25.0712 115.702 25.1166 113.631 25.1166 111.445C21.8989 111.213 18.6525 110.766 15.291 110.664Z" fill="#FFD4AE"/>
<path d="M29.1391 163.297C29.1391 163.042 29.1391 162.841 29.1391 162.639C29.1466 156.052 29.0674 149.463 29.4303 142.882C29.5003 141.611 29.6104 140.342 29.7462 139.076C29.9837 136.864 30.2629 134.657 30.5112 132.446C30.7617 130.214 31.0117 127.982 31.5534 125.796C32.0822 123.661 32.7122 121.539 32.8155 119.33C32.9281 116.918 32.9343 114.5 32.9776 112.084C32.9818 111.848 33.0606 111.591 32.8685 111.338C31.698 111.585 30.5221 111.809 29.3045 111.798C28.1073 111.788 26.9219 111.643 25.7164 111.537C25.7164 113.245 25.7205 114.882 25.7155 116.52C25.7047 120.057 25.4372 123.556 24.398 126.969C24.0909 127.978 23.7775 129.023 23.9663 130.117C24.5805 133.677 25.2638 137.224 25.7826 140.8C26.2839 144.253 26.6327 147.716 26.3881 151.204C26.2706 152.883 25.9539 154.54 24.8217 155.913C24.3513 156.484 23.6242 156.726 23.1504 157.292C24.6817 158.061 24.8751 159.965 24.4 161.712C25.2626 162.282 26.1343 162.865 26.626 163.826C27.4477 163.614 28.2349 163.395 29.1391 163.297Z" fill="#FFD4AE"/>
<path d="M35.8442 25.3954C35.9076 25.107 36.0188 24.3432 36.0188 24.3432C36.0188 24.3432 36.5789 24.0207 36.9185 23.834C37.2581 23.6473 37.0901 23.3865 37.0901 23.3865C36.3551 22.4489 34.9334 21.9518 35.0371 20.2992C36.3309 20.6447 37.4114 21.3351 38.7473 21.4622C38.4423 20.4463 39.0632 20.1567 39.8649 19.9417C40.337 19.815 40.8116 19.6146 41.1791 19.19C40.9066 18.7737 40.6354 18.3558 40.3608 17.9399C39.7395 16.9982 39.3865 15.9823 39.5782 14.8435C39.7553 13.7922 40.0399 12.755 40.1562 11.6983C40.3812 9.65527 40.3341 7.62473 39.4232 5.53711C39.2369 5.77587 39.1136 5.96713 38.9582 6.12798C37.0243 8.12518 35.183 10.2153 33.0549 12.0183C32.1515 12.7838 31.2698 13.5772 30.2402 14.176C29.8831 14.3835 29.6118 14.4385 29.2568 14.0322C28.3476 12.9917 27.0183 13.2246 26.3195 14.4781C28.1059 14.8439 29.5518 16.4261 28.9088 17.3528C28.6046 17.1445 28.5301 16.8036 28.3963 16.499C28.1838 16.0165 27.9654 15.5373 27.435 15.311C27.0066 15.1285 26.5462 14.736 26.1116 15.0952C25.6824 15.4502 25.8207 16.0215 25.9445 16.5061C26.2299 17.6237 26.9695 18.2995 28.0763 18.577C28.2738 18.6266 28.5038 18.5987 28.5805 18.8425C28.6576 19.0883 28.4471 19.1108 28.2971 19.2129C28.0925 19.3521 28.1388 19.6109 28.1396 19.838C28.1425 20.6343 28.5217 21.3255 28.7492 22.0585C29.2743 23.7499 28.9613 24.8045 27.6008 25.9283C26.825 26.5692 25.9432 27.0467 25.0861 27.5626C24.5698 27.8734 24.0415 28.1751 23.6831 28.7131C25.1774 29.984 27.0408 30.2011 28.793 30.8465C28.8284 30.6328 28.8526 30.5265 28.8626 30.4194C28.9597 29.3794 29.0297 28.336 29.1559 27.2992C29.303 26.0896 29.8681 25.8491 30.9306 26.435C31.8682 26.9517 32.8503 27.3663 33.9583 27.3563C34.5179 27.3513 34.9967 27.143 35.1309 26.6046C35.1309 26.6046 35.7813 25.6837 35.8442 25.3954Z" fill="#FFD4AE"/>
<path d="M23.3948 29.1165C23.3294 29.3436 23.2852 29.4461 23.2715 29.5527C23.1277 30.6665 23.5019 31.6104 24.2641 32.4012C24.9691 33.1329 25.282 33.9492 24.922 34.9422C24.8387 35.1718 24.9003 35.3293 25.0595 35.4872C25.7904 36.2127 26.1863 37.1382 26.5184 38.0795C27.6038 41.1576 29.0814 44.0398 30.8011 46.8033C31.432 47.8171 32.0949 48.811 32.7962 49.8956C33.4683 48.6376 34.0701 47.4738 34.7113 46.3316C34.9414 45.922 34.9159 45.6074 34.6751 45.2078C33.8905 43.9052 33.1729 42.5623 32.3849 41.2622C31.2786 39.4362 30.5315 37.4207 29.3394 35.6356C28.8531 34.9072 28.6331 34.0272 28.7177 33.1004C28.7706 32.5175 28.7277 31.9254 28.7277 31.3487C26.91 30.7236 24.9637 30.5065 23.3948 29.1165Z" fill="#FF5D3E"/>
<path d="M38.0234 58.249C38.3289 58.3395 38.6114 58.1782 38.8922 58.034C39.8002 57.5665 40.3369 56.7648 40.6248 55.8414C41.7628 52.1933 42.6645 48.4785 43.6663 44.792C44.4851 41.7785 45.1734 38.7191 46.3064 35.8065C46.8298 34.4605 47.1431 33.1442 47.0911 31.7087C47.0169 29.6757 47.2352 27.6726 47.9219 25.7417C48.0128 25.4858 48.0753 25.2454 47.9653 24.9125C46.8794 25.8634 47.0356 27.2289 46.6619 28.4385C46.2473 28.0856 46.3927 27.7318 46.441 27.418C46.6319 26.18 47.0548 25.0108 47.5361 23.8595C47.6407 23.6099 47.8561 23.364 47.6873 23.0353C47.1931 23.2953 47.014 23.7666 46.7994 24.2145C46.0372 25.8071 46.2485 27.5051 46.2606 29.1802C46.2723 30.8099 46.521 32.4292 46.1943 34.0709C45.7668 36.219 45.0605 38.2703 44.3359 40.3242C42.2312 46.2867 40.3161 52.3174 38.0234 58.249Z" fill="#FFD4AE"/>
<path d="M35.0556 2.18862C34.3522 2.07611 33.8422 1.97485 33.3267 1.9161C31.6862 1.729 31.6858 1.73526 31.0816 3.28826C30.9995 3.49911 30.9103 3.70787 30.8374 3.92163C30.0619 6.19594 28.7923 8.16689 27.1655 9.92074C27.048 10.0474 26.8563 10.1549 26.8609 10.4437C28.1602 9.54738 29.0911 8.40315 29.9799 7.21975C31.3866 5.34755 32.7388 3.42161 35.0556 2.18862Z" fill="#A86127"/>
<path d="M21.6781 9.16357C21.6481 9.41317 21.628 9.50068 21.6293 9.58818C21.631 9.7011 21.633 9.81903 21.6635 9.92654C22.0931 11.4416 21.6776 12.7713 20.8218 14.0314C20.063 15.1489 19.1475 16.1282 18.2387 17.1157C17.1849 18.2608 16.4511 19.5217 16.6957 21.1622C16.8357 22.1018 16.9482 23.0473 17.4845 23.959C17.5107 23.8199 17.532 23.774 17.5249 23.7332C17.5049 23.6228 17.4774 23.5132 17.4453 23.4052C16.6848 20.8347 17.3349 18.7154 19.4483 17.0424C20.0005 16.6053 20.5117 16.114 21.023 15.6277C21.6164 15.0635 21.9297 14.3793 22.0668 13.5488C22.3068 12.0937 21.9977 10.717 21.6781 9.16357Z" fill="#A86127"/>
<path d="M28.229 7.91638C29.9079 6.14961 30.2462 3.67696 31.5179 1.67434C30.7971 1.49017 30.5141 1.99603 30.2233 2.45272C29.1607 4.11949 28.8611 6.07002 28.229 7.91638Z" fill="#A86127"/>
<path d="M17.3749 36.0005C18.0546 34.9563 18.7338 33.9121 19.4326 32.8383C19.0463 32.3907 18.99 31.8011 18.8288 31.219C19.2092 32.4361 18.5942 33.3233 17.9691 34.2054C17.5966 34.7317 17.3333 35.298 17.3749 36.0005Z" fill="#A86127"/>
<path d="M34.751 17.7736C33.8684 17.7607 33.0592 17.4711 32.3175 17.0223C31.8029 16.7111 31.4337 16.234 31.6595 15.596C31.8716 14.9968 32.4079 14.8668 33.0017 14.9014C34.1572 14.9693 35.521 16.0102 35.8152 17.0773C35.9215 17.4628 35.7352 17.6974 35.3639 17.7666C35.166 17.8041 34.9556 17.7736 34.751 17.7736Z" fill="#FFB8B8"/>
<path d="M34.7563 11.2403C35.5572 10.5666 38.2111 10.2078 39.2508 10.917C39.5695 11.1345 39.8625 11.4149 39.7191 11.7904C39.5558 12.2187 39.1324 12.24 38.7341 12.09C38.0553 11.8341 37.3757 11.5899 36.6594 11.4491C36.2273 11.3641 35.8068 11.3374 35.3785 11.4329C35.1543 11.4829 34.9259 11.5479 34.7563 11.2403Z" fill="#42210B"/>
<path d="M35.7529 14.846C35.3541 14.8172 35.5908 14.3655 35.1499 14.4126C34.9162 14.4376 35.092 14.0522 35.2154 13.8855C35.9212 12.93 37.0475 12.8671 37.9051 13.7367C38.2614 13.7388 38.4305 13.3446 38.8022 13.2838C38.8239 13.378 38.8864 13.5005 38.8547 13.5334C38.3326 14.0788 37.8947 14.6722 37.7197 15.5493C37.2326 14.4301 36.6842 13.7651 35.7529 14.846Z" fill="#42210B"/>
<path d="M27.8441 17.3645C28.0837 17.4116 28.3375 17.5091 28.3342 17.8512C28.3308 18.1583 28.0946 18.3092 27.8404 18.2892C27.5624 18.2675 27.3366 18.0992 27.3595 17.7525C27.3778 17.4712 27.5308 17.3541 27.8441 17.3645Z" fill="white"/>
<path d="M38.8588 19.7529C38.6325 19.4033 38.3458 19.4174 38.0396 19.4687C38.1816 19.2083 38.3829 19.1208 38.6025 19.2003C38.7854 19.2666 38.89 19.437 38.8588 19.7529Z" fill="#42210B"/>
<path d="M29.5567 163.24C30.931 163.089 32.159 163.344 33.3657 163.666C33.8062 163.784 34.5224 163.854 34.4716 164.467C34.4266 165.006 33.7374 164.886 33.3295 164.967C31.3835 165.352 29.3938 165.323 27.4291 165.541C26.8524 165.604 26.5911 165.329 26.4241 164.86C25.8515 163.256 25.3998 162.754 23.7618 161.933C23.1284 162.693 23.5585 163.641 23.2672 164.524C23.9902 164.683 24.6719 164.823 25.3482 164.986C25.6323 165.054 25.9161 165.146 26.1807 165.268C26.4178 165.378 26.7391 165.468 26.7066 165.816C26.6732 166.173 26.347 166.176 26.0857 166.221C25.2807 166.358 24.4785 166.527 23.6672 166.605C22.3321 166.735 20.9883 166.779 19.6532 166.91C19.0482 166.97 18.7328 166.702 18.6248 166.18C18.3123 164.669 17.1756 163.949 15.9639 163.281C15.2446 164.206 15.8963 165.427 15.1276 166.352C15.0584 165.788 14.9963 165.224 14.9188 164.661C14.7788 163.642 14.35 162.751 13.685 161.973C12.9366 161.098 12.9395 159.992 13.7821 159.191C14.3063 158.692 14.8892 158.232 15.5097 157.861C17.0935 156.913 17.6498 155.394 17.9252 153.711C18.3752 150.963 18.0923 148.216 17.8202 145.478C17.3148 140.39 16.2034 135.399 15.3505 130.367C14.9809 128.186 14.7142 126 15.1863 123.796C15.3355 123.099 15.5305 122.383 16.0189 121.879C17.3456 120.511 17.4481 118.905 17.1035 117.177C16.671 115.007 15.9901 112.923 14.9588 110.958C14.8363 110.725 14.7246 110.538 14.4083 110.552C10.6465 110.72 7.05791 109.814 3.4852 108.795C2.7889 108.597 2.06345 108.502 1.35382 108.348C0.200835 108.099 -0.098351 107.7 0.0262397 106.55C0.219584 104.767 0.411263 102.978 0.847539 101.238C2.36346 95.1928 3.73188 89.0962 5.91951 83.2504C7.94504 77.8372 10.3094 72.5598 13.7325 67.8487C14.7742 66.4149 15.9218 65.0689 16.8393 63.5339C17.8527 61.8379 17.9586 60.0424 17.7315 58.1927C17.3489 55.0763 16.6656 52.0186 15.748 49.0134C15.293 47.5225 15.4126 45.9812 15.4947 44.4636C15.6209 42.1251 16.1118 39.842 16.8189 37.5607C16.0255 37.2981 15.5247 36.6823 15.0217 36.0714C13.6758 37.4715 12.3728 37.719 11.4469 36.7589C11.4615 36.586 11.5665 36.481 11.7219 36.4173C12.712 36.0097 12.9328 35.2022 12.2899 34.338C11.8944 33.8063 11.3232 33.5183 10.7452 33.2483C9.93808 32.8716 9.15345 32.4637 8.49716 31.847C7.10708 30.5407 7.01665 29.1672 8.22172 27.6959C8.39465 27.4846 8.55425 27.2621 8.72717 27.0505C9.65556 25.9158 9.80765 24.7082 9.14636 23.3786C8.75259 22.5873 8.54758 21.7272 8.31631 20.8701C7.87254 19.2279 8.96302 17.112 10.5939 16.3344C11.0856 16.0998 11.5694 15.844 12.0749 15.6439C13.93 14.9106 14.6938 13.4138 14.9084 11.5641C15.0575 10.2782 15.0538 8.97314 15.238 7.69348C15.6105 5.10624 17.0677 3.29489 19.4141 2.17774C21.8509 1.01725 24.3827 0.26179 27.1137 0.55139C29.4159 0.795154 31.7123 1.10267 34.0049 1.42727C35.4904 1.6377 36.9709 1.86563 38.4735 1.90522C38.976 1.91855 39.4682 2.00481 39.9424 2.16732C40.8766 2.48734 41.177 2.97445 41.0812 3.99368C42.7692 4.82247 43.4388 6.34382 43.7863 8.06642C44.1551 9.89486 43.9726 11.7421 43.9313 13.583C43.898 15.0635 43.8501 16.5436 43.7955 18.0233C43.7526 19.1883 44.0155 20.2755 44.5697 21.2968C44.6018 21.3555 44.601 21.476 44.6347 21.4835C45.8944 21.7701 45.0935 22.744 45.2614 23.389C45.3077 23.5678 45.1281 23.7698 45.1981 23.9819C45.9123 23.3352 46.0785 23.3719 46.3052 24.2624C46.6061 23.8386 46.734 23.3382 47.1078 22.994C47.3528 22.7681 47.6116 22.5314 47.9416 22.7402C48.2353 22.926 48.1883 23.2406 48.0728 23.5398C47.9507 23.8557 47.8474 24.1786 47.7161 24.5557C48.4991 24.5786 48.5674 25.0753 48.3733 25.6241C47.6141 27.768 47.5557 29.9844 47.5916 32.2216C47.6099 33.3633 47.3761 34.4592 46.9315 35.5339C45.6631 38.5999 44.9568 41.8422 44.0618 45.0249C43.0567 48.5992 42.2387 52.2257 41.0603 55.7517C40.6932 56.8501 40.1778 57.8464 39.1165 58.4481C38.8335 58.6086 38.5331 58.7494 38.2102 58.6919C37.7668 58.6132 37.5093 58.8023 37.2384 59.1298C36.1926 60.3949 34.272 60.8304 32.7403 60.1866C32.6569 60.1516 32.5719 60.1199 32.4261 60.062C32.2686 61.09 32.2315 62.1071 32.1494 63.1213C31.7231 68.4025 32.6794 73.5478 33.6061 78.7027C34.0478 81.1612 34.8671 83.5288 35.2208 86.0098C35.5483 88.3082 35.8375 90.6067 35.9904 92.9227C36.3446 98.2876 37.0251 103.606 38.2356 108.851C38.4773 109.898 38.3535 110.07 37.3164 110.295C36.2292 110.531 35.1546 110.829 34.0616 111.032C33.5824 111.121 33.4966 111.333 33.5078 111.763C33.5691 114.111 33.4682 116.458 33.4015 118.805C33.3349 121.142 32.7519 123.383 32.174 125.628C31.6123 127.811 31.3381 130.045 31.0889 132.279C30.8497 134.425 30.5414 136.562 30.3434 138.713C30.1414 140.911 29.9005 143.107 29.8509 145.312C29.7234 151.009 29.6505 156.708 29.5563 162.406C29.5534 162.653 29.5567 162.898 29.5567 163.24ZM10.9215 23.0123C10.6452 23.4548 10.4919 23.124 10.3452 22.9094C9.31221 21.3976 9.66181 19.7934 11.2015 18.732C12.2407 18.0158 13.4087 17.5853 14.5563 17.1057C15.883 16.5519 16.3939 15.4877 16.4235 14.1368C16.4622 12.3804 15.873 10.712 15.6747 8.98314C15.6092 9.25149 15.6109 9.51442 15.6088 9.77735C15.6063 10.0736 15.6092 10.3703 15.5938 10.6657C15.4455 13.4755 14.3238 15.5206 11.4773 16.5178C8.9551 17.4011 8.23464 19.1446 8.99594 21.7056C9.34012 22.864 10.0193 23.914 10.0343 25.2091C10.8165 24.5941 10.9806 24.1645 10.9198 23.0131C10.5635 21.8701 10.2902 20.7309 11.0498 19.6292C10.7556 20.8072 11.0248 21.9502 11.214 23.1052C11.3869 24.1624 11.029 25.0287 10.0973 25.6212C10.0064 25.6787 9.91182 25.765 9.87057 25.8604C9.4718 26.7854 8.88635 27.5963 8.34423 28.4372C7.80128 29.2789 7.80378 30.129 8.44424 30.9711C8.97094 31.6645 9.65598 32.1283 10.3927 32.5441C10.9456 32.8566 11.5294 33.1262 12.044 33.4925C12.6362 33.9138 13.0262 34.4842 13.0212 35.2718C13.0166 35.9718 12.6874 36.4406 12.007 36.7577C13.1395 36.906 13.6508 36.7814 14.1996 36.2598C15.6155 34.9134 15.5192 32.8875 13.9771 31.6999C13.4891 31.324 12.952 31.0278 12.4007 30.7532C11.8078 30.4577 11.359 29.9981 11.1394 29.376C10.6069 27.8659 11.3607 26.5463 11.7153 25.0308C11.9778 25.3879 11.8944 25.5966 11.8353 25.8108C11.6848 26.3562 11.5223 26.9 11.4032 27.4526C11.0461 29.1131 11.8624 30.4323 13.3845 30.6853C12.2886 28.9531 12.1153 28.2305 12.3203 26.2492C12.5028 24.4866 13.4316 22.3723 14.1758 22.156C13.5929 23.134 13.2287 24.1482 12.9674 25.2049C12.4174 27.4296 12.6724 29.4118 14.4358 31.0907C15.4972 32.1012 15.898 33.3875 15.4926 34.8784C15.2376 35.816 15.8418 36.691 16.9081 37.0202C16.4305 35.861 16.8352 34.8776 17.4648 33.9409C17.6169 33.7142 17.7819 33.4954 17.954 33.2833C18.5857 32.5037 18.6198 31.6441 18.1944 30.7903C17.5148 29.4273 17.7256 28.168 18.6453 27.0534C19.4341 26.0971 20.0466 25.0412 20.6562 23.9799C21.3492 22.7727 21.4888 21.4551 21.285 20.093C21.2662 19.968 21.1733 19.8379 21.4067 19.7192C22.0942 21.3289 21.5975 22.801 20.9279 24.3299C22.8243 22.4769 23.1264 20.3188 22.3938 17.9528C22.7101 17.9166 22.7138 18.0895 22.7563 18.2049C23.4314 20.0413 23.3643 21.8081 22.2484 23.4719C21.5342 24.5366 20.6512 25.4587 19.7791 26.39C19.3274 26.8721 18.9049 27.3751 18.5698 27.9513C17.9952 28.9402 18.1356 30.3632 19.0911 30.9282C19.2399 31.0161 19.2749 31.1595 19.2995 31.3299C19.5291 32.9296 20.6566 33.7863 22.3063 33.4725C23.2597 33.2912 24.0072 33.4071 24.5935 34.2855C24.6044 33.5913 24.4931 33.3487 23.9168 32.7237C22.158 30.8178 22.4488 28.5851 24.6314 27.2155C25.4202 26.7204 26.239 26.2646 26.9858 25.7116C28.5358 24.5628 28.79 23.6119 28.1325 21.8022C28.0858 21.6743 28.0321 21.5493 27.9879 21.4205C27.7266 20.6659 27.4929 19.9084 27.8058 19.0846C27.6945 19.0433 27.6129 19.0146 27.5325 18.9829C25.1077 18.0366 24.5456 15.1552 26.4366 13.3801C26.8391 13.0021 27.3291 12.6992 27.8504 12.8755C28.5817 13.1225 28.943 12.7113 29.3434 12.2754C29.5592 12.0404 29.7772 11.8075 29.9868 11.567C30.4876 10.9933 30.9843 10.4161 31.4831 9.84027C31.536 9.88319 31.5885 9.92611 31.6414 9.96903C31.0268 11.2374 29.8884 12.1079 29.0588 13.233C31.0872 11.9887 32.5069 10.0515 34.3295 8.57145C34.3374 8.69312 34.3183 8.78896 34.2612 8.84813C32.8211 10.3391 31.4318 11.8829 29.8526 13.2321C29.5597 13.4822 29.3567 13.6442 29.8463 13.9676C33.5661 11.497 36.3734 7.98641 39.6761 4.92456C39.9682 5.72961 40.327 6.35798 40.5228 7.06011C41.2133 9.53192 40.9257 11.9812 40.3195 14.406C40.0407 15.5206 40.1878 16.5102 40.7649 17.4699C40.9757 17.8207 41.1862 18.172 41.3837 18.53C41.7837 19.255 41.715 19.5638 40.9778 19.968C40.387 20.2921 39.7578 20.5467 39.1573 20.8268C39.2865 21.8831 39.2865 21.8827 38.2885 21.9939C38.2222 22.0014 38.1277 21.9964 38.096 22.0368C37.6647 22.5848 37.1488 22.4377 36.5884 22.2227C36.6997 22.3964 36.8438 22.4973 36.9734 22.6144C37.8731 23.4244 37.7901 23.8932 36.6505 24.277C36.0467 24.4803 36.0671 24.9174 36.2192 25.3595C36.4196 25.9433 36.563 26.5404 36.6276 27.1438C36.8309 29.0447 36.2942 30.1319 34.4595 30.6998C33.7478 30.9203 33.0028 31.0328 32.2852 31.2365C31.1456 31.5599 31.0035 31.7599 30.9239 32.9383C30.9164 33.0466 30.9256 33.1712 30.781 33.2092C30.4535 32.985 30.4535 32.985 30.3818 32.8141C30.0514 32.0299 30.2918 31.1015 31.0414 30.4919C31.5627 30.0681 32.1481 29.7152 32.0256 28.8439C32.4015 29.0931 32.334 29.3656 32.2765 29.5881C32.1606 30.0361 31.7756 30.2765 31.4293 30.5323C30.8506 30.9603 30.5547 31.5216 30.5855 32.2624C30.7272 31.4095 31.3814 31.1311 32.074 30.9265C32.919 30.6773 33.787 30.5032 34.6229 30.229C35.4996 29.941 36.148 29.3543 36.2409 28.3935C36.3167 27.6097 36.3621 26.8017 36.0505 25.9958C35.8909 26.3729 35.7646 26.7117 35.6063 27.035C35.3842 27.4871 35.0262 27.8184 34.5249 27.8934C33.2549 28.0834 32.0606 27.7809 31.0202 27.0717C29.9609 26.35 29.7643 26.3917 29.5826 27.6676C29.5601 27.8251 29.568 27.9863 29.5563 28.1455C29.4446 29.6648 29.3751 31.1895 29.2034 32.702C29.0888 33.7108 29.3209 34.5855 29.8434 35.4235C29.9955 35.6672 30.1764 35.7731 30.4514 35.7222C30.6055 35.5222 30.366 35.1972 30.7076 35.0363C31.2468 35.451 31.6852 36.0277 32.3798 36.2523C33.2036 36.5185 33.8057 36.3681 34.3045 35.7314C34.2241 35.686 34.1499 35.6306 34.0662 35.5989C32.9044 35.1601 32.5102 34.0996 33.1194 33.0233C33.5545 32.2545 34.2995 32.0028 35.105 31.8687C35.6863 31.772 36.2767 31.7216 36.8505 31.5941C38.9265 31.1315 39.9432 29.5531 39.5644 27.4746C39.4969 27.1034 39.3186 26.7225 39.4632 26.3329C39.5607 26.0691 39.5015 25.7208 39.8469 25.5808C40.1603 25.4537 40.3653 25.7087 40.6553 25.8704C40.5707 25.1737 40.722 24.5703 40.797 23.964C40.8795 23.2957 40.9753 22.6023 41.4066 22.0418C41.5958 21.7956 41.85 21.5051 42.2029 21.6706C42.5354 21.8268 42.4346 22.1914 42.3892 22.4723C42.2971 23.0431 42.1212 23.6028 42.1875 24.3432C42.4708 23.3807 42.66 22.5369 43.1609 21.8222C43.4092 21.4676 43.6988 21.183 44.3134 21.6106C43.9384 20.8576 43.4746 20.3592 43.3584 19.6909C43.0109 17.6882 43.4021 15.6977 43.4471 13.7022C43.4926 11.6808 43.7251 9.64818 43.228 7.65598C42.8775 6.25173 42.3621 4.91831 40.8353 4.33661C40.6582 4.26911 40.6636 4.10035 40.6511 3.93326C40.5807 3.0107 40.3778 2.71902 39.4565 2.60401C38.4302 2.47567 37.4201 2.33441 36.3417 2.489C35.6571 2.58734 35.0333 2.65151 34.467 3.03362C33.1236 3.94034 32.1023 5.16708 31.1652 6.46215C29.848 8.28185 28.4096 9.97028 26.5024 11.2116C25.7907 11.6745 25.0215 11.8908 24.1556 12.0029C24.2593 11.6495 24.5473 11.6208 24.739 11.487C26.212 10.457 27.4945 9.32649 28.0058 7.46513C28.57 5.41084 29.015 3.28488 30.4739 1.51228C29.4617 1.50103 28.5525 1.04642 27.6737 1.25851C25.3565 1.81771 22.2576 4.07452 21.94 7.01844C21.8413 7.93433 22.0075 8.84021 22.2421 9.71401C23.0859 12.86 22.723 15.5848 19.707 17.4582C19.5545 17.5528 19.4366 17.7016 19.3003 17.8232C18.5415 18.5012 17.9148 19.2671 17.6706 20.2846C17.4314 21.2814 17.4373 22.2935 17.7935 23.2406C18.1306 24.1374 17.9102 25.2149 18.6844 25.9633C18.6965 25.975 18.6598 26.0366 18.6461 26.0741C18.5528 26.1296 18.4665 26.105 18.4027 26.0325C16.9268 24.344 16.3105 22.3581 16.3655 20.1392C16.3951 18.9454 17.0552 18.0545 17.771 17.1911C18.7573 16.0015 19.9074 14.9443 20.6891 13.5897C21.2783 12.5696 21.6025 11.5458 21.3829 10.2978C20.8512 7.27054 21.7738 4.70997 24.1556 2.70152C24.9144 2.0619 25.7857 1.61479 26.8112 1.076C23.473 0.873075 20.6658 1.84105 18.1065 3.59865C17.1131 4.28119 16.5306 5.27334 16.2985 6.46841C16.0384 7.80807 16.1464 9.13856 16.3485 10.4707C16.5456 11.7691 16.9514 13.0471 16.8252 14.3785C16.6985 15.716 16.198 16.8407 14.8488 17.3903C14.3038 17.6124 13.7504 17.8145 13.2112 18.0503C12.064 18.5525 10.8948 19.0358 10.2835 20.2492C9.82974 21.1509 10.1656 22.5769 10.9215 23.0123ZM17.5581 36.7577C17.6635 37.2002 18.104 36.881 18.1619 37.2265C17.3077 37.8811 17.2935 37.8773 17.2085 38.1799C16.5072 40.6742 15.9968 43.2035 15.8976 45.7999C15.848 47.0971 16.276 48.3142 16.6185 49.5376C17.516 52.7428 18.2115 55.988 18.4211 59.3132C18.4886 60.387 18.5457 61.5271 18.0656 62.5351C17.2743 64.1977 16.438 65.8419 15.2876 67.302C13.5033 69.5667 11.6644 71.7906 10.431 74.4366C9.07802 77.3393 7.65336 80.2103 6.56288 83.2271C4.60068 88.6562 3.23185 94.2569 1.79176 99.8364C1.20048 102.128 0.772536 104.447 0.658363 106.819C0.630028 107.409 0.834206 107.702 1.41132 107.798C2.10303 107.912 2.78807 108.066 3.45269 108.199C4.86528 101.277 7.14874 94.6486 9.56305 88.0636C11.9707 81.4974 14.3167 74.9033 17.6335 68.71C12.0128 81.5353 7.13791 94.6174 3.72021 108.252C4.03065 108.321 4.16232 108.343 4.29024 108.379C4.439 108.422 4.57776 108.527 4.80527 108.405C5.37281 104.71 6.27786 101.052 7.43001 97.4513C6.76539 101.169 5.70241 104.803 5.20613 108.603C6.92081 109.056 8.60091 109.499 10.3364 109.725C11.8107 109.916 13.2933 109.784 14.7704 109.926C16.7556 110.118 18.7511 110.205 20.7804 110.34C21.0083 109.259 21.0358 108.164 21.055 107.083C21.0904 105.1 21.2658 103.127 21.39 101.153C21.6296 97.3371 21.91 93.5244 22.053 89.7025C22.12 87.9091 22.3163 86.1202 22.4522 84.3293C22.468 84.1192 22.4788 83.9109 22.8305 83.8884C22.2801 92.7135 21.73 101.526 21.1817 110.314C21.4933 110.517 21.7921 110.506 22.0842 110.53C23.7381 110.668 25.3932 110.795 27.0349 111.047C29.5634 111.434 32.004 111.007 34.4433 110.277C33.9391 108.328 33.4553 106.403 32.9411 104.486C32.4244 102.56 32.0394 100.605 31.6489 98.653C31.2652 96.7342 30.9697 94.7974 30.636 92.8685C30.7393 92.8473 30.8431 92.826 30.9468 92.8048C31.8785 98.6776 33.2153 104.455 34.8062 110.197C34.9271 110.173 35.0333 110.152 35.1396 110.133C35.2487 110.113 35.3708 110.12 35.425 109.971C35.425 109.919 35.4412 109.846 35.4229 109.784C34.1662 105.549 33.0644 101.281 32.3652 96.91C31.8494 93.6827 31.3998 90.4484 31.0797 87.1978C30.8481 84.846 30.6497 82.4908 30.4826 80.1319C30.2497 76.8384 30.2034 73.537 29.9718 70.2447C29.8572 68.6171 30.0268 66.9441 29.1338 65.3377C29.7501 65.5927 29.8522 66.0603 29.9634 66.5049C30.2689 67.7258 30.2747 68.9859 30.346 70.2276C30.5818 74.3395 30.6772 78.4593 31.0581 82.5633C31.2556 84.6897 31.4039 86.8211 31.6423 88.9429C31.956 91.7384 32.3782 94.5199 32.824 97.2988C33.5107 101.58 34.6375 105.75 35.8296 109.945C36.4534 109.818 37.083 109.787 37.6939 109.56C37.671 109.399 37.6635 109.266 37.6322 109.139C36.3709 104.003 35.6579 98.778 35.3575 93.5102C35.155 89.9642 34.6295 86.4869 33.9145 83.0192C33.0357 78.7556 32.0815 74.5045 31.5714 70.1713C31.1772 66.8224 31.3023 63.4968 31.9152 60.1891C31.979 59.8449 31.9456 59.6832 31.6798 59.4607C30.4522 58.4336 29.3263 57.2931 28.3917 55.9963C26.0232 52.7091 23.746 49.3572 21.3675 46.0762C20.3537 44.6777 19.5011 43.1702 18.9594 41.5071C18.2636 39.372 18.579 37.3823 20.0128 35.6885C21.3921 34.0592 22.6617 33.7459 24.181 34.7092C24.2052 34.7247 24.2606 34.6909 24.3014 34.6801C23.9343 33.9267 23.5926 33.7742 22.8147 33.8775C21.7567 34.018 20.6775 34.1805 19.7874 33.2783C18.9974 34.4963 18.1248 35.5755 17.5581 36.7577ZM32.4223 55.923C31.9669 55.6259 31.9656 55.3363 31.8935 55.0929C31.4523 53.6033 31.9573 52.2165 32.4232 50.8452C32.5536 50.4606 32.5177 50.2493 32.3006 49.9351C30.1414 46.8079 28.0996 43.6106 26.6299 40.0858C26.2199 39.1016 25.859 38.0965 25.4352 37.119C25.0544 36.2414 24.4419 35.5414 23.6039 35.0618C23.0243 34.7301 22.4121 34.5913 21.7838 34.9193C20.062 35.8181 19.1524 37.2961 19.059 39.1841C18.9707 40.9734 19.8107 42.5264 20.7133 44.0098C22.7151 47.2992 25.2544 50.2172 27.2879 53.4874C28.5438 55.5071 30.0593 57.3131 31.7898 58.9582C33.1536 60.2545 36.2021 60.372 37.3122 58.2102C37.6543 57.5443 38.0393 56.9022 38.3281 56.2072C39.2415 54.007 39.9307 51.7278 40.7045 49.4793C42.3108 44.8111 43.9388 40.1487 45.3489 35.4164C45.6602 34.3717 45.9981 33.3075 45.8723 32.1645C45.6656 30.2869 45.6239 28.3993 45.6748 26.5104C45.6852 26.1233 45.6852 25.735 45.7164 25.3491C45.7477 24.9666 45.929 24.5886 45.736 24.117C45.0227 25.2312 45.1677 26.4858 44.8143 27.6209C44.1009 25.7766 44.8081 23.9369 44.8581 22.0231C44.3997 22.3331 44.3205 22.7252 44.2076 23.084C43.8609 24.184 43.8959 25.3274 43.8601 26.4621C43.8526 26.6929 44.0026 27.0496 43.6322 27.0584C43.2563 27.0675 43.3917 26.6925 43.3813 26.4713C43.3084 24.9249 43.5067 23.3977 43.6905 21.861C42.4613 23.5973 42.3783 25.5916 42.4275 27.6426C41.7891 26.8563 41.7295 25.9491 41.722 25.0212C41.7145 24.0536 41.7304 23.0902 41.9087 22.1356C40.8424 24.0928 40.9716 26.1658 41.3991 28.2889C40.7912 27.5772 40.5991 26.6817 40.0532 25.9458C39.6773 26.57 39.9128 27.0938 40.0599 27.6088C40.3799 28.7314 41.0124 29.7156 41.4979 30.7648C41.8358 31.4953 41.9416 32.1999 41.6683 32.9954C40.9741 35.0155 40.204 37.006 39.2206 38.8978C37.4289 42.3455 35.555 45.7503 33.7399 49.1859C32.659 51.2315 31.6823 53.3141 32.4223 55.923ZM15.2909 110.664C15.368 110.837 15.3959 110.917 15.4372 110.99C16.4522 112.783 17.1156 114.707 17.5689 116.711C18.0177 118.695 18.0752 120.585 16.5164 122.199C16.0739 122.658 15.8747 123.304 15.7568 123.931C15.4905 125.352 15.4638 126.803 15.6626 128.218C16.3639 133.21 17.4619 138.138 18.1148 143.139C18.569 146.616 18.9399 150.105 18.4619 153.606C18.2086 155.463 17.6406 157.211 15.8455 158.235C15.6638 158.339 15.4447 158.445 15.3671 158.68C16.7843 159.596 17.1235 160.798 16.6056 163.102C17.4935 163.634 18.3257 164.254 18.8236 165.171C19.6812 164.982 20.4933 164.804 21.3408 164.618C21.3408 164.444 21.3404 164.287 21.3408 164.13C21.3513 157.524 21.2637 150.916 21.6304 144.315C21.7021 143.022 21.815 141.731 21.9475 140.443C22.1405 138.57 22.3559 136.699 22.5847 134.83C22.8488 132.67 23.0068 130.491 23.503 128.367C24.3189 124.876 25.224 121.406 25.1265 117.771C25.0711 115.702 25.1165 113.631 25.1165 111.445C21.8988 111.213 18.6523 110.766 15.2909 110.664ZM29.1392 163.297C29.1392 163.042 29.1392 162.841 29.1392 162.639C29.1467 156.052 29.0675 149.464 29.4305 142.882C29.5005 141.611 29.6105 140.342 29.7463 139.076C29.9838 136.864 30.263 134.657 30.5114 132.446C30.7618 130.214 31.0118 127.982 31.5535 125.796C32.0823 123.661 32.7123 121.539 32.8157 119.33C32.9282 116.918 32.9344 114.5 32.9778 112.084C32.9819 111.848 33.0607 111.591 32.8686 111.338C31.6981 111.585 30.5222 111.809 29.3046 111.798C28.1075 111.788 26.922 111.643 25.7165 111.537C25.7165 113.245 25.7207 114.882 25.7157 116.52C25.7048 120.057 25.4373 123.556 24.3981 126.969C24.091 127.979 23.7776 129.023 23.9664 130.117C24.5806 133.677 25.264 137.224 25.7828 140.8C26.284 144.253 26.6328 147.716 26.3882 151.204C26.2707 152.883 25.954 154.54 24.8219 155.913C24.3514 156.484 23.6243 156.726 23.1505 157.292C24.6819 158.061 24.8752 159.965 24.4002 161.712C25.2627 162.282 26.1345 162.865 26.6261 163.826C27.4479 163.614 28.235 163.395 29.1392 163.297ZM35.4517 25.5737C35.4954 25.1749 35.7979 24.1224 36.3071 24.0378C36.8163 23.9528 37.0901 23.3865 37.0901 23.3865C36.3551 22.4489 34.9333 21.9518 35.0371 20.2992C36.3309 20.6447 37.4114 21.3351 38.7473 21.4622C38.4423 20.4463 39.0631 20.1567 39.8648 19.9417C40.337 19.815 40.8116 19.6146 41.1791 19.19C40.9066 18.7737 40.6353 18.3558 40.3607 17.9399C39.7394 16.9982 39.3865 15.9823 39.5782 14.8435C39.7553 13.7922 40.0399 12.755 40.1561 11.6983C40.3811 9.65526 40.334 7.62472 39.4232 5.5371C39.2369 5.77587 39.1136 5.96713 38.9581 6.12797C37.0243 8.12517 35.1829 10.2153 33.0549 12.0183C32.1515 12.7838 31.2698 13.5772 30.2401 14.1759C29.883 14.3835 29.6117 14.4385 29.2567 14.0322C28.3475 12.9917 27.0183 13.2246 26.3195 14.478C28.1058 14.8439 29.5517 16.4261 28.9088 17.3528C28.6046 17.1445 28.53 16.8036 28.3963 16.499C28.1837 16.0165 27.9654 15.5373 27.4349 15.311C27.0066 15.1285 26.5461 14.736 26.1115 15.0952C25.6823 15.4502 25.8207 16.0215 25.9444 16.5061C26.2299 17.6236 26.9695 18.2995 28.0762 18.577C28.2737 18.6266 28.5038 18.5987 28.5804 18.8425C28.6575 19.0883 28.4471 19.1108 28.2971 19.2129C28.0925 19.3521 28.1387 19.6108 28.1396 19.8379C28.1425 20.6342 28.5217 21.3255 28.7492 22.0585C29.2742 23.7498 28.9613 24.8045 27.6008 25.9283C26.8249 26.5692 25.9432 27.0467 25.0861 27.5626C24.5698 27.8734 24.0414 28.1751 23.6831 28.7131C25.1773 29.984 27.0408 30.2011 28.7929 30.8465C28.8284 30.6328 28.8525 30.5265 28.8625 30.4194C28.9596 29.3793 29.0296 28.336 29.1559 27.2992C29.303 26.0896 29.868 25.8491 30.9306 26.435C31.8681 26.9517 32.8503 27.3663 33.9582 27.3563C34.5179 27.3513 34.9966 27.143 35.1308 26.6046C35.1308 26.6046 35.4079 25.9725 35.4517 25.5737ZM23.3947 29.1164C23.3293 29.3435 23.2851 29.446 23.2714 29.5527C23.1276 30.6665 23.5018 31.6103 24.2639 32.4012C24.969 33.1329 25.2819 33.9492 24.9219 34.9422C24.8385 35.1718 24.9002 35.3293 25.0594 35.4872C25.7903 36.2127 26.1861 37.1381 26.5182 38.0794C27.6037 41.1575 29.0813 44.0398 30.801 46.8033C31.4318 47.8171 32.0948 48.8109 32.7961 49.8956C33.4682 48.6376 34.0699 47.4738 34.7112 46.3316C34.9412 45.922 34.9158 45.6074 34.675 45.2078C33.8903 43.9052 33.1728 42.5622 32.3848 41.2621C31.2785 39.4362 30.5314 37.4207 29.3392 35.6355C28.8529 34.9072 28.6329 34.0271 28.7175 33.1004C28.7704 32.5174 28.7275 31.9253 28.7275 31.3486C26.9099 30.7236 24.9635 30.5065 23.3947 29.1164ZM30.4051 36.321C31.876 39.3699 33.5524 42.2993 35.2333 45.2853C35.7183 44.4161 36.1759 43.6056 36.6242 42.7901C38.331 39.6875 39.9253 36.5398 41.1112 33.1854C41.7058 31.5041 40.6341 30.4315 40.0957 28.9997C39.4511 30.8482 38.316 31.8699 36.518 32.1608C35.7417 32.2862 34.9279 32.2545 34.2016 32.652C33.6236 32.9683 33.309 33.445 33.3445 34.0871C33.3782 34.6947 33.6582 35.1684 34.312 35.3355C34.4554 35.3722 34.6262 35.4214 34.6937 35.5943C34.2533 37.0969 32.6507 37.2231 30.9697 35.8668C30.8889 36.1506 30.6022 36.1739 30.4051 36.321ZM21.925 157.486C22.7022 156.921 23.4068 156.459 24.0527 155.926C24.5989 155.474 24.994 154.89 25.2411 154.207C25.8223 152.6 26.0124 150.921 25.9586 149.245C25.889 147.066 25.7657 144.887 25.4769 142.717C24.9873 139.04 24.2977 135.4 23.6014 131.585C22.2634 140.242 21.7338 148.777 21.925 157.486ZM38.0235 58.249C38.3289 58.3394 38.6114 58.1781 38.8923 58.034C39.8003 57.5664 40.337 56.7647 40.6249 55.8413C41.7629 52.1932 42.6646 48.4784 43.6663 44.7919C44.4851 41.7784 45.1735 38.7191 46.3065 35.8064C46.8298 34.4605 47.1432 33.1442 47.0911 31.7087C47.0169 29.6756 47.2353 27.6726 47.922 25.7416C48.0128 25.4858 48.0753 25.2453 47.9653 24.9124C46.8794 25.8633 47.0357 27.2288 46.6619 28.4385C46.2473 28.0855 46.3927 27.7317 46.4411 27.418C46.6319 26.18 47.0549 25.0108 47.5361 23.8594C47.6407 23.6098 47.8562 23.364 47.6874 23.0352C47.1932 23.2952 47.014 23.7665 46.7994 24.2145C46.0373 25.8071 46.2486 27.5051 46.2606 29.1802C46.2723 30.8098 46.5211 32.4291 46.1944 34.0709C45.7669 36.2189 45.0606 38.2703 44.3359 40.3242C42.2312 46.2866 40.3161 52.3174 38.0235 58.249ZM35.0554 2.18857C34.352 2.07606 33.842 1.97481 33.3265 1.91605C31.686 1.72896 31.6856 1.73521 31.0814 3.28822C30.9993 3.49906 30.9102 3.70783 30.8372 3.92159C30.0618 6.19589 28.7921 8.16684 27.1653 9.92069C27.0478 10.0474 26.8562 10.1549 26.8607 10.4436C28.16 9.54734 29.0909 8.4031 29.9797 7.2197C31.3864 5.34751 32.7386 3.42156 35.0554 2.18857ZM21.6779 9.16357C21.6479 9.41316 21.6279 9.50067 21.6292 9.58817C21.6309 9.7011 21.6329 9.81902 21.6634 9.92653C22.093 11.4416 21.6775 12.7713 20.8216 14.0314C20.0628 15.1489 19.1474 16.1281 18.2386 17.1157C17.1848 18.2608 16.451 19.5217 16.6956 21.1622C16.8356 22.1018 16.9481 23.0473 17.4844 23.959C17.5106 23.8198 17.5319 23.774 17.5248 23.7332C17.5048 23.6228 17.4773 23.5132 17.4452 23.4052C16.6847 20.8347 17.3348 18.7154 19.4482 17.0424C20.0003 16.6053 20.5116 16.114 21.0229 15.6277C21.6163 15.0635 21.9296 14.3793 22.0667 13.5488C22.3067 12.0937 21.9975 10.717 21.6779 9.16357ZM28.2292 7.91641C29.908 6.14964 30.2464 3.67699 31.5181 1.67437C30.7972 1.4902 30.5143 1.99606 30.2234 2.45275C29.1609 4.11952 28.8613 6.07005 28.2292 7.91641ZM21.7984 161.034C21.7984 162.335 21.7984 163.436 21.7984 164.551C22.1684 164.566 22.5022 164.652 22.8663 164.467C22.7701 163.311 22.6117 162.182 21.7984 161.034ZM17.3748 36.0006C18.0544 34.9563 18.7336 33.9121 19.4324 32.8383C19.0461 32.3908 18.9899 31.8012 18.8286 31.219C19.209 32.4362 18.594 33.3233 17.969 34.2055C17.5964 34.7317 17.3331 35.298 17.3748 36.0006Z" fill="#42210B"/>
<path d="M37.7734 21.8609L35.3403 20.7146C35.3403 20.7146 35.7645 21.8084 36.5571 22.0093C37.3492 22.2105 37.6001 22.4039 37.7734 21.8609Z" fill="white"/>
<path d="M98.3474 112.466C99.0333 112.522 99.715 112.557 100.333 112.858C100.883 113.125 100.931 113.613 100.449 113.989C100.239 114.153 99.9854 114.279 99.7325 114.368C98.3907 114.841 96.9973 114.873 95.6243 114.639C93.3538 114.252 91.3437 113.17 89.3523 112.074C88.2185 111.45 87.2659 110.613 86.5425 109.529C86.4309 109.362 86.3479 109.125 86.1167 109.13C85.4646 109.144 84.7949 109.001 84.1628 109.292C84.1345 109.764 84.3716 110.126 84.5803 110.5C85.212 111.633 86.2025 112.462 87.0409 113.419C89.0531 115.717 91.4187 117.486 94.2838 118.635C96.9227 119.695 99.6246 120.16 102.429 119.877C105.658 119.551 108.699 118.435 111.765 117.446C111.977 117.377 112.093 117.263 112.122 117.014C112.27 115.743 112.304 114.471 112.152 113.199C112.026 112.141 111.765 111.087 111.754 110.029C111.721 107.046 112.094 104.083 112.414 101.123C112.865 96.9437 113.221 92.7605 113.249 88.5553C113.259 86.939 113.088 85.328 112.888 83.7275C112.462 80.3181 111.543 77.0192 110.463 73.7694C108.913 69.1033 106.92 64.6601 103.623 60.9224C103.254 60.5045 103.045 60.0869 103.07 59.5182C103.095 58.939 102.949 58.3868 102.476 57.9851C101.966 57.5518 101.616 57.0643 101.729 56.3363C101.786 55.9713 101.616 55.7892 101.2 55.8846C98.6678 56.4663 96.1331 57.0347 93.5992 57.6085C93.1683 57.706 92.8029 57.9247 92.4508 58.1902C92.1904 58.3864 92.0875 58.576 92.2479 58.8794C92.7212 59.7736 93.0258 60.6766 92.3862 61.6316C92.3283 61.7179 92.3454 61.8533 92.3233 61.965C92.1062 63.0588 92.3112 64.2455 91.6062 65.2322C91.5941 65.2489 91.5928 65.2764 91.5932 65.2989C91.6187 66.2661 91.1895 67.1099 90.8232 67.9574C89.7136 70.5255 88.7706 73.1573 88.0885 75.8629C87.3163 78.9276 86.8384 82.0537 86.6796 85.2188C86.658 85.6518 86.6767 86.0864 86.6767 86.5206C87.5672 85.5901 88.261 84.6001 89.0473 83.6896C91.0274 81.3974 92.447 78.8272 93.3067 75.9108C94.0217 73.4844 94.9859 71.1443 96.4694 69.0612C97.4965 67.6186 98.7653 66.464 100.507 65.9652C101.129 65.7873 101.792 65.7285 102.435 66.0831C102.268 66.3406 102.092 66.2881 101.95 66.2748C101.011 66.1869 100.217 66.5544 99.4579 67.0428C98.4832 67.6699 97.709 68.4966 97.0707 69.4546C95.8485 71.2884 95.0485 73.3186 94.3188 75.3828C93.6525 77.2675 93.2459 79.2839 92.085 80.9382C90.1603 83.6808 88.0114 86.2551 85.71 88.6957C85.5391 88.877 85.3658 89.0816 85.1054 89.1207C84.4228 89.2233 83.9553 89.6291 83.554 90.19C84.3262 91.0963 85.1504 91.9872 85.5762 93.1447C85.6508 93.3477 85.8442 93.6027 85.5725 93.7514C85.2479 93.9294 85.1475 93.5939 85.0354 93.3902C84.5399 92.4889 83.9549 91.6546 83.2886 90.8688C82.7148 90.192 82.0914 89.7162 81.1347 89.7979C80.8122 89.8254 80.4634 89.6924 80.1434 89.5833C77.3732 88.637 74.6118 87.6652 71.8379 86.731C69.9341 86.0897 68.0219 85.4705 66.0372 85.0334C65.7363 86.7644 65.2442 88.3678 64.0054 89.6774C64.18 89.7716 64.3321 89.865 64.4933 89.9391C66.9035 91.0529 69.3078 92.1793 71.7271 93.2727C75.5344 94.9932 79.4167 96.5466 83.119 98.4992C84.039 98.9847 85.0304 99.3413 86.0517 99.5772C86.445 99.668 86.9126 99.8568 87.2422 99.7297C88.6797 99.1768 90.0794 98.5588 91.2549 97.4858C92.3616 96.4758 93.1863 95.2824 94.0105 94.0544C96.6756 90.0833 99.2199 86.0397 101.581 81.8803C102.165 80.8515 102.753 79.8248 103.376 78.8197C103.766 78.1918 104.225 77.6088 104.893 77.2396C105.137 77.5601 104.934 77.7167 104.798 77.8942C104.673 78.058 104.461 78.1838 104.503 78.4805C104.98 78.2576 105.274 77.8217 105.781 77.7284C105.411 78.3964 104.819 78.8555 104.204 79.2318C103.808 79.4748 103.567 79.7668 103.356 80.1456C100.339 85.5576 97.0802 90.8192 93.5529 95.9141C93.2142 96.4032 92.8042 96.8224 92.3862 97.2454C91.1824 98.463 89.8207 99.4172 88.1314 99.9281C88.3393 101.285 88.4464 102.593 88.7856 103.865C88.9502 104.484 88.8939 105.02 88.3564 105.465C88.0189 105.745 87.7801 106.109 87.9434 106.647C88.8868 106.642 89.8886 106.463 90.7665 106.842C91.7408 107.263 92.72 107.169 93.7092 107.196C94.1876 107.209 94.6668 107.189 95.1456 107.201C95.2789 107.204 95.4772 107.102 95.5527 107.47C93.7796 107.65 92.0174 107.824 90.289 107.366C88.4672 106.883 87.3697 107.31 86.545 109.013C87.2922 110.126 88.2485 111.015 89.4231 111.671C90.9116 112.503 92.4375 113.258 94.0446 113.829C95.8602 114.475 97.7069 114.684 99.5771 114.041C99.9167 113.924 100.277 113.823 100.423 113.389C100.015 113.003 99.5025 112.951 98.9816 112.935C97.4328 112.887 95.8839 112.845 94.3351 112.798C94.1209 112.792 93.8559 112.845 93.8617 112.489C94.0621 112.3 94.3001 112.388 94.5163 112.391C95.4281 112.408 96.3314 112.374 97.2298 112.183C100.649 111.46 103.758 109.994 106.75 108.243C106.947 108.128 107.128 107.864 107.512 108.289C104.644 110.162 101.616 111.558 98.3474 112.466Z" fill="white"/>
<path d="M91.6869 119.162C92.021 119.25 91.9794 119.453 92.004 119.629C92.1556 120.734 92.216 121.846 92.3065 122.956C92.5352 125.765 92.8511 128.568 93.0753 131.377C93.3124 134.348 93.5911 137.315 93.9499 140.272C94.5399 145.132 95.5167 149.921 96.6813 154.672C97.2926 157.166 97.9381 159.649 98.6785 162.109C99.1019 163.516 99.9786 164.153 101.374 164.388C104.384 164.894 107.371 164.641 110.341 164.163C114.558 163.484 118.7 162.425 122.855 161.453C128.962 160.024 135.112 158.875 141.35 158.207C142.983 158.032 142.986 158.019 143.302 156.371C143.485 155.418 143.697 154.465 143.538 153.444C142.322 153.654 141.134 153.81 139.968 154.069C135.99 154.95 132.063 156.049 128.053 156.796C124.507 157.456 120.947 158.021 117.373 158.506C115.037 158.823 112.71 159.214 110.374 159.537C108.822 159.751 107.265 159.958 105.696 159.982C105.158 159.99 104.519 160.067 104.4 159.247C104.383 159.136 104.168 158.973 104.043 158.971C103.253 158.961 103.328 158.531 103.459 157.966C103.56 157.531 103.611 156.968 102.897 157.001C102.215 157.033 101.975 156.659 101.845 156.09C101.531 154.706 101.432 153.305 101.501 151.892C101.559 150.71 101.642 149.53 101.712 148.349C101.812 146.645 101.904 144.941 102.012 143.237C102.18 140.581 102.355 137.925 102.535 135.27C102.652 133.545 102.785 131.822 102.909 130.097C103.026 128.466 103.142 126.835 103.257 125.226C100.295 123.846 100.098 123.667 98.2297 120.57C98.0964 120.349 97.9247 120.355 97.7272 120.31C94.3828 119.54 91.2414 118.34 88.6692 115.962C88.4458 115.755 88.2492 115.721 87.9416 115.77C85.1806 116.217 82.473 116.903 79.7699 117.6C75.8092 118.622 71.8932 119.791 68.1826 121.548C66.4662 122.36 66.1095 123.199 66.4979 125.068C66.8575 126.801 67.1992 128.541 67.3571 130.305C67.5738 132.726 67.5225 135.16 67.8825 137.582C68.4463 141.375 69.1784 145.139 69.7839 148.924C70.3356 152.372 71.019 155.797 71.7423 159.213C71.9894 160.38 72.197 161.555 72.4153 162.687C74.0246 162.687 75.5384 162.687 77.086 162.687C76.8952 161.671 76.6835 160.719 76.5414 159.756C76.1064 156.812 75.6963 153.864 75.2796 150.917C74.7871 147.433 74.2867 143.95 73.8108 140.464C73.3316 136.954 72.7512 133.465 71.8632 130.032C71.779 129.708 71.6786 129.407 71.9703 129.154C72.447 128.74 72.3195 128.382 71.899 128.028C71.6148 127.789 71.569 127.51 71.7632 127.18C72.1749 126.482 72.3357 125.705 72.4303 124.911C72.4549 124.704 72.447 124.49 72.8257 124.481C72.9857 125.232 72.7441 125.97 72.652 126.755C72.8332 126.735 72.9678 126.739 73.0912 126.703C76.5139 125.716 79.9991 124.979 83.458 124.137C85.9499 123.53 88.4517 122.964 90.9406 122.346C91.2331 122.273 91.7577 122.366 91.7331 121.798C91.7119 121.299 91.7677 120.798 91.6535 120.3C91.5706 119.934 91.5048 119.556 91.6869 119.162Z" fill="#754C24"/>
<path d="M143.1 148.131C143.026 148.123 142.979 148.107 142.937 148.114C138.311 148.926 133.686 149.741 129.06 150.552C124.7 151.317 120.339 152.083 115.978 152.842C114.032 153.18 112.083 153.512 110.132 153.821C109.687 153.892 109.186 154.021 108.945 153.384C108.86 153.161 108.588 153.025 108.314 153.209C108.143 153.323 107.974 153.287 107.792 153.247C106.927 153.056 106.469 153.263 105.887 154.143C106.752 153.928 107.494 153.438 108.375 153.475C108.338 153.747 105.672 157.472 105.415 157.554C105.503 156.82 105.882 156.262 106.23 155.706C106.593 155.127 107.013 154.584 107.473 153.933C106.624 154.188 105.938 154.519 105.276 154.91C105.152 154.983 105.011 155.12 104.842 154.98C104.716 154.875 104.731 154.763 104.791 154.618C105.246 153.53 106.663 152.605 107.842 152.637C107.971 151.406 107.649 150.181 107.764 148.956C107.951 146.958 107.761 144.949 107.997 142.951C108.207 141.17 108.332 139.377 108.519 137.593C108.698 135.876 108.929 134.164 109.1 132.447C109.294 130.502 109.506 128.556 109.601 126.605C109.677 125.028 110.057 123.416 109.017 121.924C108.458 121.122 108.728 120.068 108.661 119.065C107.508 119.38 106.399 119.693 105.283 119.985C103.912 120.344 103.956 120.339 103.881 121.787C103.724 124.831 103.511 127.872 103.325 130.915C103.231 132.437 103.148 133.959 103.053 135.48C102.835 139.022 102.619 142.564 102.388 146.105C102.287 147.648 102.114 149.187 102.038 150.731C101.953 152.478 101.842 154.233 102.251 155.963C102.318 156.249 102.353 156.52 102.747 156.591C103.893 156.798 103.939 156.876 103.911 158C103.906 158.176 103.835 158.361 103.958 158.552C104.318 158.656 104.726 158.785 104.841 159.188C104.963 159.617 105.242 159.597 105.569 159.605C107.214 159.642 108.832 159.373 110.449 159.142C113.972 158.639 117.485 158.072 121.005 157.546C124.076 157.087 127.135 156.563 130.181 155.956C133.333 155.327 136.435 154.482 139.578 153.825C140.921 153.544 142.281 153.345 143.662 153.104C143.717 151.381 143.86 149.702 143.1 148.131Z" fill="#754C24"/>
<path d="M83.8878 110.557C83.3219 110.757 82.7544 110.984 82.1714 111.159C78.2362 112.338 74.2568 113.385 70.4574 114.977C67.0959 116.386 63.7853 117.896 60.8677 120.132C59.953 120.833 59.2401 121.677 59.1701 122.888C59.0976 124.144 59.2109 125.385 59.5205 126.612C60.171 129.189 60.7156 131.791 61.2156 134.4C61.8473 137.698 62.2861 141.03 63.0611 144.302C64.0858 148.627 65.3821 152.887 66.1984 157.263C66.433 158.521 66.663 159.78 66.9001 161.067C68.0773 160.465 68.9644 159.527 70.2378 158.931C70.0732 159.422 69.7694 159.559 69.5365 159.751C68.6556 160.474 67.7131 161.112 66.7513 161.722C66.5651 161.84 66.3876 161.932 66.5176 162.193C66.6305 162.419 66.6159 162.746 67.0064 162.742C68.6627 162.725 70.317 162.56 72.0075 162.755C71.7954 161.707 71.6012 160.755 71.41 159.802C70.8708 157.116 70.2578 154.445 69.8174 151.737C69.3265 148.72 68.7565 145.717 68.211 142.709C67.7131 139.962 67.2393 137.216 67.0564 134.422C66.9934 133.461 67.0855 132.512 67.0368 131.558C66.9268 129.396 66.5067 127.285 66.0338 125.179C65.5796 123.155 66.0909 122.121 67.9427 121.185C68.4689 120.918 69.0123 120.685 69.5548 120.452C74.501 118.332 79.6888 117.008 84.9145 115.816C85.8587 115.601 86.8184 115.451 87.858 115.254C86.3792 113.776 85.2199 112.145 83.8878 110.557Z" fill="#754C24"/>
<path d="M104.433 31.3728C103.963 31.2253 103.873 30.8494 103.753 30.5156C103.326 29.3364 103.383 28.148 103.691 26.9492C103.857 26.3041 103.682 26.1483 103.041 26.3012C101.863 26.5821 101.04 27.6559 100.846 29.146C100.813 29.396 100.92 29.7122 100.464 29.9068C99.771 28.6314 100.032 27.4054 100.674 26.207C100.185 26.0254 99.8785 26.2112 99.5931 26.375C98.7001 26.8879 98.138 27.6596 97.8634 28.6551C97.7846 28.9405 97.8184 29.3131 97.3905 29.4635C96.9742 29.1939 96.9558 28.7089 96.8 28.2972C96.6837 27.9905 96.7563 27.5138 96.375 27.4313C95.9725 27.3442 95.6904 27.7221 95.4091 27.983C95.3095 28.0751 95.2262 28.1863 95.1428 28.2943C94.1528 29.5752 94.1015 31.0136 94.4107 32.5245C94.4786 32.8558 94.8016 33.2654 94.4353 33.5329C94.114 33.7671 93.9219 33.2529 93.6198 33.1933C93.5861 33.1866 93.544 33.2237 93.459 33.2608C93.5577 33.7383 93.8403 34.1175 94.1632 34.4659C94.7891 35.1409 95.5266 35.6718 96.3387 36.1026C98.1422 37.0594 100.125 37.5435 102.022 38.2515C102.885 38.5732 102.952 38.6886 102.334 39.3791C101.319 40.5141 100.69 41.7821 100.936 43.361C100.979 43.6368 100.965 43.8939 100.716 44.1044C99.8723 44.8165 99.5639 45.8311 99.2268 46.8237C99.1497 47.0508 99.0143 47.3279 99.2768 47.5129C99.5247 47.6875 99.8035 47.6046 100.054 47.4662C100.517 47.2099 100.883 46.8333 101.273 46.4824C102.327 45.5353 103.927 45.7344 104.429 46.8549C105.068 48.2783 104.546 49.8668 103.186 50.6335C102.704 50.9048 102.182 51.0673 101.642 51.1706C101.383 51.2202 101.151 51.2948 101.082 51.5902C100.823 52.7032 101.005 53.7716 101.345 54.9562C102.57 53.6237 104.14 53.4107 105.653 53.1374C108.079 52.699 110.217 51.6952 112.024 50.0418C114.034 48.2029 114.981 45.9745 114.243 43.221C114.188 43.0168 114.128 42.818 114.378 42.6688C114.782 42.6568 114.851 43.2614 115.346 43.2193C115.02 42.2388 114.447 41.4796 113.667 40.8904C115.032 38.7615 114.4 36.5418 112.164 35.4843C111.319 35.0851 110.45 34.7367 109.604 34.3409C107.634 33.4191 106.411 31.8957 105.953 29.7623C105.898 29.5077 105.915 29.2056 105.601 29.0555C105.124 29.2197 105.06 29.6868 104.866 30.0589C104.656 30.4606 104.776 30.9686 104.433 31.3728Z" fill="#733E12"/>
<path d="M103.679 49.565C104.176 49.0529 104.288 48.4654 104.205 47.832C104.048 46.619 103.253 46.146 102.104 46.5744C101.583 46.769 101.157 47.1132 100.758 47.4932C100.491 47.7478 100.201 47.9687 99.8327 48.0516C99.0676 48.2241 98.618 47.797 98.7997 47.0386C99.0672 45.921 99.4731 44.8564 100.253 43.9851C100.466 43.7467 100.487 43.5267 100.436 43.2396C100.199 41.9262 100.524 40.7553 101.364 39.724C101.615 39.4169 101.872 39.1144 102.149 38.7814C99.5323 37.676 96.7029 37.2834 94.4699 35.3942C94.304 35.68 94.1953 35.8742 94.0798 36.0646C93.384 37.2147 92.8731 38.4681 92.1093 39.5811C91.7714 40.074 91.3434 40.3782 90.7317 40.489C89.8129 40.6553 88.92 40.9387 88.0366 41.2491C87.5045 41.4362 87.3399 41.6629 87.7157 42.1817C88.1182 42.7371 88.5299 43.2792 89.0075 43.7705C89.3558 44.1284 89.3966 44.4368 88.8729 44.6535C88.4891 44.8122 88.4908 45.0897 88.5624 45.441C88.6395 45.8177 88.8712 45.9706 89.2096 46.0435C89.975 46.2081 90.7396 46.3773 91.4893 46.5411C91.4959 46.9373 91.2318 47.0194 91.0222 47.139C90.3459 47.5249 89.6208 47.4832 88.8937 47.3524C88.1395 47.2165 87.7553 47.5195 87.902 48.2428C88.1007 49.2221 87.972 50.1509 87.6149 51.0559C87.4107 51.5735 87.599 51.8868 88.037 52.1202C88.4841 52.3585 88.9716 52.4848 89.4633 52.5823C90.6688 52.821 91.8864 53.0077 93.0831 53.2836C94.847 53.6898 96.3175 53.2277 97.5655 51.9443C97.7338 51.771 97.8888 51.4926 98.2409 51.6022C98.2272 51.6964 98.238 51.7743 98.2047 51.8205C98.0851 51.9864 97.9617 52.1522 97.8197 52.2985C96.6633 53.4886 95.2749 54.0182 93.6119 53.7786C92.9944 53.6894 92.3735 53.6265 91.6193 53.5352C92.2106 54.8811 92.2227 56.2179 92.5677 57.5146C93.4677 57.1513 94.3299 56.945 95.1999 56.7667C96.9183 56.4142 98.6359 56.0591 100.353 55.7016C100.634 55.6433 101.017 55.642 100.914 55.1982C100.619 53.9261 100.491 52.6498 100.779 51.3793C99.436 50.8872 99.436 50.8872 99.4681 50.3792C100.853 50.908 101.186 50.9234 102.467 50.4267C102.785 50.3034 103.289 50.2592 103.255 49.8113C103.222 49.3779 102.8 49.1646 102.401 49.0129C102.116 48.9045 101.821 48.9129 101.524 48.9079C101.367 48.9054 101.184 48.9704 101.031 48.8058C102.059 48.3499 102.69 48.5287 103.679 49.565Z" fill="#FFDCC5"/>
<path d="M65.3506 84.2563C71.4014 85.7264 77.0871 88.2169 83.1321 89.7512C83.5975 89.1541 84.2205 88.7832 84.9688 88.4845C85.5047 88.2703 86.1297 87.7669 86.1289 87.009C86.126 84.2067 86.3747 81.4307 86.9206 78.6614C86.6368 78.7555 86.5218 78.9926 86.3593 79.1735C85.428 80.2119 84.4121 81.1578 83.2758 81.9678C82.1916 82.7404 82.1653 82.7312 81.2961 81.7957C81.2703 81.7678 81.2149 81.767 81.169 81.7524C80.8598 81.862 80.9403 82.2987 80.5748 82.4224C80.1977 82.0916 79.826 82.1091 79.4564 82.532C79.2247 82.797 78.8601 82.7291 78.5472 82.7079C76.4804 82.5691 74.4578 82.1224 72.4148 81.8191C70.2934 81.504 68.1741 81.1715 66.0181 80.8411C66.0281 82.0107 65.6856 83.0696 65.3506 84.2563Z" fill="white"/>
<path d="M143.89 148.365C144.45 149.859 144.267 151.408 144.25 152.943C144.243 153.556 144.284 154.205 144.101 154.773C143.64 156.207 144.267 157.135 145.268 158.053C146.13 158.843 146.104 159.147 145.511 160.192C144.972 161.14 144.39 162.065 143.851 163.014C143.728 163.231 143.489 163.484 143.712 163.756C143.975 164.077 144.303 163.857 144.597 163.786C144.746 163.75 144.878 163.641 145.015 163.561C146.475 162.709 147.584 161.472 148.697 160.235C149.091 159.796 149.162 159.304 149.018 158.776C148.802 157.986 148.679 157.179 148.538 156.375C148.471 155.994 148.601 155.586 148.414 155.23C148.104 154.639 147.399 154.154 147.952 153.353C147.577 151.724 147.281 150.072 146.586 148.533C146.472 148.283 146.316 148.115 146.028 148.11C145.348 148.097 144.661 147.992 143.89 148.365Z" fill="#42210B"/>
<path d="M77.7334 164.645C77.6921 164.439 77.6667 164.306 77.6396 164.174C77.445 163.228 77.34 163.141 76.3971 163.143C73.8002 163.147 71.203 163.131 68.6066 163.166C67.6515 163.179 66.6702 163.139 65.846 163.826C65.5227 164.096 65.0718 164.176 64.6405 164.253C63.385 164.477 62.1208 164.619 60.8478 164.631C60.349 164.636 60.1482 164.839 60.1161 165.299C60.1007 165.52 60.0694 165.741 60.0415 165.997C60.5874 166.027 61.1074 166.055 61.6274 166.084C65.1693 166.283 68.7053 166.646 72.2618 166.428C72.6931 166.402 73.0035 166.319 73.1202 165.849C73.2114 165.481 73.451 165.365 73.8611 165.311C75.1574 165.143 76.4404 164.875 77.7334 164.645Z" fill="#42210B"/>
<path d="M51.723 84.3763C52.966 85.2838 54.254 86.061 55.784 86.2326C57.1212 86.3826 58.4671 86.3018 59.8043 86.1676C60.8593 86.0618 61.8623 85.9884 62.7045 86.8785C63.1991 87.4014 63.8941 87.7002 64.5929 88.0427C65.015 87.1477 65.3904 86.2581 65.4725 85.2697C65.4925 85.0267 65.4855 84.8271 65.1754 84.7559C63.627 84.3988 62.1878 83.7983 60.7835 83.0333C59.3272 82.2399 57.6371 82.0303 56.0699 81.4998C55.8736 81.4332 55.6361 81.3957 55.3878 81.544C55.7128 82.0253 56.2178 82.2553 56.6466 82.5749C56.7999 82.6891 57.0629 82.7462 56.9612 83.0224C56.8874 83.2229 56.6916 83.2395 56.5028 83.242C54.6373 83.27 52.7726 83.3241 50.9325 82.8962C50.5896 82.8166 50.2308 82.6441 49.8149 82.7508C50.0895 83.29 50.4496 83.5766 50.9854 83.6879C52.1409 83.9279 53.3156 84.025 54.4765 84.2154C54.9811 84.2979 55.5607 84.1971 55.9649 84.6484C54.5244 84.7996 53.136 84.4184 51.723 84.3763Z" fill="#FFDCC5"/>
<path d="M58.2959 76.7266C57.8867 77.7292 58.3867 78.3355 59.0793 78.8647C59.2055 78.9613 59.3247 79.0684 59.4576 79.1551C59.7918 79.373 59.9831 79.6285 59.8527 80.0643C59.7522 80.4006 59.9168 80.6752 60.1656 80.9131C60.3348 81.0748 60.5998 81.1744 60.6081 81.4706C59.8664 81.6098 59.1372 80.8714 59.2439 80.0843C59.2747 79.8572 59.3726 79.6547 59.136 79.4718C58.7876 79.2022 58.4559 78.9109 58.0567 78.5788C57.9509 79.6251 57.8538 80.5877 57.7588 81.5282C58.4313 81.729 59.0397 81.904 59.6435 82.0932C60.2173 82.2728 60.7606 82.692 61.3907 82.1853C61.5557 82.0523 61.8207 82.1919 62.0407 82.2686C63.0166 82.6086 63.9996 82.9282 65.0455 83.277C65.2213 82.399 65.5363 81.5952 65.4288 80.7094C64.4309 80.3956 63.4337 80.1897 62.4691 79.8581C61.7699 79.6176 61.3282 79.2443 61.0632 78.5317C60.6523 77.4258 59.451 76.7008 58.2959 76.7266Z" fill="#FFDCC5"/>
<path d="M103.363 124.893C103.266 123.307 103.623 121.851 103.447 120.343C101.845 120.58 100.261 120.424 98.6128 120.483C99.4649 122.714 101.115 124.004 103.363 124.893Z" fill="#754C24"/>
<path d="M57.2033 80.5152C55.2998 80.4085 53.446 80.3044 51.5459 80.1981C51.5221 80.9936 51.3225 81.684 51.1108 82.4449C52.7189 82.7312 54.3069 82.8354 56.0324 82.7774C55.6378 82.4233 55.3257 82.1716 55.0507 81.8849C54.8965 81.7245 54.7827 81.5111 54.9148 81.264C55.0323 81.0436 55.2436 81.0473 55.4478 81.0319C56.0482 80.9869 56.602 81.2365 57.1829 81.3307C57.2791 81.0678 57.2625 80.8244 57.2033 80.5152Z" fill="#493447"/>
<path d="M57.3247 80.1297C57.3806 79.761 57.4343 79.4285 57.4806 79.0951C57.5885 78.3138 57.7514 77.5342 57.7802 76.7495C57.8056 76.0508 57.1526 76.1003 56.6947 76.0012C56.173 75.8882 56.1951 76.2853 56.1463 76.6291C55.9917 77.7183 55.8205 78.8051 55.6538 79.9031C56.2034 80.0502 56.7368 80.1231 57.3247 80.1297Z" fill="#493447"/>
<path d="M111.318 118.267C110.583 118.5 109.959 118.697 109.336 118.896C109.186 118.944 109.027 118.983 109.026 119.195C109.018 120.391 109.019 121.584 109.845 122.633C110.457 121.217 110.994 119.838 111.318 118.267Z" fill="#754C24"/>
<path d="M74.0933 165.765C74.1253 166.08 74.2383 166.167 74.425 166.165C75.3775 166.155 76.3317 166.231 77.2768 166.003C77.866 165.86 77.8727 165.531 77.701 165.054C76.4755 165.272 75.2658 165.401 74.0933 165.765Z" fill="#42210B"/>
<path d="M146.836 148.302C147.634 150.028 147.883 151.737 148.328 153.394C148.285 152.124 148.197 150.866 148.034 149.606C147.939 148.881 147.523 148.629 146.836 148.302Z" fill="#42210B"/>
<path d="M53.1455 77.9272C53.3468 78.3456 53.6293 78.4431 53.9431 78.2276C54.1043 78.1168 54.1827 77.8489 53.9768 77.688C53.6372 77.4222 53.4114 77.6876 53.1455 77.9272Z" fill="white"/>
<path d="M50.7916 75.8204C50.9474 76.6905 51.1453 77.5343 50.3428 78.1172C50.0765 78.3106 49.7273 78.4589 49.3965 78.0481C49.8069 77.8047 50.327 77.6676 50.3436 77.053C50.357 76.5605 50.1995 76.12 50.0524 75.6662C49.9232 75.2687 49.6065 74.9129 49.7382 74.4437C50.0153 74.2545 50.2119 74.3974 50.4011 74.5778C50.5657 74.7349 50.7178 74.9079 50.8957 75.0479C51.5158 75.5337 51.9796 75.4004 52.2512 74.6724C52.5046 73.9936 52.5379 73.294 52.4117 72.5898C52.3654 72.3323 52.2887 72.1006 52.5721 71.9331C52.845 71.9706 52.8279 72.1919 52.8854 72.3861C53.0484 72.9336 53.288 73.4515 53.6222 73.9153C54.0213 74.4695 54.248 74.4778 54.7389 73.9791C54.8426 73.8736 54.9339 73.7924 55.1593 73.8624C55.2943 74.3974 55.201 74.9583 55.1764 75.5471C54.6043 75.5233 54.9018 75.0033 54.578 74.8137C53.9238 75.0937 53.3946 74.7941 52.9692 74.0753C52.7813 74.6808 52.7488 75.2341 52.3667 75.6408C51.9241 76.1117 51.3883 75.9904 50.7916 75.8204Z" fill="#42210B"/>
<path d="M97.8823 106.523C99.8991 105.644 101.915 104.765 104.026 103.845C103.788 104.438 98.8507 106.6 97.8823 106.523Z" fill="#42210B"/>
<path d="M62.4648 124.656C62.4873 124.441 62.4823 124.149 62.7399 124.193C63.1482 124.263 62.997 124.697 63.0995 124.965C63.1686 125.146 63.0528 125.368 62.8424 125.334C62.464 125.272 62.5336 124.905 62.4648 124.656Z" fill="#42210B"/>
<path d="M61.544 126.552C61.8911 126.739 61.9965 127.043 61.9561 127.378C61.9411 127.504 61.7228 127.554 61.6261 127.426C61.4344 127.173 61.1898 126.899 61.544 126.552Z" fill="#42210B"/>
<path d="M97.4676 40.184C96.495 39.4302 95.5395 38.7014 94.5995 37.9535C94.3578 37.761 94.0528 37.5297 94.2724 37.158C94.4899 36.7897 94.8445 36.7209 95.2237 36.8993C96.3021 37.4064 97.2017 38.1043 97.6942 39.2373C97.8459 39.5861 97.8792 39.8907 97.4676 40.184Z" fill="#42210B"/>
<path d="M94.7444 39.8087C94.7207 40.2962 94.0485 40.9875 93.6306 40.9421C93.2827 40.9042 93.1935 40.6554 93.2039 40.3554C93.2218 39.847 93.8081 39.2549 94.2656 39.2807C94.5932 39.2991 94.7648 39.4699 94.7444 39.8087Z" fill="#42210B"/>
<path d="M89.147 42.8938C89.712 43.0592 89.8766 43.5768 90.3108 43.713C90.6279 43.6601 90.485 43.2617 90.73 43.1546C91.0421 43.4197 91.0713 43.6301 90.82 43.9464C90.6396 44.1739 90.4296 44.3297 90.1245 44.138C89.9537 44.0309 89.3332 43.2822 89.147 42.8938Z" fill="#42210B"/>
<path d="M93.3027 42.4001C94.0507 41.8767 94.4811 42.3497 95.0345 42.5847C94.7245 43.0055 94.3511 43.0385 93.8944 43.0022C93.9078 42.6488 93.8711 42.3192 93.3027 42.4001Z" fill="#FFB8B8"/>
<path d="M95.7941 43.2054C95.3857 43.7263 95.0374 43.9501 94.4336 43.7734C94.7428 43.2254 95.1207 43.0717 95.7941 43.2054Z" fill="#FFB8B8"/>
<path d="M90.6566 46.8086C90.054 46.6586 89.6286 46.5361 89.1961 46.4494C88.6044 46.3311 88.1485 46.1398 88.0176 45.4302C87.9001 44.7948 88.1764 44.4452 88.7127 44.1543C88.1427 43.5734 87.6285 43.0301 87.2614 42.3709C86.8551 41.6408 86.9543 41.3091 87.7085 40.9783C88.5677 40.6016 89.4631 40.3099 90.3807 40.1457C91.1566 40.007 91.6466 39.584 92.0154 38.9423C92.6742 37.796 93.3267 36.6464 94.0022 35.51C94.1651 35.2363 94.1118 35.0554 93.9138 34.8496C93.6117 34.5358 93.3455 34.19 93.1892 33.7799C93.0546 33.4266 92.8108 33.0478 93.115 32.687C93.4055 32.3428 93.6851 32.8232 94.0434 32.7536C93.9513 32.0848 93.8005 31.4206 93.8405 30.7381C93.918 29.4222 94.3926 28.2934 95.4056 27.4371C96.2777 26.6995 96.7828 26.8708 97.1153 27.9538C97.1803 28.1659 97.1824 28.4092 97.3911 28.6026C97.644 28.4746 97.6224 28.1929 97.7149 27.9863C98.1853 26.935 98.9137 26.1637 100.043 25.8332C100.323 25.7511 100.65 25.6665 100.872 25.937C101.062 26.1691 100.868 26.4116 100.784 26.642C100.588 27.1821 100.334 27.7142 100.499 28.3471C100.785 28.2046 100.767 27.9417 100.865 27.7504C101.336 26.8325 102.011 26.1624 103.048 25.9374C103.869 25.7591 104.23 26.1145 104.053 26.935C103.864 27.8083 103.7 28.6792 103.907 29.5709C103.979 29.8768 104.012 30.1993 104.267 30.5448C104.454 30.0935 104.594 29.6968 104.78 29.3234C104.956 28.9701 105.203 28.6217 105.646 28.6513C106.116 28.683 106.16 29.1238 106.227 29.4714C106.667 31.7707 108.025 33.3041 110.14 34.2196C110.893 34.5454 111.649 34.8671 112.395 35.2088C114.65 36.243 115.072 38.1223 114.385 40.2195C114.238 40.6704 114.283 40.8854 114.623 41.1921C115.304 41.8054 115.636 42.6388 115.862 43.5109C115.913 43.708 115.951 43.9172 115.773 44.0743C115.48 44.2481 115.343 43.8543 115.033 43.896C115.121 44.721 115.065 45.5286 114.901 46.3311C114.681 47.4012 114.259 48.3641 113.54 49.2C111.516 51.5506 109 53.0319 105.94 53.5886C105.111 53.7395 104.288 53.932 103.472 54.1416C102.777 54.3195 102.157 54.6412 101.699 55.2933C102.139 55.6492 102.263 56.1142 102.195 56.6346C102.129 57.1355 102.564 57.3551 102.804 57.6501C103.319 58.2822 103.56 58.9885 103.615 59.7736C103.632 60.0186 103.706 60.2103 103.867 60.3836C106.833 63.5734 108.738 67.3861 110.272 71.4026C111.948 75.7916 113.106 80.3106 113.491 85.0096C113.64 86.8231 113.924 88.6299 113.88 90.4533C113.793 94.0198 113.405 97.5658 113.119 101.119C112.883 104.044 112.303 106.938 112.375 109.889C112.396 110.759 112.57 111.605 112.671 112.461C112.85 113.983 112.832 115.5 112.676 117.021C112.647 117.302 112.647 117.606 112.364 117.73C111.894 117.936 111.814 118.332 111.744 118.763C111.524 120.12 111.025 121.388 110.456 122.629C110.281 123.011 110.209 123.392 110.201 123.811C110.124 127.841 109.809 131.852 109.269 135.848C108.94 138.282 108.776 140.733 108.536 143.177C108.359 144.974 108.408 146.773 108.322 148.57C108.264 149.794 108.387 151.026 108.434 152.254C108.438 152.362 108.466 152.557 108.503 152.562C109.106 152.643 109.403 153.328 110.184 153.19C117.136 151.962 124.099 150.794 131.061 149.619C134.998 148.955 138.926 148.205 142.885 147.724C144.113 147.575 145.426 147.253 146.717 147.671C147.676 147.982 148.34 148.453 148.553 149.53C148.824 150.903 148.913 152.277 148.92 153.667C148.922 153.992 148.758 154.158 148.502 154.333C148.908 154.78 149.058 155.309 149.136 155.886C149.27 156.876 149.43 157.864 149.629 158.843C149.755 159.462 149.565 159.964 149.22 160.437C148.092 161.988 146.685 163.233 145.043 164.216C144.869 164.319 144.673 164.395 144.478 164.454C144.061 164.579 143.663 164.55 143.343 164.213C143.028 163.882 143.087 163.488 143.23 163.124C143.556 162.295 144.021 161.536 144.494 160.785C144.833 160.247 145.171 159.71 145.542 159.124C144.856 158.579 144.246 158.008 143.697 157.176C143.564 158.29 142.988 158.604 141.991 158.679C139.98 158.832 137.978 159.127 135.978 159.425C131.976 160.021 128.041 160.925 124.107 161.847C119.595 162.904 115.108 164.092 110.534 164.854C107.432 165.371 104.308 165.632 101.171 164.971C99.5996 164.64 98.6558 163.731 98.1491 162.252C97.3382 159.886 96.7498 157.459 96.1194 155.043C94.9072 150.399 93.9863 145.695 93.3959 140.933C93.0096 137.818 92.73 134.692 92.5237 131.559C92.33 128.61 92.0612 125.667 91.8225 122.686C85.3937 124.586 78.7896 125.697 72.3513 127.412C72.2505 127.711 72.4846 127.81 72.6001 127.96C72.9109 128.361 72.9888 128.81 72.7284 129.231C72.4842 129.626 72.5376 129.989 72.6276 130.397C73.4297 134.037 74.0356 137.709 74.511 141.408C74.9685 144.967 75.5057 148.518 76.0457 152.066C76.542 155.325 77.1687 158.567 77.5683 161.838C77.7033 162.943 78.2271 163.897 78.3525 164.979C78.4637 165.939 78.3742 166.055 77.4804 166.304C76.4095 166.603 75.3115 166.494 74.2343 166.648C73.8422 166.704 73.7222 166.388 73.5301 166.004C73.4801 166.777 72.9838 166.786 72.5121 166.818C69.917 166.992 67.3256 166.929 64.7338 166.729C63.1683 166.607 61.5994 166.517 60.0306 166.448C59.5239 166.425 59.4205 166.179 59.4393 165.749C59.4826 164.761 59.8068 164.339 60.7494 164.214C62.1203 164.031 63.5125 164.011 64.8663 163.695C65.3763 163.576 65.8534 163.381 66.2972 163.018C65.9309 162.396 65.7672 161.849 66.2797 161.153C66.4997 160.854 66.2118 160.154 66.1051 159.646C65.4384 156.472 64.8867 153.267 64.0412 150.141C63.3608 147.626 62.7474 145.098 62.1924 142.558C61.559 139.658 61.1265 136.716 60.5169 133.81C59.9718 131.214 59.2651 128.651 58.7097 126.056C58.4584 124.882 58.3809 123.663 58.6338 122.463C58.8755 121.316 59.5756 120.458 60.451 119.731C62.2686 118.223 64.3217 117.101 66.4385 116.08C71.1637 113.802 76.1382 112.235 81.1897 110.884C82.0198 110.662 82.8403 110.405 83.6682 110.163C83.6791 110.068 83.7003 110.002 83.692 109.94C83.537 108.782 83.6903 108.571 84.8912 108.576C85.6271 108.58 86.0879 108.478 86.5659 107.727C86.9801 107.076 87.4255 106.5 87.5585 105.726C87.573 105.642 87.6268 105.542 87.6943 105.493C88.6548 104.79 88.3352 103.875 88.1106 102.983C87.8847 102.085 87.6368 101.192 87.3868 100.253C84.7783 100.061 82.4794 98.9121 80.2051 97.7362C75.7857 95.4511 71.185 93.5606 66.6881 91.4454C65.7438 91.0012 64.8134 90.5275 63.8821 90.0566C63.3391 89.782 63.0458 89.3857 63.2333 88.7299C63.3904 88.1815 63.2316 87.7323 62.7366 87.396C61.9453 86.8585 61.2194 86.4577 60.1235 86.6006C58.4276 86.8214 56.68 87.0123 54.969 86.5364C53.0702 86.0085 51.4297 85.0038 49.9446 83.7442C49.6054 83.4566 49.1187 83.0537 49.3704 82.5378C49.6016 82.0632 50.1546 82.3741 50.6075 82.3182C50.7184 81.7024 50.888 81.0669 50.9325 80.4223C50.9755 79.8018 51.2709 79.6443 51.8193 79.6943C52.313 79.7393 52.8056 79.8981 53.3619 79.7214C53.3989 79.4206 53.4398 79.0926 53.4844 78.7297C53.0468 78.5443 52.7531 78.2409 52.8652 77.7371C52.9539 77.3379 53.3052 77.2554 53.6523 77.2088C53.9644 77.1671 54.2294 77.2146 54.3977 77.54C54.5828 77.898 54.5511 78.2901 54.2619 78.4693C53.7335 78.7968 53.8106 79.2397 53.8431 79.7381C54.2482 79.9173 54.6853 79.7806 55.1424 79.8793C55.4307 78.8239 55.3978 77.7471 55.6049 76.7087C55.6491 76.4862 55.6932 76.2637 55.7353 76.0408C55.8341 75.5166 56.1728 75.3862 56.6454 75.4957C57.1529 75.6137 57.6817 75.6908 58.0417 76.1333C58.223 76.3566 58.5063 76.31 58.7359 76.3587C60.1189 76.6529 61.1744 77.3238 61.6515 78.7243C61.7644 79.0564 62.024 79.1939 62.3457 79.3114C64.28 80.0181 66.3014 80.341 68.3215 80.6286C70.8175 80.984 73.3039 81.3903 75.7915 81.7957C76.6874 81.9415 77.5912 82.0386 78.4925 82.1474C78.8125 82.1861 79.1013 82.1561 79.3646 81.8928C79.5859 81.6711 79.9022 81.5211 80.2389 81.6599C80.423 81.7357 80.5255 81.7028 80.6426 81.5532C81.0464 81.0369 81.4456 81.1973 81.7435 81.6399C82.0473 82.0911 82.3094 82.012 82.6861 81.7436C84.2933 80.5994 85.6113 79.1397 87.0309 77.7917C87.1205 77.7067 87.1697 77.5584 87.1955 77.4309C87.8622 74.1782 88.8589 71.0271 90.2594 68.0199C90.6682 67.1419 90.7095 66.2331 90.8978 65.3326C90.9716 64.9805 90.9987 64.6055 91.3012 64.348C91.4516 64.2197 91.3962 64.0747 91.3774 63.9126C91.2424 62.7533 91.3049 61.6345 92.1283 60.6978C92.3087 60.4928 92.2629 60.279 92.1737 60.059C92.0191 59.679 91.8695 59.2965 91.7058 58.9202C91.542 58.5439 91.5324 58.2093 91.9225 57.966C92.1579 57.8189 92.1804 57.6026 92.1208 57.3672C91.8412 56.2629 91.725 55.1241 91.3783 54.032C91.2291 53.5611 91.0116 53.3023 90.5032 53.2332C89.7369 53.1294 88.9677 53.0082 88.2393 52.7244C87.1909 52.3156 86.9101 51.7023 87.2589 50.6397C87.4889 49.938 87.563 49.225 87.443 48.4829C87.2476 47.277 87.7718 46.7795 88.9606 46.9524C89.4632 47.0249 89.9803 47.0845 90.6566 46.8086ZM98.3474 112.466C99.0333 112.522 99.715 112.557 100.333 112.858C100.883 113.125 100.931 113.613 100.449 113.989C100.239 114.153 99.9854 114.279 99.7325 114.368C98.3908 114.841 96.9973 114.873 95.6243 114.639C93.3538 114.252 91.3437 113.17 89.3523 112.074C88.2185 111.45 87.2659 110.613 86.5426 109.529C86.4309 109.362 86.348 109.125 86.1167 109.13C85.4646 109.144 84.795 109.001 84.1628 109.292C84.1345 109.764 84.3716 110.126 84.5804 110.5C85.2121 111.633 86.2025 112.462 87.0409 113.419C89.0531 115.717 91.4187 117.486 94.2838 118.635C96.9228 119.695 99.6246 120.16 102.429 119.877C105.658 119.551 108.699 118.435 111.765 117.446C111.977 117.377 112.093 117.263 112.122 117.014C112.27 115.743 112.305 114.471 112.152 113.199C112.026 112.141 111.765 111.087 111.754 110.029C111.721 107.046 112.094 104.083 112.414 101.123C112.865 96.9437 113.221 92.7605 113.249 88.5553C113.259 86.9389 113.088 85.328 112.888 83.7275C112.462 80.3181 111.543 77.0192 110.463 73.7694C108.913 69.1033 106.92 64.6601 103.623 60.9224C103.254 60.5044 103.045 60.0869 103.07 59.5181C103.095 58.9389 102.949 58.3868 102.476 57.9851C101.966 57.5518 101.616 57.0642 101.729 56.3363C101.786 55.9713 101.616 55.7892 101.2 55.8846C98.6679 56.4663 96.1331 57.0347 93.5992 57.6084C93.1684 57.7059 92.8029 57.9247 92.4508 58.1901C92.1904 58.3864 92.0875 58.576 92.2479 58.8793C92.7213 59.7736 93.0259 60.6765 92.3862 61.6316C92.3283 61.7178 92.3454 61.8533 92.3233 61.9649C92.1062 63.0588 92.3112 64.2455 91.6062 65.2322C91.5941 65.2489 91.5929 65.2764 91.5933 65.2989C91.6187 66.266 91.1895 67.1098 90.8232 67.9574C89.7136 70.5255 88.7706 73.1573 88.0885 75.8629C87.3164 78.9276 86.8384 82.0536 86.6797 85.2188C86.658 85.6518 86.6767 86.0864 86.6767 86.5206C87.5672 85.5901 88.261 84.6 89.0473 83.6896C91.0274 81.3974 92.4471 78.8272 93.3067 75.9108C94.0218 73.4844 94.986 71.1442 96.4694 69.0612C97.4965 67.6186 98.7654 66.464 100.507 65.9652C101.129 65.7873 101.792 65.7285 102.435 66.0831C102.268 66.3406 102.092 66.2881 101.95 66.2748C101.011 66.1869 100.217 66.5544 99.4579 67.0427C98.4833 67.6699 97.7091 68.4966 97.0707 69.4546C95.8485 71.2884 95.0485 73.3185 94.3189 75.3828C93.6526 77.2675 93.2459 79.2839 92.085 80.9382C90.1603 83.6808 88.0114 86.2551 85.71 88.6957C85.5392 88.877 85.3658 89.0816 85.1054 89.1207C84.4229 89.2232 83.9553 89.6291 83.554 90.1899C84.3262 91.0963 85.1504 91.9871 85.5762 93.1447C85.6508 93.3476 85.8442 93.6026 85.5725 93.7514C85.2479 93.9293 85.1475 93.5939 85.0354 93.3901C84.54 92.4888 83.9549 91.6546 83.2886 90.8687C82.7148 90.192 82.0915 89.7162 81.1347 89.7979C80.8122 89.8254 80.4634 89.6924 80.1434 89.5832C77.3733 88.6369 74.6119 87.6652 71.8379 86.731C69.9341 86.0897 68.0219 85.4705 66.0372 85.0334C65.7363 86.7643 65.2442 88.3678 64.0054 89.6774C64.18 89.7716 64.3321 89.8649 64.4933 89.9391C66.9035 91.0529 69.3078 92.1792 71.7271 93.2726C75.5344 94.9932 79.4167 96.5466 83.119 98.4992C84.0391 98.9846 85.0304 99.3413 86.0517 99.5772C86.4451 99.668 86.9126 99.8568 87.2422 99.7297C88.6798 99.1767 90.0794 98.5588 91.2549 97.4858C92.3617 96.4757 93.1863 95.2823 94.0105 94.0544C96.6757 90.0833 99.22 86.0397 101.581 81.8803C102.165 80.8515 102.754 79.8248 103.376 78.8197C103.766 78.1917 104.225 77.6088 104.893 77.2396C105.137 77.56 104.934 77.7167 104.798 77.8942C104.673 78.058 104.461 78.1838 104.503 78.4805C104.98 78.2576 105.274 77.8217 105.781 77.7284C105.411 78.3963 104.819 78.8555 104.204 79.2318C103.808 79.4747 103.567 79.7668 103.356 80.1456C100.339 85.5576 97.0803 90.8192 93.553 95.914C93.2142 96.4032 92.8042 96.8224 92.3862 97.2454C91.1824 98.4629 89.8207 99.4172 88.1314 99.928C88.3393 101.285 88.4464 102.593 88.7856 103.865C88.9502 104.484 88.8939 105.02 88.3564 105.465C88.0189 105.745 87.7801 106.109 87.9435 106.647C88.8869 106.642 89.8886 106.463 90.7666 106.842C91.7408 107.263 92.72 107.169 93.7092 107.196C94.1876 107.209 94.6668 107.189 95.1456 107.201C95.2789 107.204 95.4773 107.102 95.5527 107.47C93.7797 107.65 92.0175 107.824 90.289 107.366C88.4673 106.883 87.3697 107.31 86.5451 109.013C87.2922 110.126 88.2485 111.015 89.4232 111.671C90.9116 112.503 92.4375 113.258 94.0447 113.829C95.8602 114.475 97.707 114.684 99.5771 114.041C99.9167 113.924 100.277 113.823 100.423 113.389C100.015 113.003 99.5025 112.951 98.9816 112.935C97.4328 112.887 95.8839 112.845 94.3351 112.798C94.1209 112.792 93.8559 112.845 93.8617 112.489C94.0622 112.3 94.3001 112.388 94.5164 112.391C95.4281 112.408 96.3315 112.374 97.2299 112.183C100.649 111.46 103.758 109.994 106.75 108.243C106.947 108.128 107.128 107.864 107.512 108.289C104.644 110.162 101.616 111.558 98.3474 112.466ZM91.6866 119.162C92.0208 119.25 91.9791 119.453 92.0037 119.629C92.1554 120.734 92.2158 121.846 92.3062 122.956C92.535 125.765 92.8508 128.568 93.075 131.377C93.3121 134.348 93.5909 137.315 93.9497 140.272C94.5397 145.132 95.5164 149.921 96.6811 154.673C97.2924 157.166 97.9378 159.649 98.6783 162.109C99.1016 163.516 99.9784 164.153 101.373 164.388C104.384 164.894 107.371 164.641 110.341 164.163C114.558 163.484 118.699 162.425 122.855 161.453C128.962 160.025 135.112 158.875 141.35 158.207C142.983 158.032 142.985 158.019 143.302 156.371C143.485 155.418 143.697 154.465 143.538 153.444C142.321 153.654 141.134 153.81 139.968 154.069C135.99 154.95 132.062 156.049 128.053 156.796C124.506 157.456 120.947 158.021 117.373 158.506C115.036 158.823 112.71 159.214 110.374 159.537C108.822 159.751 107.265 159.958 105.695 159.982C105.158 159.99 104.519 160.067 104.399 159.247C104.383 159.136 104.168 158.973 104.043 158.972C103.252 158.962 103.328 158.531 103.459 157.966C103.56 157.531 103.611 156.968 102.896 157.001C102.215 157.033 101.974 156.659 101.845 156.09C101.531 154.706 101.432 153.305 101.501 151.892C101.558 150.71 101.642 149.53 101.711 148.349C101.812 146.645 101.904 144.941 102.012 143.237C102.18 140.581 102.354 137.925 102.535 135.27C102.652 133.545 102.784 131.822 102.909 130.097C103.026 128.466 103.142 126.835 103.256 125.226C100.295 123.846 100.098 123.667 98.2295 120.57C98.0962 120.349 97.9245 120.355 97.727 120.31C94.3826 119.54 91.2412 118.34 88.6689 115.962C88.4456 115.755 88.2489 115.721 87.9414 115.77C85.1804 116.217 82.4727 116.903 79.7697 117.6C75.809 118.622 71.8929 119.791 68.1823 121.548C66.466 122.36 66.1093 123.199 66.4976 125.068C66.8572 126.801 67.1989 128.541 67.3568 130.305C67.5735 132.726 67.5223 135.161 67.8823 137.582C68.4461 141.375 69.1782 145.139 69.7837 148.924C70.3354 152.372 71.0187 155.797 71.7421 159.213C71.9892 160.38 72.1967 161.555 72.4151 162.687C74.0243 162.687 75.5382 162.687 77.0858 162.687C76.8949 161.671 76.6832 160.719 76.5411 159.756C76.1061 156.812 75.6961 153.864 75.2794 150.917C74.7869 147.433 74.2864 143.95 73.8106 140.464C73.3314 136.954 72.7509 133.465 71.8629 130.032C71.7788 129.708 71.6784 129.407 71.97 129.154C72.4467 128.74 72.3192 128.382 71.8988 128.028C71.6146 127.789 71.5688 127.51 71.7629 127.18C72.1746 126.482 72.3355 125.705 72.4301 124.911C72.4546 124.704 72.4467 124.49 72.8255 124.481C72.9855 125.232 72.7438 125.97 72.6517 126.755C72.833 126.735 72.9676 126.739 73.0909 126.703C76.5136 125.716 79.9988 124.979 83.4578 124.137C85.9496 123.53 88.4514 122.964 90.9403 122.346C91.2328 122.273 91.7575 122.366 91.7329 121.798C91.7116 121.299 91.7675 120.798 91.6533 120.3C91.5704 119.934 91.5045 119.556 91.6866 119.162ZM143.1 148.131C143.026 148.123 142.98 148.107 142.937 148.114C138.311 148.926 133.686 149.741 129.06 150.552C124.7 151.317 120.34 152.083 115.978 152.842C114.032 153.18 112.083 153.512 110.132 153.821C109.687 153.892 109.186 154.021 108.945 153.384C108.86 153.161 108.588 153.025 108.314 153.209C108.143 153.323 107.974 153.287 107.792 153.247C106.927 153.056 106.47 153.263 105.887 154.143C106.752 153.928 107.495 153.438 108.376 153.475C108.338 153.747 105.672 157.472 105.415 157.554C105.503 156.82 105.882 156.262 106.23 155.706C106.593 155.127 107.013 154.584 107.473 153.933C106.624 154.188 105.938 154.519 105.276 154.91C105.152 154.983 105.012 155.12 104.842 154.98C104.716 154.875 104.731 154.763 104.791 154.618C105.246 153.53 106.663 152.605 107.843 152.637C107.971 151.406 107.649 150.181 107.764 148.956C107.951 146.958 107.761 144.949 107.997 142.951C108.207 141.17 108.332 139.377 108.519 137.593C108.698 135.876 108.929 134.164 109.1 132.447C109.294 130.502 109.506 128.556 109.601 126.605C109.677 125.028 110.057 123.416 109.017 121.924C108.458 121.122 108.728 120.068 108.661 119.065C107.508 119.38 106.399 119.693 105.283 119.985C103.912 120.344 103.957 120.339 103.882 121.787C103.724 124.831 103.511 127.872 103.325 130.915C103.231 132.437 103.148 133.959 103.054 135.48C102.835 139.022 102.619 142.564 102.388 146.105C102.287 147.648 102.114 149.187 102.038 150.731C101.953 152.478 101.843 154.233 102.251 155.963C102.318 156.249 102.353 156.52 102.747 156.591C103.894 156.798 103.939 156.876 103.911 158C103.906 158.176 103.835 158.361 103.959 158.552C104.318 158.656 104.726 158.785 104.841 159.188C104.963 159.617 105.242 159.597 105.57 159.605C107.215 159.642 108.833 159.373 110.449 159.142C113.972 158.639 117.486 158.072 121.005 157.546C124.076 157.087 127.135 156.563 130.181 155.956C133.333 155.327 136.435 154.482 139.579 153.825C140.921 153.544 142.281 153.345 143.662 153.104C143.718 151.381 143.861 149.702 143.1 148.131ZM83.8878 110.557C83.3219 110.757 82.7544 110.985 82.1715 111.159C78.2362 112.338 74.2568 113.385 70.4574 114.977C67.096 116.386 63.7854 117.896 60.8677 120.132C59.9531 120.833 59.2401 121.677 59.1701 122.888C59.0976 124.144 59.2109 125.385 59.5205 126.612C60.171 129.189 60.7156 131.791 61.2156 134.4C61.8474 137.698 62.2861 141.03 63.0612 144.302C64.0858 148.627 65.3821 152.887 66.1984 157.263C66.433 158.521 66.6631 159.78 66.9001 161.067C68.0773 160.465 68.9644 159.527 70.2379 158.931C70.0733 159.422 69.7695 159.559 69.5366 159.751C68.6557 160.475 67.7131 161.112 66.7514 161.722C66.5651 161.84 66.3876 161.932 66.5176 162.193C66.6306 162.419 66.616 162.746 67.0064 162.742C68.6628 162.725 70.317 162.56 72.0075 162.755C71.7954 161.707 71.6013 160.755 71.41 159.802C70.8708 157.116 70.2579 154.445 69.8174 151.737C69.3265 148.721 68.7565 145.717 68.2111 142.709C67.7131 139.962 67.2393 137.216 67.0564 134.422C66.9935 133.461 67.0856 132.512 67.0368 131.558C66.9268 129.396 66.5068 127.285 66.0338 125.179C65.5797 123.155 66.0909 122.121 67.9427 121.185C68.469 120.918 69.0124 120.685 69.5549 120.452C74.501 118.332 79.6888 117.008 84.9146 115.816C85.8588 115.601 86.8184 115.451 87.8581 115.254C86.3792 113.776 85.22 112.145 83.8878 110.557ZM104.433 31.3727C103.963 31.2252 103.873 30.8494 103.752 30.5156C103.326 29.3363 103.383 28.1479 103.691 26.9491C103.857 26.3041 103.681 26.1482 103.041 26.3012C101.863 26.582 101.04 27.6558 100.845 29.1459C100.813 29.3959 100.92 29.7122 100.463 29.9068C99.7708 28.6313 100.032 27.4054 100.673 26.207C100.185 26.0253 99.8783 26.2112 99.5929 26.3749C98.6999 26.8879 98.1378 27.6596 97.8632 28.6551C97.7845 28.9405 97.8182 29.313 97.3903 29.4634C96.974 29.1938 96.9557 28.7088 96.7998 28.2971C96.6836 27.9904 96.7561 27.5137 96.3748 27.4312C95.9723 27.3441 95.6902 27.7221 95.4089 27.9829C95.3093 28.075 95.226 28.1863 95.1427 28.2942C94.1526 29.5751 94.1013 31.0135 94.4105 32.5245C94.4785 32.8557 94.8014 33.2653 94.4351 33.5328C94.1138 33.767 93.9217 33.2528 93.6196 33.1932C93.5859 33.1866 93.5438 33.2237 93.4588 33.2607C93.5576 33.7383 93.8401 34.1175 94.163 34.4658C94.7889 35.1409 95.5264 35.6717 96.3386 36.1026C98.142 37.0593 100.125 37.5435 102.022 38.2515C102.884 38.5731 102.951 38.6886 102.334 39.379C101.319 40.5141 100.69 41.7821 100.936 43.3609C100.979 43.6368 100.965 43.8939 100.716 44.1043C99.8721 44.8164 99.5637 45.8311 99.2266 46.8236C99.1496 47.0507 99.0141 47.3278 99.2766 47.5128C99.5246 47.6874 99.8033 47.6045 100.053 47.4662C100.517 47.2099 100.883 46.8332 101.273 46.4824C102.326 45.5352 103.927 45.7344 104.429 46.8549C105.067 48.2783 104.546 49.8667 103.186 50.6334C102.704 50.9047 102.182 51.0672 101.642 51.1706C101.383 51.2201 101.151 51.2947 101.082 51.5902C100.823 52.7031 101.005 53.7715 101.345 54.9562C102.57 53.6236 104.139 53.4107 105.653 53.1373C108.079 52.699 110.217 51.6952 112.024 50.0417C114.033 48.2029 114.981 45.9744 114.243 43.2209C114.188 43.0167 114.128 42.818 114.378 42.6688C114.782 42.6567 114.851 43.2613 115.346 43.2193C115.02 42.2388 114.447 41.4796 113.667 40.8904C115.032 38.7615 114.4 36.5418 112.164 35.4842C111.319 35.085 110.45 34.7367 109.604 34.3408C107.634 33.4191 106.411 31.8957 105.952 29.7622C105.898 29.5076 105.915 29.2055 105.601 29.0555C105.124 29.2197 105.06 29.6868 104.866 30.0589C104.656 30.4606 104.776 30.9685 104.433 31.3727ZM103.679 49.565C104.176 49.0529 104.288 48.4654 104.205 47.832C104.047 46.619 103.253 46.1461 102.104 46.5745C101.583 46.769 101.157 47.1132 100.758 47.4933C100.49 47.7479 100.2 47.9687 99.8325 48.0516C99.0675 48.2241 98.6179 47.797 98.7995 47.0386C99.0671 45.9211 99.4729 44.8564 100.253 43.9851C100.466 43.7468 100.487 43.5268 100.435 43.2397C100.198 41.9263 100.524 40.7554 101.364 39.724C101.615 39.4169 101.871 39.1144 102.148 38.7815C99.5321 37.676 96.7027 37.2835 94.4697 35.3942C94.3039 35.6801 94.1951 35.8742 94.0797 36.0647C93.3838 37.2147 92.8729 38.4681 92.1091 39.5811C91.7712 40.0741 91.3433 40.3782 90.7316 40.4891C89.8128 40.6553 88.9198 40.9387 88.0364 41.2491C87.5043 41.4362 87.3397 41.6629 87.7155 42.1817C88.1181 42.7371 88.5298 43.2793 89.0073 43.7705C89.3556 44.1285 89.3965 44.4368 88.8727 44.6535C88.4889 44.8123 88.4906 45.0898 88.5623 45.441C88.6394 45.8177 88.871 45.9707 89.2094 46.0436C89.9749 46.2082 90.7395 46.3774 91.4891 46.5411C91.4958 46.9374 91.2316 47.0195 91.022 47.1391C90.3457 47.5249 89.6207 47.4833 88.8935 47.3524C88.1393 47.2166 87.7551 47.5195 87.9018 48.2429C88.1006 49.2221 87.9718 50.1509 87.6147 51.056C87.4105 51.5735 87.5989 51.8869 88.0368 52.1202C88.4839 52.3585 88.9715 52.4848 89.4631 52.5823C90.6686 52.8211 91.8862 53.0077 93.083 53.2836C94.8468 53.6899 96.3173 53.2278 97.5653 51.9444C97.7336 51.771 97.8886 51.4927 98.2407 51.6022C98.227 51.6964 98.2378 51.7743 98.2045 51.8206C98.0849 51.9864 97.9616 52.1523 97.8195 52.2985C96.6632 53.4886 95.2747 54.0182 93.6117 53.7786C92.9942 53.6895 92.3733 53.6265 91.6191 53.5353C92.2104 54.8812 92.2225 56.2179 92.5675 57.5147C93.4676 57.1513 94.3297 56.9451 95.1997 56.7667C96.9182 56.4142 98.6358 56.0592 100.353 55.7017C100.634 55.6433 101.017 55.6421 100.914 55.1983C100.619 53.9261 100.491 52.6498 100.779 51.3793C99.4358 50.8872 99.4358 50.8872 99.4679 50.3793C100.853 50.908 101.186 50.9235 102.466 50.4268C102.785 50.3034 103.289 50.2593 103.255 49.8113C103.222 49.378 102.8 49.1646 102.401 49.0129C102.116 48.9046 101.821 48.9129 101.524 48.9079C101.367 48.9054 101.184 48.9704 101.031 48.8058C102.058 48.35 102.69 48.5287 103.679 49.565ZM65.3505 84.2563C71.4013 85.7264 77.087 88.2169 83.1319 89.7512C83.5974 89.1541 84.2203 88.7832 84.9687 88.4844C85.5046 88.2703 86.1296 87.7669 86.1288 87.0089C86.1259 84.2067 86.3746 81.4307 86.9205 78.6614C86.6367 78.7555 86.5217 78.9926 86.3592 79.1735C85.4279 80.2119 84.412 81.1577 83.2757 81.9678C82.1915 82.7403 82.1652 82.7312 81.296 81.7957C81.2702 81.7678 81.2147 81.767 81.1689 81.7524C80.8597 81.862 80.9401 82.2987 80.5747 82.4224C80.1976 82.0916 79.8259 82.1091 79.4563 82.532C79.2246 82.797 78.86 82.7291 78.5471 82.7078C76.4803 82.5691 74.4577 82.1224 72.4146 81.819C70.2933 81.504 68.174 81.1715 66.018 80.8411C66.028 82.0107 65.6855 83.0695 65.3505 84.2563ZM143.89 148.365C144.45 149.859 144.267 151.408 144.25 152.943C144.243 153.556 144.284 154.205 144.101 154.773C143.64 156.207 144.267 157.135 145.269 158.053C146.13 158.843 146.104 159.147 145.511 160.192C144.972 161.14 144.391 162.065 143.851 163.014C143.728 163.231 143.489 163.484 143.712 163.756C143.975 164.077 144.303 163.857 144.597 163.786C144.746 163.75 144.878 163.641 145.015 163.561C146.475 162.709 147.584 161.472 148.697 160.235C149.091 159.796 149.162 159.304 149.018 158.776C148.802 157.986 148.679 157.179 148.538 156.375C148.471 155.994 148.601 155.586 148.414 155.23C148.104 154.639 147.399 154.154 147.952 153.353C147.577 151.724 147.281 150.072 146.586 148.533C146.472 148.283 146.316 148.115 146.028 148.11C145.349 148.097 144.661 147.992 143.89 148.365ZM77.7333 164.645C77.692 164.439 77.6666 164.306 77.6395 164.174C77.4449 163.228 77.3399 163.141 76.397 163.143C73.8001 163.147 71.2029 163.131 68.6065 163.166C67.6514 163.179 66.6701 163.139 65.8459 163.826C65.5226 164.096 65.0717 164.176 64.6404 164.253C63.3849 164.477 62.1207 164.619 60.8477 164.631C60.3489 164.636 60.1481 164.839 60.116 165.299C60.1006 165.52 60.0693 165.741 60.0414 165.997C60.5873 166.027 61.1073 166.055 61.6273 166.084C65.1692 166.283 68.7053 166.646 72.2617 166.428C72.693 166.402 73.0034 166.319 73.1201 165.849C73.2114 165.481 73.451 165.365 73.861 165.311C75.1573 165.143 76.4403 164.875 77.7333 164.645ZM51.723 84.3763C52.966 85.2838 54.254 86.061 55.7841 86.2326C57.1212 86.3826 58.4672 86.3018 59.8043 86.1676C60.8594 86.0618 61.8624 85.9885 62.7045 86.8785C63.1991 87.4015 63.8941 87.7002 64.5929 88.0427C65.015 87.1477 65.3905 86.2581 65.4726 85.2697C65.4926 85.0267 65.4855 84.8271 65.1755 84.7559C63.627 84.3988 62.1878 83.7983 60.7835 83.0333C59.3272 82.2399 57.6371 82.0303 56.0699 81.4999C55.8737 81.4332 55.6362 81.3957 55.3878 81.544C55.7128 82.0253 56.2179 82.2553 56.6466 82.5749C56.8 82.6891 57.0629 82.7462 56.9612 83.0224C56.8875 83.2229 56.6916 83.2395 56.5029 83.242C54.6373 83.27 52.7727 83.3241 50.9325 82.8962C50.5896 82.8166 50.2308 82.6441 49.815 82.7508C50.0896 83.29 50.4496 83.5766 50.9855 83.6879C52.1409 83.9279 53.3156 84.025 54.4765 84.2154C54.9811 84.2979 55.5607 84.1971 55.9649 84.6484C54.5244 84.7996 53.136 84.4184 51.723 84.3763ZM58.2959 76.7267C57.8867 77.7292 58.3867 78.3355 59.0793 78.8647C59.2055 78.9614 59.3247 79.0685 59.4576 79.1551C59.7918 79.3731 59.9831 79.6285 59.8527 80.0644C59.7522 80.4006 59.9168 80.6752 60.1656 80.9132C60.3348 81.0748 60.5998 81.1744 60.6081 81.4707C59.8664 81.6099 59.1372 80.8715 59.2439 80.0844C59.2747 79.8573 59.3726 79.6547 59.1359 79.4718C58.7876 79.2022 58.4559 78.9109 58.0567 78.5788C57.9509 79.6252 57.8538 80.5877 57.7588 81.5282C58.4313 81.729 59.0397 81.904 59.6435 82.0932C60.2173 82.2728 60.7606 82.692 61.3907 82.1853C61.5557 82.0524 61.8207 82.192 62.0407 82.2687C63.0166 82.6087 63.9996 82.9283 65.0455 83.277C65.2213 82.3991 65.5363 81.5953 65.4288 80.7094C64.4308 80.3956 63.4337 80.1898 62.4691 79.8581C61.7698 79.6177 61.3282 79.2443 61.0631 78.5318C60.6523 77.4259 59.451 76.7008 58.2959 76.7267ZM103.363 124.893C103.266 123.307 103.623 121.851 103.447 120.343C101.845 120.58 100.261 120.424 98.6129 120.483C99.465 122.714 101.116 124.004 103.363 124.893ZM57.2033 80.5152C55.2999 80.4085 53.446 80.3044 51.5459 80.1981C51.5222 80.9936 51.3226 81.684 51.1109 82.4449C52.7189 82.7312 54.3069 82.8354 56.0324 82.7774C55.6378 82.4232 55.3257 82.1716 55.0507 81.8849C54.8965 81.7245 54.7828 81.5111 54.9149 81.264C55.0324 81.0436 55.2436 81.0473 55.4478 81.0319C56.0483 80.9869 56.602 81.2365 57.1829 81.3307C57.2792 81.0677 57.2625 80.8244 57.2033 80.5152ZM57.3246 80.1298C57.3804 79.761 57.4342 79.4285 57.4804 79.0951C57.5883 78.3138 57.7513 77.5342 57.78 76.7496C57.8054 76.0508 57.1525 76.1004 56.6946 76.0012C56.1729 75.8883 56.1949 76.2854 56.1462 76.6291C55.9916 77.7184 55.8203 78.8051 55.6537 79.9031C56.2033 80.0502 56.7366 80.1231 57.3246 80.1298ZM111.318 118.267C110.583 118.5 109.959 118.697 109.336 118.896C109.186 118.944 109.027 118.983 109.026 119.195C109.018 120.391 109.019 121.584 109.845 122.633C110.457 121.217 110.994 119.838 111.318 118.267ZM74.0935 165.765C74.1256 166.08 74.2385 166.167 74.4252 166.165C75.3777 166.155 76.332 166.231 77.277 166.003C77.8662 165.86 77.8729 165.531 77.7012 165.054C76.4757 165.272 75.2661 165.401 74.0935 165.765ZM146.837 148.302C147.635 150.028 147.883 151.737 148.328 153.394C148.285 152.124 148.197 150.866 148.034 149.606C147.94 148.881 147.523 148.629 146.837 148.302ZM61.3807 82.7483C62.3878 83.6054 63.6612 83.6771 64.8804 84.0846C64.7434 83.5171 62.0153 82.5453 61.3807 82.7483ZM53.1456 77.9271C53.3468 78.3455 53.6294 78.443 53.9431 78.2276C54.1044 78.1167 54.1827 77.8488 53.9769 77.688C53.6373 77.4221 53.4114 77.6875 53.1456 77.9271Z" fill="#42210B"/>
</svg>
