<svg width="158" height="40" viewBox="0 0 158 40" fill="none" xmlns="http://www.w3.org/2000/svg">
<path d="M72.2253 3.53913L72.5737 3.87697L72.9218 3.53888C77.2372 -0.652319 83.8939 -0.515206 88.0539 3.99528L88.4214 3.6563L88.0539 3.99529C92.2305 8.52359 92.3785 15.7509 88.4983 20.4622L72.5713 37.7219L56.6447 20.4622C52.7645 15.7508 52.9148 8.51183 57.0887 3.99567C61.2523 -0.509249 67.8972 -0.658467 72.2253 3.53913Z" fill="#87162A" stroke="white"/>
<path d="M38.809 4.0225C39.9029 4.53529 40.0055 5.38994 40.0055 5.7318C40.0055 6.27877 39.5611 6.72319 38.9799 6.72319C38.5013 6.72319 38.0911 6.38133 37.9885 5.90273C37.715 5.76598 36.6211 5.42412 32.9974 5.76598C30.1941 6.03947 26.5362 6.65482 22.639 7.54365L21.6476 7.78296C21.5109 9.3897 20.9297 15.6115 19.323 22.1752C18.2291 26.5852 16.8958 30.2089 15.3232 32.978C13.2721 36.5675 10.8107 38.7212 8.04164 39.3366C7.3921 39.4733 6.77676 39.5417 6.19559 39.5417C5.51188 39.5417 4.86234 39.4392 4.28118 39.2682C3.22142 38.9264 2.33258 38.311 1.64886 37.4222C0.65747 36.1915 0.0763083 34.4138 0.00793638 32.4652C-0.0604355 30.6875 0.31561 28.8073 1.03352 27.3715C1.47793 26.4485 2.02491 25.7306 2.67444 25.1836C3.39235 24.6024 4.28118 24.2606 5.17002 24.2606C5.71699 24.2606 6.19559 24.7392 6.19559 25.2862C6.19559 25.8673 5.71699 26.3117 5.17002 26.3117C3.97351 26.3117 3.22142 27.5424 2.87956 28.2603C1.78561 30.4824 1.64886 34.1061 3.2556 36.1573C4.21281 37.3538 5.68281 37.764 7.59722 37.3196C12.7251 36.1915 15.7335 28.192 17.3402 21.6625C18.7077 16.056 19.323 10.552 19.5281 8.29574C12.3491 10.1418 6.22978 12.3981 3.4949 14.3125C2.23002 15.2013 2.05909 15.7483 2.09328 15.8508C2.2984 16.3978 2.02491 16.979 1.47793 17.1841C1.37537 17.2183 1.23863 17.2183 1.13607 17.2183C0.725841 17.2183 0.31561 16.979 0.178866 16.5346C-0.0604355 15.8508 -0.0604355 14.7227 1.34119 13.4236C2.70863 12.1588 5.27257 10.7913 8.99884 9.42388C12.2465 8.19319 16.1779 6.99668 20.3486 5.9711C24.3483 5.01389 28.3139 4.2618 31.4932 3.88576C35.1853 3.44134 37.5783 3.47552 38.809 4.0225Z" fill="white"/>
<path d="M25.7457 31.3713C24.4124 31.3713 23.6603 30.7217 23.2843 30.1748C22.498 29.0808 22.3271 27.3715 22.7373 24.9443C23.0108 23.0641 23.6603 20.7052 24.6517 17.902C24.8227 17.355 25.4038 17.0815 25.9508 17.2525C26.4978 17.4576 26.7713 18.0387 26.5662 18.5857C23.8996 26.2776 24.5492 28.4313 24.9252 28.9782C25.062 29.1492 25.2671 29.3201 25.7457 29.3201C26.5662 29.3201 27.7627 28.4313 29.0275 26.8587C30.1215 25.4913 30.9078 24.1238 30.9078 24.1238C31.1813 23.6111 31.8308 23.4401 32.3094 23.7136C32.8222 23.9871 32.9931 24.6366 32.7196 25.1152C32.6854 25.1836 31.8308 26.6536 30.6343 28.1236C29.9164 29.0124 29.1985 29.7303 28.5148 30.2773C27.5575 30.9952 26.6345 31.3713 25.7457 31.3713ZM27.6259 14.039C27.455 14.6201 26.8396 15.0988 26.2585 15.1329C25.7115 15.1671 25.3696 14.7227 25.5406 14.1415C25.7115 13.5946 26.3269 13.0818 26.908 13.0818C27.4892 13.0476 27.7968 13.4578 27.6259 14.039Z" fill="white"/>
<path d="M33.824 31.3713C32.4907 31.3713 31.7386 30.7217 31.3626 30.1748C30.5763 29.0808 30.4054 27.3715 30.8156 24.9443C31.0891 23.0641 31.7386 20.7052 32.73 17.902C32.901 17.355 33.4821 17.0815 34.0291 17.2525C34.5419 17.4576 34.8496 18.0387 34.6445 18.5857C31.9779 26.2776 32.6275 28.3971 33.0035 28.9782C33.1403 29.1492 33.3112 29.3201 33.824 29.3201C34.5419 29.3201 36.0461 28.2262 37.4135 26.2092C38.8493 24.1238 40.1826 20.8762 39.2937 18.6199C39.0886 18.0729 39.3621 17.4918 39.8749 17.2867C40.4219 17.0815 41.003 17.3208 41.2082 17.8678C41.7551 19.2694 41.7551 20.9104 41.2765 22.7564C40.8663 24.2948 40.1142 25.9015 39.1228 27.3373C38.3365 28.4655 37.4819 29.4227 36.6272 30.1406C35.6358 30.961 34.6786 31.3713 33.824 31.3713Z" fill="white"/>
<path d="M53.6775 31.3713C52.7545 31.3713 51.9682 30.9952 51.4554 30.3115C50.9768 29.6962 50.7033 28.8757 50.6349 27.8159C50.0538 28.6022 49.4042 29.2517 48.7547 29.7987C47.9684 30.4482 47.1822 30.8927 46.3959 31.132C45.5754 31.4055 44.7891 31.4055 44.1054 31.1662C43.1482 30.8243 42.4645 30.0038 42.1568 28.9099C41.8833 27.8843 41.9517 26.6536 42.3277 25.252C42.9431 22.9957 44.2422 20.9104 45.9856 19.3378C47.6266 17.8336 49.3701 17.1157 50.6691 17.4234C51.1819 17.5601 52.857 18.2097 52.2075 21.0471C52.1049 21.5941 51.558 21.9701 51.011 21.8334C50.464 21.7308 50.088 21.1839 50.2247 20.6369C50.3614 19.919 50.2931 19.6113 50.2589 19.5087C50.2247 19.4404 50.2247 19.4062 50.1563 19.4062C49.7803 19.3036 48.6863 19.6113 47.3531 20.842C45.9515 22.1411 44.8233 23.9529 44.3105 25.799C43.8319 27.5766 44.0029 28.9441 44.7891 29.2176C45.3019 29.3885 46.2249 29.2176 47.4556 28.2262C48.447 27.3715 49.9512 25.6964 51.4212 22.4487C51.6263 21.9701 52.1733 21.7308 52.6861 21.9018C53.1989 22.1069 53.4724 22.6197 53.3356 23.1325C52.4126 26.551 52.5835 28.4313 53.0621 29.0466C53.1647 29.1834 53.3356 29.3201 53.6775 29.3201C54.4979 29.3201 55.7286 28.3971 57.0277 26.8245C58.1558 25.4571 62.6011 19.2637 62.6011 19.2295C62.8745 18.7509 63.5241 18.58 64.0027 18.8535C64.4813 19.1612 64.6522 19.7765 64.3787 20.2551C64.3445 20.3235 59.831 26.6536 58.6003 28.1236C57.8824 29.0124 57.1303 29.7303 56.4465 30.2773C55.4893 30.9952 54.5663 31.3713 53.6775 31.3713Z" fill="white"/>
<path d="M118.122 8.19318C118.43 8.80853 118.533 9.49225 118.396 10.2102C118.259 10.8939 117.952 11.5776 117.405 12.2955C116.687 13.2527 115.524 13.9364 113.918 14.3467C112.584 14.6543 110.909 14.8253 108.824 14.7911C106.704 14.7911 104.38 14.6201 101.85 14.3467C101.303 16.7397 103.32 18.6883 106.568 21.4915C108.277 22.9273 110.02 24.3973 111.114 26.1066C111.764 27.098 112.14 28.021 112.277 29.0124C112.448 30.1064 112.277 31.2345 111.798 32.3627C111.08 34.0036 109.952 35.4394 108.448 36.6017C107.08 37.6957 105.44 38.5161 103.593 39.0631C101.918 39.5759 100.141 39.8494 98.4314 39.8494C96.517 39.8494 94.6709 39.5417 93.0642 38.9264C90.7737 38.0375 89.0644 36.6017 88.1072 34.7557C87.5944 33.7301 87.321 32.602 87.2868 31.3713C87.2184 30.1064 87.4577 28.7389 87.9363 27.3373C88.1072 26.7903 88.6884 26.5169 89.2354 26.6878C89.7482 26.8587 90.0558 27.4399 89.8849 27.9869C87.9363 33.7643 91.4916 36.1231 93.7821 37.0119C96.4486 38.0375 99.9014 38.0717 103.012 37.1145C106.328 36.0889 108.79 34.1061 109.884 31.5422C110.533 30.0722 110.396 28.7389 109.405 27.2348C108.448 25.799 106.807 24.3973 105.234 23.0299C103.593 21.6283 101.918 20.1925 100.859 18.5857C100.243 17.6627 99.8672 16.7739 99.7646 15.8167C99.6963 15.2697 99.6963 14.6885 99.7988 14.1074C98.4314 13.9706 96.9956 13.7997 95.5598 13.5946C84.1758 12.1929 66.23 14.5271 64.4181 20.4412C63.3133 21.3662 63.7976 20.9104 63.2848 20.7394C62.7378 20.5685 62.4301 20.0215 62.6011 19.4745C63.148 17.5943 67.046 14.5575 69.1313 13.6003C70.8406 12.814 75.5526 11.6004 78.39 11.4636C83.5179 11.1901 89.714 10.8255 95.7991 11.5776L100.551 12.1588C101.611 10.176 103.286 8.53504 105.439 7.37272C107.422 6.34714 109.747 5.73179 111.969 5.69761C114.977 5.62924 117.268 6.58644 118.122 8.19318ZM115.764 11.0648C116.174 10.5178 116.584 9.73155 116.276 9.15039C115.866 8.26155 114.089 7.71458 112.003 7.74876C108.79 7.81714 104.893 9.25295 102.807 12.3981C104.961 12.6032 107.012 12.7399 108.824 12.7399C112.584 12.7741 114.909 12.1929 115.764 11.0648Z" fill="white"/>
<path d="M125.431 17.355C126.012 17.4576 126.354 18.0046 126.251 18.5515C126.251 18.6199 125.294 23.8162 123.755 28.9441C122.832 31.9866 121.909 34.4138 120.952 36.1915C119.619 38.7212 118.252 39.9519 116.713 39.9519C116.166 39.9519 115.688 39.4733 115.688 38.9264C115.688 38.3452 116.166 37.9008 116.713 37.9008C117.089 37.9008 117.465 37.5931 117.739 37.3196C118.183 36.841 118.662 36.1573 119.14 35.2343C119.858 33.9352 120.576 32.1917 121.26 30.038C120.269 30.9269 119.311 31.3713 118.354 31.3713C117.021 31.3713 116.269 30.7217 115.859 30.1748C115.106 29.115 114.936 27.3715 115.312 24.9443C115.619 23.0641 116.269 20.7052 117.226 17.902C117.431 17.355 118.012 17.0815 118.559 17.2525C119.072 17.4576 119.346 18.0387 119.175 18.5857C116.508 26.2776 117.123 28.4313 117.534 28.9782C117.67 29.1492 117.841 29.3201 118.354 29.3201C119.14 29.3201 120.2 28.4313 121.294 26.8929C122.217 25.5597 122.867 24.1922 122.867 24.1922L122.969 23.9871C123.79 20.7394 124.234 18.2439 124.234 18.2097C124.337 17.6285 124.884 17.2525 125.431 17.355Z" fill="white"/>
<path d="M127.01 31.4055C126.873 31.4055 126.736 31.3713 126.599 31.3029C126.121 31.0978 125.881 30.5508 126.052 30.038C126.052 30.0038 127.933 24.2948 130.189 17.9362C130.394 17.4234 130.975 17.1157 131.522 17.3208C132.035 17.526 132.343 18.1071 132.137 18.6199C131.693 19.8848 131.249 21.0813 130.873 22.2436C131.659 21.1497 132.377 20.2266 133.06 19.4746C134.428 17.9704 135.556 17.2525 136.582 17.2525C137.402 17.2525 137.847 17.6285 138.086 17.9362C138.872 18.9618 138.462 20.5685 137.812 23.2692C137.676 23.7136 137.573 24.158 137.47 24.6366C137.129 25.9699 136.923 26.9613 136.821 27.7817C136.718 28.7731 136.855 29.0808 136.923 29.1834C137.026 29.2859 137.334 29.3201 137.505 29.3201C138.291 29.3201 139.522 28.3971 140.787 26.8245C141.88 25.4913 142.667 24.1238 142.667 24.0897C142.94 23.6111 143.556 23.4401 144.068 23.7136C144.547 23.9871 144.718 24.6024 144.444 25.1152C144.41 25.1836 143.59 26.6536 142.393 28.1236C141.675 29.0124 140.957 29.7303 140.274 30.2431C139.317 30.9952 138.359 31.3713 137.505 31.3713C136.547 31.3713 135.795 31.0636 135.317 30.4482C134.257 29.115 134.838 26.8245 135.453 24.158L135.83 22.7564C136.069 21.765 136.274 20.9445 136.377 20.2608C136.479 19.7822 136.479 19.4746 136.479 19.3378C136.103 19.4404 134.667 20.1583 131.522 24.9101C129.539 27.8501 127.933 30.8243 127.933 30.8585C127.727 31.2003 127.386 31.4055 127.01 31.4055Z" fill="white"/>
<path d="M147.751 31.2687C145.734 31.2687 144.127 30.6534 143.17 29.491C142.588 28.7731 141.939 27.4399 142.349 25.3204C142.759 23.2008 143.819 21.1497 145.323 19.5771C146.725 18.1071 148.4 17.2183 149.768 17.2183C150.93 17.2183 151.853 18.0046 152.161 19.3378C152.331 20.0215 152.263 20.842 152.058 21.5599C151.785 22.4145 151.272 23.0641 150.622 23.3718C150.109 23.6111 149.494 23.4059 149.255 22.8932C149.015 22.3804 149.221 21.765 149.733 21.5257C150.007 21.389 150.315 20.5343 150.144 19.7822C150.041 19.2694 149.836 19.2694 149.768 19.2694C149.152 19.2694 148.024 19.7139 146.793 20.9787C145.563 22.2778 144.708 23.9529 144.366 25.6964C144.161 26.7903 144.298 27.6108 144.776 28.192C145.323 28.8415 146.383 29.2176 147.751 29.2176C149.699 29.2176 151.545 28.3629 153.22 26.722C154.519 25.4229 155.203 24.1238 155.203 24.1238C155.477 23.6111 156.092 23.4059 156.605 23.6794C157.083 23.9529 157.288 24.5683 157.015 25.0469C156.981 25.1152 156.194 26.6194 154.69 28.1236C152.639 30.1748 150.246 31.2687 147.751 31.2687Z" fill="white"/>
</svg>
