<svg width="158" height="37" viewBox="0 0 158 37" fill="none" xmlns="http://www.w3.org/2000/svg">
<path d="M38.809 1.0225C39.9029 1.53529 40.0055 2.38994 40.0055 2.7318C40.0055 3.27877 39.5611 3.72319 38.9799 3.72319C38.5013 3.72319 38.0911 3.38133 37.9885 2.90273C37.715 2.76598 36.6211 2.42412 32.9974 2.76598C30.1941 3.03947 26.5362 3.65482 22.639 4.54365L21.6476 4.78296C21.5109 6.3897 20.9297 12.6115 19.323 19.1752C18.2291 23.5852 16.8958 27.2089 15.3232 29.978C13.2721 33.5675 10.8107 35.7212 8.04164 36.3366C7.3921 36.4733 6.77676 36.5417 6.19559 36.5417C5.51188 36.5417 4.86234 36.4392 4.28118 36.2682C3.22142 35.9264 2.33258 35.311 1.64886 34.4222C0.65747 33.1915 0.0763083 31.4138 0.00793638 29.4652C-0.0604355 27.6875 0.31561 25.8073 1.03352 24.3715C1.47793 23.4485 2.02491 22.7306 2.67444 22.1836C3.39235 21.6024 4.28118 21.2606 5.17002 21.2606C5.71699 21.2606 6.19559 21.7392 6.19559 22.2862C6.19559 22.8673 5.71699 23.3117 5.17002 23.3117C3.97351 23.3117 3.22142 24.5424 2.87956 25.2603C1.78561 27.4824 1.64886 31.1061 3.2556 33.1573C4.21281 34.3538 5.68281 34.764 7.59722 34.3196C12.7251 33.1915 15.7335 25.192 17.3402 18.6625C18.7077 13.056 19.323 7.55202 19.5281 5.29574C12.3491 7.14179 6.22978 9.39806 3.4949 11.3125C2.23002 12.2013 2.05909 12.7483 2.09328 12.8508C2.2984 13.3978 2.02491 13.979 1.47793 14.1841C1.37537 14.2183 1.23863 14.2183 1.13607 14.2183C0.725841 14.2183 0.31561 13.979 0.178866 13.5346C-0.0604355 12.8508 -0.0604355 11.7227 1.34119 10.4236C2.70863 9.15876 5.27257 7.79132 8.99884 6.42388C12.2465 5.19319 16.1779 3.99668 20.3486 2.9711C24.3483 2.01389 28.3139 1.2618 31.4932 0.885756C35.1853 0.441338 37.5783 0.475524 38.809 1.0225Z" fill="white"/>
<path d="M25.7457 28.3713C24.4124 28.3713 23.6603 27.7217 23.2843 27.1748C22.498 26.0808 22.3271 24.3715 22.7373 21.9443C23.0108 20.0641 23.6603 17.7052 24.6517 14.902C24.8227 14.355 25.4038 14.0815 25.9508 14.2525C26.4978 14.4576 26.7713 15.0387 26.5662 15.5857C23.8996 23.2776 24.5492 25.4313 24.9252 25.9782C25.062 26.1492 25.2671 26.3201 25.7457 26.3201C26.5662 26.3201 27.7627 25.4313 29.0275 23.8587C30.1215 22.4913 30.9078 21.1238 30.9078 21.1238C31.1813 20.6111 31.8308 20.4401 32.3094 20.7136C32.8222 20.9871 32.9931 21.6366 32.7196 22.1152C32.6854 22.1836 31.8308 23.6536 30.6343 25.1236C29.9164 26.0124 29.1985 26.7303 28.5148 27.2773C27.5575 27.9952 26.6345 28.3713 25.7457 28.3713ZM27.6259 11.039C27.455 11.6201 26.8396 12.0988 26.2585 12.1329C25.7115 12.1671 25.3696 11.7227 25.5406 11.1415C25.7115 10.5946 26.3269 10.0818 26.908 10.0818C27.4892 10.0476 27.7968 10.4578 27.6259 11.039Z" fill="white"/>
<path d="M33.824 28.3713C32.4907 28.3713 31.7386 27.7217 31.3626 27.1748C30.5763 26.0808 30.4054 24.3715 30.8156 21.9443C31.0891 20.0641 31.7386 17.7052 32.73 14.902C32.901 14.355 33.4821 14.0815 34.0291 14.2525C34.5419 14.4576 34.8496 15.0387 34.6445 15.5857C31.9779 23.2776 32.6275 25.3971 33.0035 25.9782C33.1403 26.1492 33.3112 26.3201 33.824 26.3201C34.5419 26.3201 36.0461 25.2262 37.4135 23.2092C38.8493 21.1238 40.1826 17.8762 39.2937 15.6199C39.0886 15.0729 39.3621 14.4918 39.8749 14.2867C40.4219 14.0815 41.003 14.3208 41.2082 14.8678C41.7551 16.2694 41.7551 17.9104 41.2765 19.7564C40.8663 21.2948 40.1142 22.9015 39.1228 24.3373C38.3365 25.4655 37.4819 26.4227 36.6272 27.1406C35.6358 27.961 34.6786 28.3713 33.824 28.3713Z" fill="white"/>
<path d="M53.6775 28.3713C52.7545 28.3713 51.9682 27.9952 51.4554 27.3115C50.9768 26.6962 50.7033 25.8757 50.6349 24.8159C50.0538 25.6022 49.4042 26.2517 48.7547 26.7987C47.9684 27.4482 47.1822 27.8927 46.3959 28.132C45.5754 28.4055 44.7891 28.4055 44.1054 28.1662C43.1482 27.8243 42.4645 27.0038 42.1568 25.9099C41.8833 24.8843 41.9517 23.6536 42.3277 22.252C42.9431 19.9957 44.2422 17.9104 45.9856 16.3378C47.6266 14.8336 49.3701 14.1157 50.6691 14.4234C51.1819 14.5601 52.857 15.2097 52.2075 18.0471C52.1049 18.5941 51.558 18.9701 51.011 18.8334C50.464 18.7308 50.088 18.1839 50.2247 17.6369C50.3614 16.919 50.2931 16.6113 50.2589 16.5087C50.2247 16.4404 50.2247 16.4062 50.1563 16.4062C49.7803 16.3036 48.6863 16.6113 47.3531 17.842C45.9515 19.1411 44.8233 20.9529 44.3105 22.799C43.8319 24.5766 44.0029 25.9441 44.7891 26.2176C45.3019 26.3885 46.2249 26.2176 47.4556 25.2262C48.447 24.3715 49.9512 22.6964 51.4212 19.4487C51.6263 18.9701 52.1733 18.7308 52.6861 18.9018C53.1989 19.1069 53.4724 19.6197 53.3356 20.1325C52.4126 23.551 52.5835 25.4313 53.0621 26.0466C53.1647 26.1834 53.3356 26.3201 53.6775 26.3201C54.4979 26.3201 55.7286 25.3971 57.0277 23.8245C58.1558 22.4571 62.6011 16.2637 62.6011 16.2295C62.8745 15.7509 63.5241 15.58 64.0027 15.8535C64.4813 16.1612 64.6522 16.7765 64.3787 17.2551C64.3445 17.3235 59.831 23.6536 58.6003 25.1236C57.8824 26.0124 57.1303 26.7303 56.4465 27.2773C55.4893 27.9952 54.5663 28.3713 53.6775 28.3713Z" fill="white"/>
<path d="M118.122 5.19318C118.43 5.80853 118.533 6.49225 118.396 7.21015C118.259 7.89387 117.952 8.57759 117.405 9.2955C116.687 10.2527 115.524 10.9364 113.918 11.3467C112.584 11.6543 110.909 11.8253 108.824 11.7911C106.704 11.7911 104.38 11.6201 101.85 11.3467C101.303 13.7397 103.32 15.6883 106.568 18.4915C108.277 19.9273 110.02 21.3973 111.114 23.1066C111.764 24.098 112.14 25.021 112.277 26.0124C112.448 27.1064 112.277 28.2345 111.798 29.3627C111.08 31.0036 109.952 32.4394 108.448 33.6017C107.08 34.6957 105.44 35.5161 103.593 36.0631C101.918 36.5759 100.141 36.8494 98.4314 36.8494C96.517 36.8494 94.6709 36.5417 93.0642 35.9264C90.7737 35.0375 89.0644 33.6017 88.1072 31.7557C87.5944 30.7301 87.321 29.602 87.2868 28.3713C87.2184 27.1064 87.4577 25.7389 87.9363 24.3373C88.1072 23.7903 88.6884 23.5169 89.2354 23.6878C89.7482 23.8587 90.0558 24.4399 89.8849 24.9869C87.9363 30.7643 91.4916 33.1231 93.7821 34.0119C96.4486 35.0375 99.9014 35.0717 103.012 34.1145C106.328 33.0889 108.79 31.1061 109.884 28.5422C110.533 27.0722 110.396 25.7389 109.405 24.2348C108.448 22.799 106.807 21.3973 105.234 20.0299C103.593 18.6283 101.918 17.1925 100.859 15.5857C100.243 14.6627 99.8672 13.7739 99.7646 12.8167C99.6963 12.2697 99.6963 11.6885 99.7988 11.1074C98.4314 10.9706 96.9956 10.7997 95.5598 10.5946C84.1758 9.19294 66.23 11.5271 64.4181 17.4412C63.3133 18.3662 63.7976 17.9104 63.2848 17.7394C62.7378 17.5685 62.4301 17.0215 62.6011 16.4745C63.148 14.5943 67.046 11.5575 69.1313 10.6003C70.8406 9.81398 75.5526 8.60038 78.39 8.46363C83.5179 8.19015 89.714 7.8255 95.7991 8.57759L100.551 9.15875C101.611 7.17597 103.286 5.53504 105.439 4.37272C107.422 3.34714 109.747 2.73179 111.969 2.69761C114.977 2.62924 117.268 3.58644 118.122 5.19318ZM115.764 8.0648C116.174 7.51783 116.584 6.73155 116.276 6.15039C115.866 5.26155 114.089 4.71458 112.003 4.74876C108.79 4.81714 104.893 6.25295 102.807 9.39805C104.961 9.60317 107.012 9.73991 108.824 9.73991C112.584 9.7741 114.909 9.19294 115.764 8.0648Z" fill="white"/>
<path d="M125.431 14.355C126.012 14.4576 126.354 15.0046 126.251 15.5515C126.251 15.6199 125.294 20.8162 123.755 25.9441C122.832 28.9866 121.909 31.4138 120.952 33.1915C119.619 35.7212 118.252 36.9519 116.713 36.9519C116.166 36.9519 115.688 36.4733 115.688 35.9264C115.688 35.3452 116.166 34.9008 116.713 34.9008C117.089 34.9008 117.465 34.5931 117.739 34.3196C118.183 33.841 118.662 33.1573 119.14 32.2343C119.858 30.9352 120.576 29.1917 121.26 27.038C120.269 27.9269 119.311 28.3713 118.354 28.3713C117.021 28.3713 116.269 27.7217 115.859 27.1748C115.106 26.115 114.936 24.3715 115.312 21.9443C115.619 20.0641 116.269 17.7052 117.226 14.902C117.431 14.355 118.012 14.0815 118.559 14.2525C119.072 14.4576 119.346 15.0387 119.175 15.5857C116.508 23.2776 117.123 25.4313 117.534 25.9782C117.67 26.1492 117.841 26.3201 118.354 26.3201C119.14 26.3201 120.2 25.4313 121.294 23.8929C122.217 22.5597 122.867 21.1922 122.867 21.1922L122.969 20.9871C123.79 17.7394 124.234 15.2439 124.234 15.2097C124.337 14.6285 124.884 14.2525 125.431 14.355Z" fill="white"/>
<path d="M127.01 28.4055C126.873 28.4055 126.736 28.3713 126.599 28.3029C126.121 28.0978 125.881 27.5508 126.052 27.038C126.052 27.0038 127.933 21.2948 130.189 14.9362C130.394 14.4234 130.975 14.1157 131.522 14.3208C132.035 14.526 132.343 15.1071 132.137 15.6199C131.693 16.8848 131.249 18.0813 130.873 19.2436C131.659 18.1497 132.377 17.2266 133.06 16.4746C134.428 14.9704 135.556 14.2525 136.582 14.2525C137.402 14.2525 137.847 14.6285 138.086 14.9362C138.872 15.9618 138.462 17.5685 137.812 20.2692C137.676 20.7136 137.573 21.158 137.47 21.6366C137.129 22.9699 136.923 23.9613 136.821 24.7817C136.718 25.7731 136.855 26.0808 136.923 26.1834C137.026 26.2859 137.334 26.3201 137.505 26.3201C138.291 26.3201 139.522 25.3971 140.787 23.8245C141.88 22.4913 142.667 21.1238 142.667 21.0897C142.94 20.6111 143.556 20.4401 144.068 20.7136C144.547 20.9871 144.718 21.6024 144.444 22.1152C144.41 22.1836 143.59 23.6536 142.393 25.1236C141.675 26.0124 140.957 26.7303 140.274 27.2431C139.317 27.9952 138.359 28.3713 137.505 28.3713C136.547 28.3713 135.795 28.0636 135.317 27.4482C134.257 26.115 134.838 23.8245 135.453 21.158L135.83 19.7564C136.069 18.765 136.274 17.9445 136.377 17.2608C136.479 16.7822 136.479 16.4746 136.479 16.3378C136.103 16.4404 134.667 17.1583 131.522 21.9101C129.539 24.8501 127.933 27.8243 127.933 27.8585C127.727 28.2003 127.386 28.4055 127.01 28.4055Z" fill="white"/>
<path d="M147.751 28.2687C145.734 28.2687 144.127 27.6534 143.17 26.491C142.588 25.7731 141.939 24.4399 142.349 22.3204C142.759 20.2008 143.819 18.1497 145.323 16.5771C146.725 15.1071 148.4 14.2183 149.768 14.2183C150.93 14.2183 151.853 15.0046 152.161 16.3378C152.331 17.0215 152.263 17.842 152.058 18.5599C151.785 19.4145 151.272 20.0641 150.622 20.3718C150.109 20.6111 149.494 20.4059 149.255 19.8932C149.015 19.3804 149.221 18.765 149.733 18.5257C150.007 18.389 150.315 17.5343 150.144 16.7822C150.041 16.2694 149.836 16.2694 149.768 16.2694C149.152 16.2694 148.024 16.7139 146.793 17.9787C145.563 19.2778 144.708 20.9529 144.366 22.6964C144.161 23.7903 144.298 24.6108 144.776 25.192C145.323 25.8415 146.383 26.2176 147.751 26.2176C149.699 26.2176 151.545 25.3629 153.22 23.722C154.519 22.4229 155.203 21.1238 155.203 21.1238C155.477 20.6111 156.092 20.4059 156.605 20.6794C157.083 20.9529 157.288 21.5683 157.015 22.0469C156.981 22.1152 156.194 23.6194 154.69 25.1236C152.639 27.1748 150.246 28.2687 147.751 28.2687Z" fill="white"/>
</svg>
