<svg width="50" height="51" viewBox="0 0 50 51" fill="none" xmlns="http://www.w3.org/2000/svg">
<path fill-rule="evenodd" clip-rule="evenodd" d="M36.5256 1.01065L40.4125 0.18486L42.5384 2.20085L38.6515 3.02664L36.5256 1.01065ZM40.1491 4.44671L44.0358 3.62079L45.7846 5.27913L45.0676 9.11092L40.1491 4.44671ZM46.5654 10.5312L47.2821 6.6992L49.408 8.71519L48.6913 12.5472L46.5654 10.5312ZM35.77 9.24068L35.6595 2.55351L37.3938 4.19819L35.77 9.24068ZM36.3383 13.1228L38.7868 5.51915L44.0177 10.4793L36.3383 13.1228ZM40.3179 13.5533L45.4106 11.8003L47.145 13.445L40.3179 13.5533ZM13.5644 9.53171C18.9961 4.03607 27.097 2.55148 33.9678 5.139L33.9677 5.13913L34.0351 9.21115C28.2649 6.31253 21.0361 7.29879 16.2819 12.1088C15.7486 12.6485 15.2653 13.217 14.8321 13.8091C12.9469 14.3428 11.1472 15.1383 9.48971 16.1766C9.42827 16.2151 9.36706 16.2539 9.30609 16.293C10.1802 13.8347 11.5986 11.5206 13.5644 9.53171ZM8.27246 23.2844C8.48893 27.8352 10.4028 32.3174 13.9976 35.7262C21.4858 42.8272 33.4904 42.6369 40.7401 35.302C46.1718 29.8064 47.4243 21.8275 44.5616 15.1848L40.4043 15.2508C43.5488 20.806 42.7765 27.9149 38.0224 32.725C32.1947 38.6212 22.6479 38.7726 16.6284 33.0644C12.876 29.506 11.4027 24.532 12.2368 19.8618C12.17 19.9024 12.1034 19.9434 12.0371 19.9849C10.6031 20.8832 9.33343 21.9981 8.27246 23.2844Z" fill="url(#paint0_linear_0_619)"/>
<path fill-rule="evenodd" clip-rule="evenodd" d="M38.4839 31.551C38.0248 21.7095 29.7338 13.8686 19.5733 13.8686C9.11813 13.8686 0.642578 22.1707 0.642578 32.4118C0.642578 42.653 9.11813 50.9551 19.5733 50.9551C27.8002 50.9551 34.8015 45.8145 37.412 38.6337C35.7264 39.6631 33.8892 40.4243 31.969 40.8925C29.2356 44.7188 24.7027 47.221 19.5733 47.221C11.2235 47.221 4.45465 40.5907 4.45465 32.4118C4.45465 24.2329 11.2235 17.6026 19.5733 17.6026C27.923 17.6026 34.6919 24.2329 34.6919 32.4118C34.6919 33.2702 34.6173 34.1115 34.4742 34.9298C34.7523 34.7729 35.0253 34.6065 35.2927 34.4308C36.505 33.6343 37.5803 32.662 38.4839 31.551Z" fill="url(#paint1_linear_0_619)"/>
<defs>
<linearGradient id="paint0_linear_0_619" x1="28.8403" y1="0.18486" x2="28.8403" y2="40.93" gradientUnits="userSpaceOnUse">
<stop stop-color="#522B79"/>
<stop offset="1" stop-color="#E33183"/>
</linearGradient>
<linearGradient id="paint1_linear_0_619" x1="19.5632" y1="13.8686" x2="19.5632" y2="50.9551" gradientUnits="userSpaceOnUse">
<stop stop-color="#522B79"/>
<stop offset="1" stop-color="#E33183"/>
</linearGradient>
</defs>
</svg>
