<svg width="52" height="162" viewBox="0 0 52 162" fill="none" xmlns="http://www.w3.org/2000/svg">
<path d="M36.1509 146.824L36.727 160.41L44.0631 160.245L43.5136 146.632L36.1509 146.824Z" fill="#E8505B"/>
<path d="M40.3292 159.816C40.3903 159.813 40.2769 156.838 40.0752 153.172C39.8734 149.505 39.6606 146.536 39.599 146.539C39.5379 146.543 39.6519 149.517 39.853 153.184C40.0548 156.85 40.2676 159.819 40.3292 159.816Z" fill="#263238"/>
<path d="M36.6875 159.473L44.0241 159.284L44.063 160.245L36.727 160.41L36.6875 159.473Z" fill="#263238"/>
<path d="M43.8875 155.895C43.898 155.886 43.8305 155.78 43.6864 155.607C43.5422 155.433 43.3148 155.196 43.0003 154.939C42.6858 154.684 42.28 154.409 41.78 154.2C41.284 153.987 40.6852 153.849 40.0538 153.884C38.7864 153.945 37.7498 154.615 37.2538 155.258C36.9957 155.576 36.841 155.871 36.7544 156.08C36.6701 156.291 36.6405 156.413 36.6532 156.417C36.6945 156.438 36.8486 155.949 37.3724 155.36C37.8788 154.77 38.8637 154.164 40.0666 154.105C41.2648 154.042 42.2811 154.602 42.9044 155.063C43.5404 155.534 43.8579 155.921 43.8875 155.895Z" fill="#263238"/>
<path opacity="0.3" d="M36.3281 152.312L36.4927 154.175L43.7915 153.521L43.7426 152.312H36.3281Z" fill="black"/>
<path d="M7.99883 148.422L8.31162 156.578C8.31162 156.578 0.167473 159.465 0.0791016 160.978L15.8738 161.109L15.9075 148.381L7.99883 148.422Z" fill="#E8505B"/>
<path d="M13.1012 155.909C13.4099 155.993 13.6244 156.339 13.5535 156.651C13.4826 156.963 13.132 157.184 12.8215 157.106C12.5111 157.028 12.2413 156.62 12.3471 156.317C12.4524 156.015 12.8779 155.778 13.1605 155.929" fill="#E0E0E0"/>
<path d="M15.8737 161.108L15.8766 160.094L0.544168 160.275C0.544168 160.275 0.0412789 160.586 0 161.063L15.8737 161.108Z" fill="#263238"/>
<path d="M8.16792 156.629C8.17083 156.707 8.56037 156.742 8.94409 156.991C9.33421 157.231 9.53303 157.567 9.60396 157.536C9.67605 157.521 9.55862 157.056 9.08827 156.762C8.62141 156.464 8.15106 156.559 8.16792 156.629Z" fill="#263238"/>
<path d="M6.49723 157.325C6.47979 157.401 6.81757 157.532 7.08269 157.861C7.35768 158.182 7.42514 158.538 7.50305 158.535C7.5763 158.547 7.6292 158.09 7.29141 157.688C6.95653 157.283 6.49839 157.252 6.49723 157.325Z" fill="#263238"/>
<path d="M5.55149 159.33C5.62242 159.346 5.72997 158.957 5.52881 158.531C5.33056 158.104 4.96312 157.936 4.93056 158.002C4.88696 158.065 5.12358 158.294 5.28347 158.646C5.45091 158.995 5.47416 159.322 5.55149 159.33Z" fill="#263238"/>
<path d="M8.30347 154.75C8.33661 154.821 8.69359 154.713 9.1337 154.741C9.5744 154.761 9.91742 154.908 9.95812 154.841C10.0029 154.785 9.668 154.498 9.14882 154.471C8.63022 154.44 8.26568 154.689 8.30347 154.75Z" fill="#263238"/>
<path d="M8.01563 152.993C8.01505 153.025 8.3226 153.073 8.81446 152.987C9.05923 152.944 9.3476 152.863 9.64934 152.728C9.80051 152.66 9.95457 152.58 10.1075 152.484C10.1807 152.436 10.2679 152.388 10.3482 152.295C10.4342 152.214 10.4831 152.007 10.3831 151.881C10.3011 151.759 10.1569 151.706 10.0412 151.703C9.92377 151.7 9.82841 151.724 9.74178 151.745C9.56446 151.789 9.39818 151.848 9.24586 151.917C8.94121 152.056 8.69412 152.232 8.51041 152.402C8.14122 152.746 8.01563 153.037 8.04237 153.052C8.07784 153.078 8.25692 152.834 8.63308 152.55C8.82029 152.409 9.05982 152.263 9.3447 152.147C9.48714 152.09 9.64063 152.041 9.80284 152.005C9.97144 151.96 10.1156 151.959 10.1586 152.033C10.1743 152.061 10.1767 152.073 10.1412 152.123C10.1046 152.168 10.0366 152.213 9.96389 152.26C9.82319 152.353 9.68133 152.433 9.54237 152.503C9.26447 152.642 8.99877 152.736 8.77087 152.8C8.31447 152.929 8.01389 152.951 8.01563 152.993Z" fill="#263238"/>
<g opacity="0.3">
<path d="M15.9145 153.27L15.8895 155.079L8.25293 155.042L8.26107 153.401L15.9145 153.27Z" fill="black"/>
</g>
<path d="M44.2129 79.8926L42.7694 85.2955L38.5479 80.3327L40.8037 75.3717L44.2129 77.8391V79.8926Z" fill="#FFBE9D"/>
<path d="M45.0392 34.6975C45.0392 34.6975 47.1862 37.0376 47.4252 39.5475C47.6641 42.0574 51.3694 64.5276 51.3694 64.5276C51.3694 64.5276 45.6467 78.8176 44.213 79.8932L39.8677 78.1095L43.4473 62.7555L40.8514 52.3364L45.0392 34.6975Z" fill="#E8505B"/>
<path d="M50.4361 65.7177C50.4716 65.7863 49.4315 66.1456 48.171 65.8055C46.9065 65.4794 46.1792 64.6538 46.2437 64.6119C46.3018 64.5398 47.0699 65.2125 48.2478 65.5131C49.4216 65.8329 50.421 65.627 50.4361 65.7177Z" fill="#263238"/>
<path d="M49.8665 53.6898C49.8787 53.7136 49.449 53.9613 48.7589 54.3671C48.0688 54.7729 47.1211 55.3427 46.0973 56.0078C45.0735 56.6735 44.1671 57.3072 43.5159 57.7729C42.8642 58.2386 42.4636 58.5305 42.4467 58.5095C42.4392 58.4997 42.5293 58.4142 42.6996 58.2677C42.8694 58.1212 43.1217 57.9165 43.4386 57.67C44.0717 57.1764 44.97 56.5235 45.9979 55.8555C47.0258 55.188 47.9874 54.6334 48.6955 54.2555C49.0496 54.0665 49.3391 53.9189 49.542 53.8235C49.7455 53.7264 49.8606 53.6788 49.8665 53.6898Z" fill="white"/>
<path d="M48.0729 45.9643C48.0828 45.9916 47.6793 46.1509 47.0468 46.4474C46.4142 46.7428 45.5584 47.1904 44.6695 47.7753C43.7817 48.3625 43.034 48.9736 42.5131 49.4393C41.9922 49.9044 41.6863 50.2125 41.6654 50.1928C41.6561 50.184 41.7224 50.098 41.8509 49.9486C41.9782 49.7986 42.1736 49.5916 42.4253 49.3451C42.927 48.8521 43.6712 48.2178 44.5689 47.6236C45.4677 47.0317 46.3433 46.5974 46.9939 46.33C47.3189 46.1957 47.5863 46.0968 47.7747 46.0393C47.9631 45.9794 48.0683 45.9521 48.0729 45.9643Z" fill="white"/>
<path d="M47.1468 39.3399C47.1573 39.3981 46.0846 39.4824 44.9375 40.0841C43.7823 40.6713 43.0928 41.4975 43.0515 41.455C43.0352 41.4417 43.1835 41.2184 43.4893 40.9114C43.7934 40.605 44.266 40.2277 44.8544 39.9225C45.4434 39.6196 46.0248 39.4521 46.4509 39.3818C46.8771 39.3109 47.1451 39.319 47.1468 39.3399Z" fill="white"/>
<path d="M50.4991 64.1968C50.4834 64.2241 50.1305 64.0264 49.5282 63.7904C48.927 63.5532 48.0631 63.302 47.0811 63.2084C46.0986 63.1183 45.2032 63.2043 44.5683 63.3258C43.9323 63.4462 43.5492 63.5747 43.5387 63.545C43.5346 63.5334 43.6265 63.491 43.7974 63.4247C43.9678 63.3555 44.2218 63.2776 44.5416 63.2003C45.1794 63.0445 46.0939 62.9351 47.098 63.0276C48.1009 63.1229 48.9799 63.4003 49.577 63.6718C49.8765 63.8067 50.1119 63.9311 50.2666 64.0305C50.423 64.1276 50.5055 64.1857 50.4991 64.1968Z" fill="white"/>
<path d="M46.7728 72.6479C46.7443 72.6601 46.5932 72.3153 46.2798 71.8008C45.9682 71.2863 45.4705 70.6136 44.7984 69.9892C44.1234 69.3671 43.4141 68.9235 42.8769 68.6526C42.3397 68.3799 41.9845 68.256 41.9943 68.227C41.9984 68.2148 42.0903 68.2351 42.2548 68.2828C42.4199 68.3276 42.6525 68.413 42.9327 68.5369C43.4932 68.7822 44.2315 69.2194 44.9222 69.856C45.6106 70.495 46.1036 71.1973 46.3914 71.7368C46.5362 72.0066 46.6402 72.2316 46.6972 72.3927C46.7571 72.5525 46.7844 72.6432 46.7728 72.6479Z" fill="white"/>
<path d="M9.20068 78.2107C9.25417 78.424 11.3751 83.9258 11.3751 83.9258L14.8623 82.4304L15.1292 77.8392L13.7169 75.3723L9.20068 78.2107Z" fill="#FFBE9D"/>
<path d="M21.2842 27.2162C20.7592 27.2162 12.4907 31.0226 11.0471 31.9412C9.60346 32.8598 1.46631 62.5212 1.46631 64.0962C1.46631 65.6712 9.19532 79.0828 9.19532 79.0828C9.19532 79.0828 13.3395 77.2025 13.8639 76.8084C14.3889 76.4148 10.2215 63.1061 10.2215 63.1061L13.6721 50.4463L21.2842 27.2162Z" fill="#E8505B"/>
<path d="M8.90926 64.1985C8.93484 64.2194 8.73544 64.5252 8.28254 64.8961C7.8337 65.2671 7.10812 65.67 6.22964 65.8584C5.35057 66.0432 4.52324 65.97 3.96278 65.8136C3.39825 65.6589 3.09186 65.4607 3.10698 65.431C3.12617 65.3851 3.45814 65.5095 4.00872 65.6043C4.55813 65.7014 5.33604 65.7363 6.16743 65.5618C6.99766 65.3834 7.69416 65.0351 8.15637 64.7229C8.62032 64.413 8.87264 64.1642 8.90926 64.1985Z" fill="#263238"/>
<path d="M12.293 71.1282C12.3 71.1596 11.9192 71.2479 11.339 71.4799C10.7588 71.7096 9.98724 72.1107 9.24771 72.7107C8.5105 73.3136 7.96167 73.988 7.61864 74.5096C7.27388 75.0311 7.10994 75.3857 7.08145 75.3723C7.06982 75.3671 7.10179 75.2747 7.16865 75.1101C7.23319 74.9444 7.34889 74.7148 7.50993 74.441C7.83028 73.8927 8.37737 73.1869 9.13318 72.57C9.89073 71.9555 10.6925 71.5625 11.2942 71.3601C11.5948 71.2578 11.8436 71.191 12.0192 71.1613C12.193 71.1282 12.2907 71.116 12.293 71.1282Z" fill="white"/>
<path d="M9.69777 66.3654C9.71115 66.3799 9.45067 66.6444 8.95939 66.9851C8.47044 67.3264 7.73674 67.7258 6.86407 68.0014C5.99024 68.2746 5.16001 68.3665 4.5635 68.3659C3.96583 68.3671 3.60071 68.2991 3.60304 68.2799C3.60536 68.2497 3.97165 68.2717 4.55885 68.238C5.14548 68.2055 5.95418 68.0956 6.80941 67.8281C7.66347 67.5584 8.38965 67.1863 8.88906 66.8776C9.3908 66.5694 9.67859 66.3415 9.69777 66.3654Z" fill="white"/>
<path d="M10.3179 60.1456C10.3069 60.1718 9.92201 60.0201 9.29061 59.8067C8.6598 59.5927 7.77784 59.33 6.78308 59.1259C5.78773 58.9236 4.8732 58.8189 4.20925 58.7683C3.5453 58.7166 3.13135 58.705 3.13135 58.6765C3.13077 58.6544 3.5453 58.6207 4.21622 58.6398C4.88657 58.6584 5.81388 58.7433 6.81911 58.948C7.82376 59.1544 8.70981 59.4398 9.33423 59.6863C9.95922 59.9323 10.3272 60.1259 10.3179 60.1456Z" fill="white"/>
<path d="M11.9794 54.0247C11.952 54.0439 11.7056 53.6869 11.2218 53.1904C10.7404 52.6933 9.99508 52.0788 9.05439 51.598C8.11137 51.1207 7.17534 50.88 6.49046 50.7841C5.80442 50.6852 5.3707 50.6963 5.37012 50.6631C5.36954 50.6509 5.47767 50.6393 5.67418 50.6288C5.87069 50.6149 6.15615 50.623 6.50673 50.6567C7.20731 50.7218 8.17243 50.948 9.13696 51.4364C10.0997 51.9282 10.8509 52.5747 11.316 53.1026C11.5497 53.366 11.7241 53.5922 11.8288 53.759C11.9352 53.9236 11.9893 54.0177 11.9794 54.0247Z" fill="white"/>
<path d="M11.5162 43.6538C11.4795 43.7009 10.7941 42.9469 9.63769 42.5986C8.48712 42.23 7.49526 42.462 7.49177 42.4027C7.46386 42.3661 8.48479 42.0411 9.69176 42.4248C10.9028 42.7928 11.5604 43.6393 11.5162 43.6538Z" fill="white"/>
<g opacity="0.3">
<path d="M13.1408 52.5085C12.5466 50.3719 11.9507 48.2278 11.6437 46.0313C11.3367 43.8348 11.3263 41.5708 11.8937 39.4266C12.7995 43.6284 12.8897 47.9574 12.9763 52.2545C12.9617 52.1312 12.9478 52.008 12.9333 51.8847" fill="black"/>
</g>
<path d="M11.3641 37.3237C11.31 37.3342 11.2112 36.7888 10.8193 36.258C10.4362 35.7202 9.94838 35.4568 9.97571 35.4086C9.98617 35.3632 10.5507 35.5714 10.9664 36.151C11.3885 36.7266 11.4106 37.3278 11.3641 37.3237Z" fill="white"/>
<path d="M11.3748 76.6392L8.89976 112.613C8.89976 112.613 6.98291 127.092 6.98291 131.654C6.98291 136.216 7.63174 153.696 7.63174 153.696H16.5189L25.5828 91.4978C25.5828 91.4978 26.495 90.7158 26.6258 91.4978C26.7561 92.2798 31.9229 114.545 32.4194 118.113C32.8153 120.956 36.1415 152.945 36.1415 152.945L43.8234 152.616C43.8234 152.616 44.5449 123.799 44.0234 114.545L42.6572 82.6944L40.7909 73.6671L15.6771 72.7281L11.3748 76.6392Z" fill="#263238"/>
<path d="M35.2845 89.2461C35.2967 89.3286 31.9624 89.8943 27.838 90.5095C23.7125 91.1246 20.3584 91.556 20.3462 91.4734C20.334 91.3908 23.6677 90.8251 27.7933 90.21C31.9177 89.5949 35.2723 89.1635 35.2845 89.2461Z" fill="#455A64"/>
<path d="M17.2534 115.963C17.2941 116.042 15.7773 116.88 14.0081 118.067C12.2343 119.249 10.8814 120.33 10.8238 120.263C10.7715 120.205 12.0482 119.009 13.8395 117.815C15.6267 116.616 17.2197 115.893 17.2534 115.963Z" fill="#455A64"/>
<path d="M42.2239 115.694C42.2082 115.789 40.6943 115.44 38.8408 115.717C36.9833 115.972 35.6286 116.731 35.5868 116.644C35.5374 116.591 36.8711 115.684 38.7978 115.418C40.7211 115.133 42.2559 115.629 42.2239 115.694Z" fill="#455A64"/>
<path d="M30.7535 27.8138C30.7512 27.8342 30.5151 27.8324 30.0884 27.8057C29.6622 27.7772 29.0448 27.7295 28.2873 27.604C27.5332 27.4749 26.6268 27.2685 25.6995 26.8208C24.7826 26.379 23.8216 25.672 23.2134 24.629C22.5972 23.5947 22.3617 22.4691 22.196 21.4743C22.0408 20.4726 21.946 19.572 21.8175 18.8244C21.5826 17.3226 21.1675 16.4691 21.2169 16.4476C21.2326 16.4395 21.3524 16.6447 21.5233 17.0395C21.6879 17.4366 21.8751 18.0331 22.028 18.7848C22.185 19.536 22.3018 20.4395 22.471 21.4278C22.6495 22.4086 22.8902 23.4958 23.4727 24.4726C24.0454 25.4551 24.9437 26.129 25.8227 26.5702C26.7088 27.015 27.5872 27.2388 28.3262 27.3935C29.8146 27.6784 30.7605 27.7598 30.7535 27.8138Z" fill="#263238"/>
<path d="M26.7068 2.07038L26.926 2.01457C27.5876 0.820971 28.9312 0.0756249 30.294 0.00585787C31.6568 -0.0639092 33.0132 0.494811 34.0358 1.39888C34.7463 2.02678 35.3062 2.80991 36.0195 3.43433C36.7329 4.05875 37.6817 4.52793 38.6096 4.33316C38.723 4.67851 38.0777 4.88316 38.1172 5.24478C38.1364 5.41746 38.3137 5.53025 38.4835 5.56397C38.7329 5.61397 38.9905 5.5506 39.2451 5.55874C39.4998 5.56688 39.7875 5.68432 39.8509 5.93083C39.8817 6.05118 39.8521 6.1785 39.8207 6.29885C39.5375 7.37791 39.0899 8.44418 38.3149 9.2465C37.5399 10.0494 36.3934 10.5511 35.2969 10.3453C34.4213 10.1808 33.6876 9.60639 32.9922 9.04941C31.6713 7.99186 30.3498 6.93373 29.0289 5.87618C28.4196 5.38781 27.8021 4.89246 27.3411 4.26223C26.8789 3.632 26.5835 2.84131 26.7068 2.07038Z" fill="#263238"/>
<path d="M27.5335 2.29017C26.9911 1.8582 26.369 1.5082 25.6882 1.37681C25.008 1.24483 24.2643 1.35064 23.7021 1.75587C23.1789 2.1332 22.8597 2.72098 22.4911 3.25005C22.1225 3.77912 21.6341 4.2954 20.9958 4.38842C20.8836 4.4047 20.7603 4.41167 20.6777 4.48958C20.5324 4.62737 20.6376 4.89539 20.8202 4.97795C21.0027 5.06051 21.2144 5.01748 21.4097 4.97213C21.0946 5.34074 20.6469 5.59364 20.1685 5.67271C20.2731 6.14306 20.8231 6.4605 21.283 6.31515C21.0987 7.0634 20.9132 7.82154 20.9179 8.59246C20.9225 9.36339 21.1365 10.1611 21.6609 10.7262C22.2382 11.3488 23.1766 11.6977 23.4283 12.5081" fill="#263238"/>
<path d="M33.0947 29.4755L22.7808 29.3429L23.9325 20.5616C23.9325 20.5616 23.2279 20.411 23.1808 16.5901C23.1337 12.7698 22.9581 6.27852 22.9581 6.27852C27.3807 4.37795 32.4859 5.01922 36.3005 7.95584L36.8667 8.39188L33.0947 29.4755Z" fill="#FFBE9D"/>
<path d="M35.6684 13.09C35.7335 13.0621 38.2934 12.3138 38.2102 14.9255C38.1271 17.5377 35.5219 16.915 35.5196 16.84C35.5172 16.765 35.6684 13.09 35.6684 13.09Z" fill="#FFBE9D"/>
<path d="M23.401 12.5447C23.3358 12.5162 21.0074 11.8889 21.0911 14.5005C21.1742 17.1127 23.7794 16.49 23.7818 16.415C23.7835 16.34 23.401 12.5447 23.401 12.5447Z" fill="#FFBE9D"/>
<path d="M36.5155 12.7987C36.1254 14.9871 36.2022 16.1377 35.8411 17.5993C35.2696 19.9126 34.1208 21.6865 32.0371 22.8417C29.9534 23.9969 27.1342 23.976 25.3441 22.4033C24.1017 21.3121 23.2214 20.0789 23.0371 18.4353C22.8528 16.7917 22.3685 13.7057 22.3569 12.0522C22.336 9.07026 22.4354 6.39586 22.4354 6.39586L30.9551 4.854L35.8034 7.73655L36.5155 12.7987Z" fill="#263238"/>
<path d="M27.7272 24.1609C27.7144 24.2214 28.3848 24.3877 29.2203 24.2929C30.0563 24.2034 30.6743 23.8952 30.6487 23.8388C30.6243 23.7731 29.9941 23.9708 29.1941 24.0557C28.3953 24.147 27.7371 24.0911 27.7272 24.1609Z" fill="#263238"/>
<path d="M36.104 16.5197C36.3534 14.2767 36.5156 11.7116 36.8662 9.34705C36.9976 8.45985 37.3138 7.1802 37.2348 6.2866C37.1551 5.38952 36.9109 5.66277 36.5156 4.85347C36.0197 3.83836 34.1267 3.1622 33.0191 2.93953C31.9116 2.71685 31.7743 1.7593 30.9249 2.50406C30.3057 1.57674 29.0871 1.09361 28.0005 1.34477C26.9139 1.59593 26.0314 2.56511 25.8819 3.67034C25.2761 3.0936 24.2756 2.98604 23.5604 3.42034C22.8453 3.85464 22.4802 4.79184 22.7122 5.59591C22.1006 5.69765 21.5523 6.12323 21.3029 6.69067C21.0529 7.25811 21.1087 7.94997 21.4465 8.46973C21.8413 9.07729 22.5529 9.41217 22.9883 9.99182C23.4895 10.6593 23.5436 11.6308 23.1192 12.3494" fill="#263238"/>
<path d="M25.1272 16.0529C25.0702 16.0395 24.9516 17.1232 25.4214 18.3488C25.8795 19.5784 26.6859 20.3127 26.7196 20.265C26.7772 20.218 26.0818 19.4424 25.6446 18.2645C25.1934 17.0918 25.2016 16.0499 25.1272 16.0529Z" fill="#455A64"/>
<path d="M23.9824 14.1476C23.9295 14.1202 23.5981 15.0522 23.8162 16.2156C24.022 17.3813 24.6609 18.1365 24.701 18.0923C24.7644 18.0539 24.2441 17.2772 24.051 16.1731C23.8423 15.0714 24.0551 14.1609 23.9824 14.1476Z" fill="#455A64"/>
<path d="M37.2968 11.129C37.2968 11.129 38.7003 11.129 39.0904 11.7918C39.4805 12.4546 38.9736 17.2895 38.4666 17.7185C37.9596 18.1476 35.8154 17.4848 35.8154 17.4848C35.8154 17.4848 36.7125 12.572 36.3614 11.3244L37.2968 11.129Z" fill="#E8505B"/>
<path d="M21.0887 10.7803C21.0887 10.7803 20.0998 11.1099 19.7102 11.7727C19.3207 12.4355 19.78 16.9407 20.287 17.3698C20.7939 17.7988 22.9381 17.1361 22.9381 17.1361C22.9381 17.1361 22.0846 12.0285 22.4352 10.7809L21.0887 10.7803Z" fill="#E8505B"/>
<path d="M21.0889 10.7802C21.0889 10.7802 21.5761 2.34134 29.5691 2.2239C37.562 2.10704 37.7167 11.1924 37.7167 11.1924L36.515 11.2919C36.515 11.2919 36.7806 3.02505 29.9196 2.73087C23.015 2.43436 21.9011 10.4808 22.4348 10.7802H21.0889Z" fill="#E8505B"/>
<path d="M34.7115 5.11802C34.0627 4.09826 33.1767 3.18664 32.054 2.74013C30.9313 2.29362 29.5505 2.38548 28.6313 3.17036" fill="#263238"/>
<path d="M34.4971 10.8995C34.4552 10.889 34.4971 10.5948 34.5808 10.1285C34.6605 9.66284 34.7837 9.02272 34.7785 8.31807C34.7721 7.61517 34.5959 6.99425 34.3878 6.58669C34.1832 6.17506 33.9768 5.96285 34.0105 5.92797C34.0314 5.90065 34.3018 6.06344 34.5738 6.4803C34.8483 6.89076 35.075 7.56169 35.0814 8.31401C35.0872 9.06458 34.9233 9.71923 34.7895 10.1768C34.6512 10.6367 34.5366 10.9093 34.4971 10.8995Z" fill="#455A64"/>
<path d="M32.7354 11.7633C32.6598 11.7215 32.8709 11.2046 33.075 10.5564C33.2831 9.9087 33.4087 9.36452 33.4947 9.3744C33.575 9.38138 33.5819 9.96742 33.3639 10.6482C33.1488 11.329 32.8052 11.804 32.7354 11.7633Z" fill="#455A64"/>
<path d="M24.5531 11.0924C24.527 11.1127 24.2328 10.7959 23.9671 10.1593C23.7008 9.53136 23.5037 8.55462 23.7124 7.50812C23.9223 6.46161 24.4799 5.63603 24.9671 5.15871C25.4572 4.67267 25.8508 4.4936 25.8671 4.52267C25.8961 4.56336 25.5525 4.80348 25.124 5.30406C24.6967 5.79824 24.2049 6.5901 24.0089 7.56742C23.8142 8.54474 23.9636 9.46508 24.1677 10.0854C24.3706 10.7122 24.5956 11.0657 24.5531 11.0924Z" fill="#455A64"/>
<path d="M33.8669 1.37448C33.8436 1.41285 33.5326 1.25064 33.0262 1.02041C32.5216 0.79832 31.7983 0.50704 30.9716 0.516342C30.1413 0.51111 29.4576 0.894827 29.1088 1.30122C28.7477 1.70354 28.6809 2.05936 28.632 2.04541C28.6001 2.04831 28.5878 1.65297 28.9431 1.16576C29.1192 0.928552 29.3844 0.681457 29.7367 0.501806C30.0884 0.319831 30.5187 0.219834 30.9681 0.213439C31.8762 0.204137 32.6326 0.552971 33.1233 0.829132C33.6175 1.11518 33.8867 1.34192 33.8669 1.37448Z" fill="#455A64"/>
<path d="M22.2162 3.79543C22.183 3.78322 22.2446 3.49137 22.5196 3.10416C22.7877 2.72102 23.3051 2.25881 24.0138 2.05242C24.7237 1.84719 25.408 1.96056 25.8394 2.14021C26.2789 2.31986 26.4871 2.53323 26.4656 2.56114C26.44 2.60125 26.1952 2.45881 25.7708 2.34311C25.3516 2.22567 24.7318 2.15939 24.0981 2.34311C23.4644 2.528 22.9772 2.91579 22.6859 3.23904C22.3894 3.56346 22.2598 3.8152 22.2162 3.79543Z" fill="#455A64"/>
<path d="M25.026 13.3959C25.0162 13.3599 25.447 13.2453 26.1348 12.9372C26.8185 12.6296 27.7609 12.1011 28.6563 11.232L29.1504 10.7523L28.8807 11.3884C28.7191 11.7692 28.59 12.1866 28.5115 12.6296C28.469 12.843 28.4353 13.1151 28.5156 13.1511C28.5731 13.2174 28.8074 13.1006 29.0022 12.9634C29.697 12.5163 30.2859 11.9744 30.7551 11.4134L31.2092 10.8703L31.0016 11.5442C30.794 12.218 30.601 12.8453 30.426 13.4139L30.2295 13.2947C31.4266 12.1639 31.8406 11.1546 31.8987 11.193C31.9179 11.2023 31.8336 11.4552 31.6051 11.8732C31.376 12.2889 30.994 12.8697 30.394 13.4663L30.0743 13.7843L30.1975 13.3465C30.3586 12.7738 30.5371 12.1418 30.7283 11.4634L30.9748 11.5942C30.4969 12.1837 29.8882 12.7523 29.1661 13.2174C29.0597 13.2825 28.9627 13.354 28.8278 13.4128C28.7068 13.4651 28.5074 13.518 28.3348 13.3924C28.1679 13.261 28.1609 13.068 28.1661 12.9418C28.176 12.8029 28.1981 12.6965 28.2191 12.5767C28.3057 12.111 28.4475 11.6738 28.6243 11.2773L28.8481 11.4337C27.9051 12.3163 26.915 12.8256 26.1987 13.0936C25.4784 13.3628 25.0307 13.4203 25.026 13.3959Z" fill="#455A64"/>
<path d="M30.0103 3.32275C29.8458 3.00647 29.5289 2.7867 29.1865 2.68728C28.844 2.58787 28.4778 2.59949 28.1266 2.6617C27.2667 2.81519 26.4656 3.27856 25.9039 3.94774C25.776 4.10065 25.6615 4.33669 25.7981 4.48204C25.8702 4.55878 25.9853 4.57332 26.09 4.58204C27.3731 4.68902 28.669 4.64309 29.9417 4.446" fill="#263238"/>
<path d="M21.8631 17.4604C21.7875 17.4819 21.3392 16.0337 21.1235 14.1825C20.9015 12.3319 20.9997 10.8191 21.0782 10.8226C21.1666 10.8232 21.2044 12.3197 21.4241 14.147C21.6369 15.9749 21.9491 17.4389 21.8631 17.4604Z" fill="#263238"/>
<path d="M36.6223 17.6576C36.5839 17.6302 36.7892 17.3134 37.0212 16.761C37.2572 16.211 37.4927 15.4134 37.6066 14.5047C37.7211 13.5954 37.7235 12.7576 37.7334 12.1506C37.7409 11.543 37.7555 11.164 37.7979 11.1622C37.8386 11.1605 37.8996 11.5337 37.9473 12.1442C37.9921 12.7535 38.0246 13.6058 37.9066 14.5436C37.7892 15.4814 37.5095 16.3076 37.2142 16.8529C36.9229 17.4023 36.6508 17.6802 36.6223 17.6576Z" fill="#263238"/>
<path d="M35.8488 27.0098C35.8064 27.0034 35.8511 26.4837 35.9343 25.6465C36.0174 24.8098 36.1337 23.6552 36.2366 22.3773C36.3389 21.0994 36.4087 19.9413 36.4604 19.1017C36.5122 18.2622 36.5505 17.7424 36.5942 17.7424C36.6348 17.7424 36.6715 18.2639 36.675 19.1081C36.6785 19.9517 36.6418 21.118 36.5389 22.4017C36.4354 23.6854 36.2848 24.8418 36.1471 25.6744C36.0081 26.5069 35.8883 27.0156 35.8488 27.0098Z" fill="#263238"/>
<path d="M36.3697 11.4553C36.3342 11.3843 36.9307 11.0773 37.733 11.1221C38.5359 11.1605 39.0976 11.5273 39.0551 11.5942C39.0173 11.6744 38.4481 11.457 37.7173 11.425C36.9877 11.3814 36.3987 11.539 36.3697 11.4553Z" fill="#263238"/>
<path d="M19.5644 11.982C19.5319 11.9651 19.5824 11.7715 19.7621 11.5046C19.9406 11.2419 20.2708 10.9128 20.7301 10.7145C21.1894 10.5145 21.6533 10.4953 21.9679 10.5442C22.2859 10.593 22.4621 10.6878 22.4522 10.7238C22.4376 10.8192 21.6708 10.6302 20.8504 10.9919C20.0272 11.3453 19.6435 12.036 19.5644 11.982Z" fill="#263238"/>
<path d="M43.8585 42.441C43.4649 42.8346 40.5772 57.6654 40.3149 60.5531C40.0522 63.4403 43.6742 75.4531 41.5085 78.3403L40.3027 78.6652H11.1982L13.6715 58.4531L12.4901 41.5224L12.7023 31.0539L21.2837 27.2167H33.8836C33.8836 27.2167 45.0393 33.7789 45.0393 34.6975C45.0393 35.6161 43.8585 42.441 43.8585 42.441Z" fill="#E8505B"/>
<path d="M11.3751 77.2211C11.3646 77.2211 11.3617 77.0903 11.3652 76.8386C11.371 76.5874 11.3972 76.2194 11.435 75.745C11.5129 74.7961 11.657 73.4258 11.8489 71.7299C12.2355 68.3386 12.8251 63.6474 13.5221 58.4323L13.5216 58.4677C13.4977 58.2218 13.4716 57.9573 13.4454 57.6916C12.9297 52.2742 12.603 47.362 12.3268 43.8097C12.1931 42.0603 12.0844 40.6318 12.0059 39.6027C11.9722 39.1306 11.9448 38.7504 11.9239 38.4585C11.9082 38.1963 11.9047 38.0585 11.9152 38.0574C11.9256 38.0562 11.9489 38.1923 11.9844 38.4527C12.0198 38.7434 12.0658 39.1219 12.1227 39.5923C12.2349 40.5829 12.3786 42.0178 12.5402 43.7922C12.871 47.3411 13.2314 52.2515 13.7466 57.6625C13.7727 57.9282 13.7983 58.1922 13.8221 58.4375L13.8239 58.4555L13.8216 58.473C13.1309 63.6706 12.5105 68.3415 12.057 71.7555C11.8454 73.4211 11.6733 74.7781 11.5489 75.7566C11.4977 76.2043 11.4559 76.5641 11.4239 76.8421C11.4018 77.0903 11.385 77.2211 11.3751 77.2211Z" fill="#263238"/>
<path d="M40.9825 79.0828C40.9755 79.0758 41.0627 78.9828 41.2144 78.7938C41.365 78.6043 41.5825 78.3188 41.8075 77.9182C42.0226 77.5159 42.2592 76.9915 42.3185 76.3444C42.3662 75.7031 42.215 74.9491 42.108 74.1217C41.6127 70.8066 40.8249 66.1991 39.929 61.0009L39.9243 60.973L39.9301 60.9445C40.0947 60.116 40.2546 59.2381 40.4069 58.3451C41.3697 52.5335 42.0935 47.2446 42.6476 43.4225C42.9196 41.5353 43.1412 39.9969 43.2999 38.8952C43.3784 38.3847 43.4412 37.976 43.4888 37.6655C43.5354 37.3847 43.5644 37.2382 43.5749 37.2394C43.5853 37.2405 43.5766 37.39 43.5493 37.6731C43.5162 37.9853 43.472 38.3964 43.4168 38.9103C43.2813 40.0155 43.0917 41.5585 42.8598 43.451C42.3598 47.2818 41.6702 52.5742 40.7057 58.3957C40.5528 59.291 40.3918 60.1718 40.2243 61.005L40.2249 60.9491C41.1121 66.1514 41.8638 70.7654 42.3074 74.0938C42.401 74.9264 42.5406 75.677 42.4761 76.3601C42.397 77.038 42.1371 77.57 41.9022 77.9729C41.6575 78.3735 41.4231 78.6514 41.2574 78.831C41.09 79.0101 40.9888 79.0897 40.9825 79.0828Z" fill="#263238"/>
<path d="M36.1979 26.5534C35.9427 26.1481 35.4293 25.8702 34.9758 26.0243C35.2002 25.4749 34.5363 24.9086 33.9444 24.9545C33.3531 25.0005 32.8636 25.4063 32.3694 25.7353C30.1939 27.1836 27.1886 27.2702 24.9334 25.9499C23.941 25.3685 22.9875 24.5115 21.8381 24.5574C20.5625 24.608 19.6358 25.7423 18.8869 26.7766C18.4881 27.3272 18.0707 28.0161 18.3358 28.6423L18.8207 28.5656C19.7236 31.0882 20.7096 33.7341 22.7608 35.4585C25.2747 37.5725 29.1386 37.8004 31.9892 36.1667C34.8392 34.533 36.5781 31.2214 36.513 27.9365C36.5043 27.4574 36.4531 26.9586 36.1979 26.5534Z" fill="#E8505B"/>
<path d="M36.5747 28.8731C36.5845 28.876 36.5689 28.9731 36.5299 29.1557C36.4904 29.3383 36.4258 29.6063 36.3299 29.9481C36.138 30.6307 35.8316 31.6185 35.2752 32.7679C34.7154 33.9051 33.8811 35.233 32.5462 36.3045C31.8863 36.84 31.1055 37.3022 30.2288 37.6161C29.3514 37.9202 28.3677 38.0609 27.384 37.94C26.4009 37.8225 25.4823 37.5045 24.6492 37.1126C23.8166 36.7196 23.048 36.2655 22.3741 35.7464C21.7021 35.2266 21.1352 34.6313 20.7178 33.9964C20.3015 33.3621 20.0114 32.7185 19.7811 32.1249C19.3335 30.9307 19.0649 29.9429 18.8288 29.2772C18.6015 28.6086 18.4498 28.2476 18.4719 28.2377C18.4812 28.2336 18.5294 28.3191 18.6125 28.4865C18.6957 28.654 18.8079 28.9063 18.9387 29.2365C19.2102 29.8929 19.5125 30.8772 19.9794 32.0458C20.2189 32.6266 20.5143 33.2499 20.9247 33.8563C21.3358 34.4609 21.8864 35.0266 22.5433 35.5254C23.2009 36.0231 23.9573 36.4638 24.7736 36.8446C25.5887 37.2237 26.4782 37.5277 27.4177 37.6394C28.3567 37.7545 29.2869 37.6231 30.1299 37.3359C30.9712 37.0382 31.727 36.5993 32.3712 36.0859C33.6723 35.0621 34.5061 33.7807 35.0828 32.6714C35.6549 31.551 35.9904 30.5813 36.2159 29.9127C36.4398 29.2429 36.5526 28.8667 36.5747 28.8731Z" fill="#263238"/>
<g opacity="0.3">
<path d="M33.644 25.3004C33.2225 25.0597 32.8702 25.4033 32.5033 25.7219C31.3103 26.7568 29.3551 27.0097 27.8092 26.8475C26.2818 26.6876 24.9533 26.2434 23.6725 25.2132C23.2946 24.9091 22.8278 24.7016 22.3464 24.6405C21.9272 24.5876 21.4505 24.7475 21.2354 25.0946C21.9051 25.2946 22.3714 25.9411 22.701 26.5748C23.2586 27.6458 23.6394 28.7992 24.14 29.8981C24.6406 30.9969 25.2853 32.0672 26.2446 32.801C27.2039 33.5347 28.5283 33.8777 29.6498 33.4306C30.5946 33.0539 31.2556 32.1969 31.7952 31.3347C32.7021 29.8853 33.4062 28.308 33.8789 26.6649C34.0173 26.1847 34.0777 25.5481 33.644 25.3004Z" fill="black"/>
</g>
<path d="M34.2786 25.8685C34.3001 25.8807 34.1501 26.1505 33.9367 26.661C33.7199 27.1708 33.471 27.9313 33.1803 28.8842C32.8786 29.8232 32.5321 31.0051 31.7018 32.079C31.2943 32.6115 30.7629 33.1144 30.0897 33.4429C29.4222 33.776 28.5897 33.8667 27.8269 33.6429C27.0612 33.426 26.4077 32.9807 25.8897 32.4621C25.367 31.94 24.9862 31.3365 24.6734 30.7505C24.0571 29.5679 23.6775 28.4423 23.2345 27.5598C22.806 26.6697 22.3403 26.0156 21.967 25.611C21.5967 25.2017 21.3409 25.0261 21.3577 25.0034C21.3635 24.9947 21.431 25.0331 21.5548 25.115C21.6757 25.1999 21.8502 25.3319 22.0513 25.529C22.4595 25.9162 22.9653 26.5703 23.4252 27.4627C23.9001 28.3482 24.3042 29.4714 24.9187 30.6179C25.2304 31.1865 25.6025 31.7621 26.0984 32.251C26.5914 32.7394 27.2071 33.1528 27.9077 33.3505C28.6054 33.5539 29.3472 33.4749 29.9623 33.1743C30.5809 32.8766 31.0879 32.4109 31.4821 31.9063C32.2867 30.8923 32.6495 29.7499 32.9769 28.8168C33.2931 27.8743 33.5763 27.1121 33.8292 26.6115C33.9536 26.3604 34.0623 26.1714 34.1425 26.0482C34.2228 25.9249 34.2693 25.8633 34.2786 25.8685Z" fill="#263238"/>
<path d="M34.514 30.2633C34.5302 30.2679 34.493 30.472 34.3692 30.8243C34.2471 31.1772 34.014 31.6725 33.6291 32.2237C32.8826 33.3179 31.3587 34.6318 29.2913 34.9842C27.2204 35.3208 25.3535 34.5702 24.2931 33.7766C23.7506 33.3795 23.3698 32.9865 23.1402 32.6923C22.9088 32.3987 22.8076 32.2179 22.8216 32.2086C22.8698 32.1656 23.3274 32.8725 24.4158 33.601C25.4751 34.3266 27.2745 35.0057 29.2425 34.6859C31.2076 34.3516 32.6901 33.1266 33.4576 32.0975C34.25 31.0557 34.4547 30.2383 34.514 30.2633Z" fill="#263238"/>
<path d="M39.3935 67.5828C39.3941 67.5932 39.3127 67.6066 39.1568 67.6229C39.001 67.6415 38.7702 67.6525 38.4725 67.6595C37.8778 67.6641 37.0109 67.6264 35.9621 67.4258C34.9133 67.2304 33.6865 66.8764 32.3836 66.3362C31.0807 65.7967 29.7069 65.0764 28.3133 64.2502C25.5337 62.5839 23.0941 60.9683 21.3069 59.827C20.4558 59.2671 19.75 58.8031 19.2093 58.4479C18.718 58.1165 18.4511 57.9252 18.4628 57.9078C18.4738 57.8904 18.7622 58.0485 19.2732 58.3491C19.8267 58.6834 20.55 59.12 21.4221 59.6467C23.236 60.7403 25.6988 62.3305 28.4674 63.9903C29.8546 64.8118 31.211 65.5328 32.4924 66.0798C33.7726 66.6269 34.9755 66.9973 36.0045 67.2165C37.0336 67.4409 37.8865 67.5107 38.4749 67.542C39.0644 67.5665 39.3923 67.5578 39.3935 67.5828Z" fill="#263238"/>
<g opacity="0.3">
<path d="M19.7039 58.6038L19.4644 58.659C22.3207 60.3817 25.1777 62.1037 28.0341 63.8264C30.1841 65.1229 32.3934 66.4421 34.8602 66.9072C30.5794 62.9683 25.3283 60.0915 19.7039 58.6038Z" fill="black"/>
</g>
<g opacity="0.3">
<path d="M18.8328 28.6219C18.8526 32.5289 20.9939 36.3614 24.3102 38.4265C25.4915 39.162 26.8578 39.6916 28.2462 39.5957C29.6188 39.5003 30.8997 38.7934 31.8828 37.8306C32.8659 36.8678 33.5781 35.6626 34.1712 34.4207C32.8636 36.1567 30.8252 37.3224 28.6665 37.5701C26.5078 37.8172 24.2584 37.1422 22.5927 35.7463C20.4491 33.9504 19.3939 31.1835 18.6753 28.4812" fill="black"/>
</g>
<g opacity="0.3">
<path d="M23.95 33.5573C25.325 34.8707 27.2145 35.7097 29.111 35.5701C31.0075 35.43 32.85 34.2056 33.4756 32.4097C32.325 33.7515 30.6465 34.6271 28.8878 34.8027C27.1291 34.9783 25.3105 34.4515 23.9175 33.3637" fill="black"/>
</g>
<path d="M19.2593 31.9138C19.2622 31.9399 18.7976 32.0091 18.0476 32.1225C17.2976 32.2353 16.2634 32.3975 15.1262 32.6056C13.9884 32.8149 12.9639 33.0306 12.2227 33.1911C11.4814 33.3515 11.0227 33.4515 11.0157 33.426C11.0122 33.4137 11.1233 33.3731 11.3262 33.3097C11.5291 33.2457 11.825 33.162 12.1924 33.0661C12.9273 32.8731 13.9517 32.6364 15.093 32.4265C16.2343 32.2178 17.2755 32.0754 18.0314 31.9952C18.4093 31.955 18.7157 31.9277 18.9279 31.9155C19.1401 31.9021 19.2581 31.901 19.2593 31.9138Z" fill="white"/>
<path d="M22.6605 27.14C22.6838 27.1952 21.6181 27.3882 20.6954 28.2702C19.7559 29.1353 19.4954 30.1859 19.4419 30.1591C19.4227 30.1551 19.4553 29.8911 19.6187 29.4958C19.7797 29.1016 20.0942 28.5871 20.5716 28.1376C21.0506 27.69 21.5844 27.4092 21.9878 27.2737C22.3919 27.1365 22.6576 27.1208 22.6605 27.14Z" fill="white"/>
<path d="M23.7318 33.0847C23.7574 33.1329 23.2731 33.3981 22.8219 33.887C22.3644 34.3713 22.1336 34.8719 22.0841 34.8504C22.0394 34.8388 22.2057 34.2771 22.6894 33.7632C23.1685 33.2452 23.7173 33.0411 23.7318 33.0847Z" fill="white"/>
<path d="M25.2623 31.6719C25.2751 31.7237 24.8506 31.8527 24.4018 32.1452C23.9495 32.4324 23.6564 32.7649 23.6146 32.7318C23.5745 32.7074 23.8204 32.301 24.3036 31.9923C24.7844 31.6807 25.2564 31.6254 25.2623 31.6719Z" fill="white"/>
<path d="M27.4744 37.5748C27.4465 37.6137 27.0041 37.1329 26.9494 36.3684C26.8855 35.6044 27.2483 35.0614 27.282 35.0951C27.3326 35.1166 27.0692 35.6521 27.1308 36.3544C27.1785 37.0573 27.5215 37.5463 27.4744 37.5748Z" fill="white"/>
<path d="M29.8493 34.619C29.8231 34.6609 29.6086 34.5364 29.5359 34.2609C29.4609 33.9859 29.5841 33.7713 29.6277 33.794C29.6766 33.8114 29.6504 34.0004 29.7109 34.2138C29.7655 34.4289 29.8824 34.5795 29.8493 34.619Z" fill="white"/>
<path d="M32.6925 35.4486C32.6477 35.4242 32.864 35.0521 32.7454 34.5719C32.643 34.0876 32.2861 33.8469 32.3157 33.805C32.3256 33.7858 32.4361 33.8149 32.5738 33.9317C32.7111 34.0469 32.8599 34.2608 32.9227 34.5312C32.9843 34.8015 32.943 35.0591 32.8698 35.2224C32.7965 35.3876 32.7099 35.4614 32.6925 35.4486Z" fill="white"/>
<path d="M33.9586 31.6731C33.9138 31.6818 33.8476 31.2522 33.4028 31.0417C32.9685 30.8109 32.5842 31.0144 32.5644 30.9731C32.5516 30.9574 32.6249 30.8667 32.7981 30.8092C32.9691 30.7499 33.2359 30.7551 33.4842 30.8795C33.7318 31.0039 33.8958 31.2156 33.9499 31.3877C34.0074 31.5609 33.9789 31.6737 33.9586 31.6731Z" fill="white"/>
<path d="M35.8231 30.0243C35.7917 30.0243 35.7859 29.8394 35.694 29.5691C35.6045 29.2987 35.4027 28.9493 35.0743 28.6645C34.7434 28.3813 34.3678 28.2342 34.087 28.186C33.8056 28.1354 33.6219 28.1569 33.6173 28.1261C33.6126 28.1081 33.7946 28.0383 34.1033 28.0581C34.4097 28.0755 34.833 28.2174 35.1928 28.5261C35.5516 28.836 35.7551 29.233 35.8178 29.5336C35.8835 29.836 35.8411 30.0261 35.8231 30.0243Z" fill="white"/>
<path d="M42.6799 39.5358C42.6799 39.5422 42.5735 39.5446 42.3718 39.544C42.1357 39.5411 41.8445 39.537 41.4904 39.5324C40.6805 39.5172 39.584 39.4969 38.2491 39.4725C35.5125 39.4236 31.7312 39.3795 27.5556 39.3969C23.3783 39.4155 19.5975 39.4922 16.8609 39.5637C15.526 39.5998 14.4301 39.6294 13.6202 39.6515C13.2661 39.6591 12.9748 39.6655 12.7388 39.6707C12.5371 39.6731 12.4312 39.6713 12.4307 39.6649C12.4307 39.6585 12.5359 39.6481 12.7371 39.6341C12.9725 39.6201 13.2632 39.6021 13.6173 39.5812C14.4266 39.5446 15.5225 39.4957 16.8562 39.4358C19.5923 39.3312 23.3748 39.2341 27.5544 39.2155C31.7323 39.1981 35.5154 39.2632 38.252 39.3446C39.5869 39.3928 40.6828 39.4329 41.4927 39.462C41.8468 39.48 42.1375 39.4951 42.3735 39.5074C42.5741 39.5196 42.6799 39.5295 42.6799 39.5358Z" fill="white"/>
<path d="M42.0945 32.9684C42.0887 32.994 41.7469 32.9353 41.1963 32.84C40.6457 32.7446 39.8852 32.6173 39.0411 32.5027C38.1969 32.3894 37.4294 32.3103 36.8736 32.2568C36.3172 32.2027 35.9725 32.169 35.9736 32.1429C35.9748 32.119 36.3219 32.1074 36.8823 32.1283C37.4428 32.1493 38.2166 32.2086 39.0655 32.3225C39.9143 32.437 40.6759 32.5853 41.2219 32.7138C41.7678 32.8417 42.0998 32.9452 42.0945 32.9684Z" fill="white"/>
<path d="M41.6253 47.9463C41.6258 47.9526 41.527 47.9637 41.3381 47.9794C41.1142 47.9957 40.8421 48.0149 40.5131 48.0387C39.7962 48.0875 38.7584 48.1445 37.4753 48.2044C34.9096 48.3241 31.3614 48.4335 27.4416 48.448C23.5207 48.4614 19.9719 48.3771 17.405 48.2759C16.1219 48.2259 15.0836 48.1759 14.3667 48.1323C14.0376 48.1108 13.7649 48.0933 13.5411 48.0788C13.3527 48.0643 13.2533 48.0538 13.2539 48.048C13.2539 48.0416 13.3539 48.0399 13.5428 48.0422C13.7667 48.0474 14.0394 48.0538 14.3696 48.0614C15.1341 48.0829 16.1609 48.1119 17.4091 48.1474C19.976 48.2154 23.5224 48.2794 27.441 48.266C31.3579 48.2515 34.9038 48.1619 37.47 48.0753C38.7177 48.0311 39.745 47.9945 40.509 47.9678C40.8386 47.9579 41.1119 47.9492 41.3357 47.9428C41.5253 47.9393 41.6253 47.9404 41.6253 47.9463Z" fill="white"/>
<path d="M40.6834 57.0242C40.6834 57.0305 40.591 57.0393 40.4136 57.0497C40.2009 57.0602 39.9456 57.0724 39.6386 57.0875C38.9654 57.1172 37.9916 57.148 36.7875 57.1771C34.3794 57.2346 31.0515 57.2683 27.3759 57.2189C23.6992 57.1683 20.3731 57.0445 17.9672 56.9212C16.7643 56.8602 15.7917 56.8026 15.1196 56.7544C14.8132 56.7311 14.5585 56.7119 14.3463 56.6957C14.1696 56.68 14.0771 56.6689 14.0771 56.6631C14.0777 56.6567 14.1708 56.6555 14.3481 56.659C14.5609 56.666 14.8161 56.6736 15.1231 56.6835C15.8452 56.7108 16.8068 56.748 17.9725 56.7928C20.3789 56.8829 23.7033 56.9864 27.3777 57.0369C31.0509 57.0864 34.377 57.0736 36.7846 57.0486C37.9514 57.0358 38.9136 57.0253 39.6363 57.0172C39.9433 57.016 40.1991 57.0148 40.4119 57.0137C40.5898 57.0143 40.6828 57.0178 40.6834 57.0242Z" fill="white"/>
<path d="M26.4384 63.5544C26.439 63.5666 26.2506 63.5893 25.9088 63.6195C25.5669 63.6503 25.071 63.6834 24.4582 63.7143C23.232 63.7765 21.535 63.8154 19.6617 63.7718C17.7879 63.7265 16.0943 63.6067 14.8728 63.4858C14.2617 63.4259 13.7681 63.3689 13.428 63.3218C13.0879 63.2753 12.9007 63.2439 12.9019 63.2317C12.903 63.2195 13.0932 63.2271 13.435 63.2515C13.8472 63.2817 14.328 63.3172 14.8833 63.3579C16.1059 63.4457 17.796 63.5451 19.6658 63.5898C21.535 63.634 23.228 63.6154 24.453 63.5858C25.0094 63.5718 25.4913 63.559 25.9047 63.5486C26.2472 63.5404 26.4373 63.5416 26.4384 63.5544Z" fill="white"/>
<path d="M40.8038 64.302C40.8055 64.3142 40.6573 64.3491 40.3869 64.4014C40.1166 64.4543 39.7236 64.52 39.2364 64.5921C38.2625 64.7363 36.9096 64.8921 35.409 64.9851C33.9085 65.0764 32.5463 65.0875 31.562 65.063C31.0695 65.0514 30.6719 65.0345 30.3969 65.0148C30.1219 64.9962 29.9707 64.9799 29.9707 64.9671C29.9713 64.9543 30.1236 64.9468 30.3986 64.9438C30.7463 64.9409 31.1317 64.938 31.5626 64.9345C32.5451 64.9258 33.9015 64.895 35.3974 64.8037C36.8928 64.7113 38.2433 64.5764 39.2195 64.4648C39.6474 64.4154 40.03 64.3718 40.3759 64.3316C40.6491 64.3008 40.8015 64.2898 40.8038 64.302Z" fill="white"/>
<path d="M41.4957 73.1153C41.4963 73.1217 41.3957 73.1362 41.2032 73.1589C40.9759 73.1833 40.698 73.2124 40.3608 73.2484C39.6294 73.3251 38.5684 73.4118 37.2556 73.4955C34.6306 73.6653 30.9934 73.7786 26.9795 73.6536C22.9644 73.5246 19.3412 73.1815 16.7324 72.8461C15.4278 72.6792 14.3743 72.5263 13.6487 72.4031C13.3144 72.3461 13.0389 72.299 12.8139 72.2606C12.6232 72.2263 12.5237 72.2048 12.5249 72.199C12.5261 72.1926 12.6272 72.2019 12.8197 72.2246C13.0458 72.2536 13.3232 72.2897 13.6592 72.3333C14.3871 72.4345 15.4423 72.5682 16.7476 72.7188C19.358 73.0211 22.9766 73.3432 26.9853 73.4722C30.9928 73.5967 34.6242 73.5042 37.248 73.3676C38.5602 73.3002 39.6218 73.2333 40.355 73.1781C40.6928 73.156 40.9718 73.1374 41.1998 73.1228C41.3934 73.1118 41.4951 73.1095 41.4957 73.1153Z" fill="white"/>
</svg>
