<svg width="225" height="171" viewBox="0 0 225 171" fill="none" xmlns="http://www.w3.org/2000/svg">
<path d="M222.418 170.803H2.46655C1.10427 170.803 0 169.699 0 168.336C0 166.974 1.10427 165.87 2.46655 165.87H222.418C223.78 165.87 224.884 166.974 224.884 168.336C224.885 169.699 223.78 170.803 222.418 170.803Z" fill="#FAA95D"/>
<path d="M191.193 77.0417C191.193 77.0417 202.611 73.8201 206.012 74.9358L201.512 88.2877L187.947 85.9689L191.193 77.0417Z" fill="#8B2544"/>
<path d="M192.328 116.948H190.714V165.871H192.328V116.948Z" fill="#40264F"/>
<path d="M58.2393 59.8727C50.8128 59.9333 43.3825 59.3634 36.0345 58.1626H36.0344C31.3755 57.4011 27.2406 61.1249 27.6983 65.6697L35.5689 112.7L58.2394 109.174V59.8727H58.2393Z" fill="#B9324A"/>
<path d="M92.186 105.195L42.0229 104.395L37.6601 65.6696C37.2416 61.1247 42.6571 58.3951 45.284 58.1624C58.1307 57.0239 70.962 60.4491 83.6714 58.2107L84.8282 58.0071C88.8464 57.2994 92.4974 60.592 92.4672 64.8965L92.186 105.195Z" fill="#8B2544"/>
<path d="M71.5427 17.644C70.2122 12.2395 66.7293 7.38247 61.2297 5.71683C54.6695 3.73024 47.2392 5.4294 43.181 10.9744C41.9064 12.716 41.3296 14.6626 41.4024 16.7441C41.4614 18.4241 41.7822 20.9491 40.4699 22.2631C38.2896 24.4464 35.2997 25.2822 33.2794 27.6863C24.8703 37.693 33.5847 50.5169 44.3844 53.528C52.9372 55.9128 62.6494 53.3685 67.2394 45.4184C69.661 41.2241 71.0732 36.5469 71.797 31.8111C72.534 26.9889 72.7179 22.4183 71.5427 17.644Z" fill="#40264F"/>
<path d="M101.134 98.566C101.134 98.566 100.189 97.8135 99.8937 97.5392C99.5478 97.2174 98.5862 96.1735 98.5862 96.1735C98.5862 96.1735 95.4071 92.3806 95.7066 92.1679C96.0062 91.9554 96.9147 92.3022 97.193 92.4672C97.4711 92.6324 97.8126 92.7992 98.0909 92.9644C98.3691 93.1296 98.722 93.0593 98.952 92.7276C99.182 92.396 98.2157 91.496 97.8198 91.2518C96.5856 90.4898 92.8773 89.1181 92.491 88.9558C92.0343 88.7642 87.7317 81.1697 86.0505 78.6849C86.0512 78.6847 86.0515 78.6844 86.0518 78.6842C83.4213 74.5348 81.6305 71.1475 81.3542 70.7065L74.9888 49.4325L66.7544 48.6177C66.7544 48.6177 73.8144 72.8344 74.2418 73.9293C74.445 74.4503 80.1923 81.9557 80.1962 81.9533C83.8486 86.2437 87.0779 90.0152 87.6776 90.7577C87.6776 90.7577 88.8748 93.4593 89.5353 95.2247C90.1959 96.9899 91.5133 98.3493 91.7751 98.8167C91.8138 98.8857 92.6274 100.544 94.3029 102.073C95.7468 103.391 94.9798 101.467 94.9798 101.467C94.9798 101.467 92.7422 98.536 93.0028 98.3955C93.2036 98.2873 94.3314 99.9615 95.9138 101.436C96.3206 101.816 96.7236 102.189 97.0964 102.528C98.075 103.419 98.9007 103.062 98.0247 101.963C97.7155 101.575 97.1861 100.943 96.7451 100.547C96.2687 100.12 95.9691 99.5703 95.6235 99.1485C94.9375 98.3112 94.4269 97.7096 94.4767 97.6995C94.5414 97.6864 94.5221 97.4223 94.9665 97.811C95.5009 98.2787 96.4163 99.5278 97.2552 100.153C97.7307 100.508 98.6796 101.311 98.6796 101.311C98.6796 101.311 100.36 102.442 100.448 102.361C100.923 101.928 99.9519 100.77 99.2425 100.374C98.9211 99.8863 97.899 99.0703 97.899 99.0703C97.899 99.0703 96.2019 96.9484 96.4977 96.6986C96.7402 96.4932 101.781 100.775 102.228 100.305C102.592 99.9228 101.134 98.566 101.134 98.566Z" fill="#F7A491"/>
<path d="M92.0791 92.5394C92.0791 92.5394 94.6095 93.502 95.6736 92.2008C95.6736 92.2008 95.3528 93.1675 94.3336 93.3446C93.3143 93.5221 92.0791 92.5394 92.0791 92.5394Z" fill="#F47458"/>
<path d="M70.2014 66.5598C70.2014 66.5598 78.2953 64.2076 79.4621 63.1519C79.4621 63.1519 75.5375 40.8893 69.6823 37.7291C69.4504 37.6039 68.8245 37.3297 68.5918 37.2568C64.1449 35.8628 70.2014 66.5598 70.2014 66.5598Z" fill="#78759E"/>
<path d="M61.8695 36.4045C61.8695 36.4045 49.3488 36.5529 46.4595 38.9236C43.57 41.2943 35.2354 61.0118 35.2354 61.0118L44.2377 65.3035C44.2377 65.3035 49.5154 54.9631 49.8303 55.2594C50.4139 55.8087 51.9047 65.5204 52.4604 69.0767C53.016 72.6329 51.2751 82.6345 51.2751 82.6345C51.2751 82.6345 66.2405 85.2644 72.3527 81.7084C72.3527 81.7084 72.2415 61.2605 73.3529 57.5933C74.4642 53.926 75.1309 51.7034 73.6862 48.0361C72.2415 44.3688 71.1132 39.3211 68.9076 37.4232C68.1112 36.738 61.8695 36.4045 61.8695 36.4045Z" fill="#A7A4BC"/>
<path d="M57.396 27.0866C57.396 27.0866 58.0395 33.1992 57.654 35.5646C57.2684 37.93 57.7548 45.6771 62.397 46.0347C67.0393 46.3921 64.4548 38.1745 64.1843 35.8102C63.9139 33.4459 63.8487 24.3843 63.8487 24.3843L57.396 27.0866Z" fill="#F7A491"/>
<path d="M63.8805 27.8398C63.9495 25.859 63.8487 24.3842 63.8487 24.3842L57.396 27.0866C57.396 27.0866 57.5275 28.3365 57.6361 29.9248C60.3196 30.7143 62.5682 29.5858 63.8805 27.8398Z" fill="#F48C75"/>
<path d="M58.518 9.54374C58.518 9.54374 55.8331 10.308 54.2016 13.1109C52.5699 15.9138 51.5187 24.0117 57.0347 27.546C62.5507 31.0802 66.7493 25.59 66.7622 20.402C66.7754 15.2141 65.6682 8.33652 58.518 9.54374Z" fill="#F7A491"/>
<path d="M67.9975 18.7282C67.5444 19.9985 66.6264 20.8128 65.9471 20.547C65.2679 20.2814 65.0846 19.0363 65.5379 17.766C65.9911 16.4958 66.909 15.6814 67.5882 15.9471C68.2675 16.2127 68.4507 17.4578 67.9975 18.7282Z" fill="#F7A491"/>
<path d="M54.1944 20.3216C54.6062 21.6533 54.2578 22.9952 53.416 23.3191C52.5743 23.6429 51.558 22.8259 51.1462 21.4943C50.7343 20.1626 51.0828 18.8207 51.9246 18.4968C52.7662 18.1732 53.7825 18.99 54.1944 20.3216Z" fill="#F7A491"/>
<path d="M113.207 165.867L97.3931 116.585L100.547 115.264L116.891 165.868L113.207 165.867Z" fill="#40264F"/>
<path d="M31.2383 165.868L48.4854 112.5L51.6385 113.822L35.4838 165.868H31.2383Z" fill="#40264F"/>
<path d="M42.6366 103.459L87.4752 104.204C91.3532 104.204 94.8206 106.561 94.8206 110.893V113.189C94.8206 117.52 91.677 121.031 87.7991 121.031H42.5381C38.6603 121.031 35.5166 117.52 35.5166 113.189V110.893C35.5166 106.561 38.7587 103.459 42.6366 103.459Z" fill="#B9324A"/>
<path d="M41.7363 165.862L58.9446 114.561L62.0977 115.835L45.4593 165.862H41.7363Z" fill="#40264F"/>
<path d="M120.372 165.871L104 115.52L107.154 114.21L123.952 165.871H120.372Z" fill="#40264F"/>
<path d="M55.6737 103.062C55.6737 103.062 75.341 103.966 81.9472 103.971C88.8044 103.978 107.492 101.681 107.492 101.681C112.101 101.681 117.805 106.573 117.805 110.904V113.201C117.805 117.532 114.069 121.043 109.461 121.043H55.6738C51.0655 121.043 47.3296 117.532 47.3296 113.201V110.904C47.3294 106.573 51.0653 103.062 55.6737 103.062Z" fill="#8B2544"/>
<path d="M94.1986 98.6254C93.2461 96.3536 91.1197 95.0845 91.1197 95.0845C87.2642 93.0357 79.921 90.4894 79.4619 92.4224C83.6741 96.5695 88.9665 98.9997 89.5064 98.9997C90.0465 98.9997 94.1986 98.6254 94.1986 98.6254Z" fill="#78759E"/>
<path d="M87.9482 115.677C90.1707 112.417 96.1563 105.336 94.9761 100.44C93.7963 95.5433 87.7277 95.2701 84.4749 97.2726C82.5673 98.447 66.7383 138.77 65.463 140.663C65.1041 141.195 62.5288 140.477 62.0735 141.663C60.9111 144.69 61.8047 150.765 61.7112 152.544C61.5812 155.019 61.4612 160.296 62.0921 160.722C62.7232 161.147 64.0228 158.283 64.6877 155.575C65.3527 152.866 65.5782 148.937 66.9633 147.442C68.3482 145.947 83.5089 122.188 87.9482 115.677Z" fill="#F48C7F"/>
<path d="M64.9069 145.09C65.4999 143.353 65.7272 141.682 65.4625 140.7C64.6186 140.841 62.4427 140.701 62.073 141.663C60.9106 144.69 61.8042 150.765 61.7107 152.544C61.5807 155.019 61.4607 160.296 62.0916 160.722C62.7227 161.147 64.0223 158.283 64.6872 155.575C64.9352 154.564 65.1221 153.384 65.3308 152.224C64.8376 150.307 64.2174 147.109 64.9069 145.09Z" fill="#8B2544"/>
<path d="M86.3085 94.2717C84.7814 92.2008 77.3426 90.9978 76.687 90.9321C75.5812 90.821 70.9627 90.2666 66.4397 89.9553C64.7283 90.2299 62.7558 90.7944 61.3055 91.939C58.1383 94.4383 49.638 102.44 55.8047 103.94C56.6148 104.137 57.8506 104.269 59.3852 104.349L59.6597 104.362L70.7971 104.823C68.7946 113.382 66.4575 152.95 63.5736 156.721C61.7118 159.156 62.1918 162.248 62.7686 164.139H68.8488C69.4028 162.301 70.1404 159.131 70.1404 155.28C70.1404 150.402 82.7931 119.932 86.3183 103.527C87.2518 99.1874 87.523 95.9189 86.3085 94.2717Z" fill="#F7A491"/>
<path d="M66.5371 162.796C65.4308 162.695 64.3247 158.909 63.728 156.487C63.6763 156.576 63.6249 156.654 63.5737 156.721C60.6843 160.499 63.4364 165.868 63.4364 165.868H68.2489C68.2489 165.868 69.6912 162.497 70.0571 157.527C69.3766 159.253 67.7836 162.909 66.5371 162.796Z" fill="#B9324A"/>
<path d="M91.1194 95.0845C91.1194 95.0845 82.9107 90.7555 77.5446 93.8424C72.682 96.6395 70.7967 104.823 70.7967 104.823C70.7967 104.823 53.2752 105.675 51.2007 103.305C49.1264 100.934 45.3905 98.1667 46.9463 93.1288C48.5021 88.0909 52.0954 80.0896 52.0954 80.0896L61.647 81.7457L72.9637 81.7502C72.9637 81.7502 74.1513 86.1557 75.6494 87.5983C77.6496 89.5247 85.888 91.1694 91.1194 95.0845Z" fill="#A7A4BC"/>
<path d="M73.6674 79.5063V87.1508C73.6674 88.9069 72.244 90.3303 70.4879 90.3303H67.7629C66.0069 90.3303 64.5835 88.9069 64.5835 87.1508V78.5365H73.6674V79.5063Z" fill="#FFFBF0"/>
<path d="M63.3573 87.7286H64.8658V86.4356H63.3573C62.6443 86.4356 62.0645 85.8557 62.0645 85.1428V83.8496C62.0645 83.1367 62.6444 82.5569 63.3573 82.5569H65.2967V81.2638H63.3573C61.9314 81.2638 60.7715 82.4238 60.7715 83.8496V85.1428C60.7716 86.5689 61.9314 87.7286 63.3573 87.7286Z" fill="#FFFBF0"/>
<path d="M66.9353 84.0698C66.7176 84.2333 64.2682 85.1534 64.2682 85.1534C64.2682 85.1534 62.2978 85.3845 61.6889 85.3511C61.6889 85.3511 61.3188 85.5035 62.0267 85.6457C62.309 85.7046 63.3703 85.6902 63.3703 85.6902C63.3703 85.6902 66.1851 85.0413 66.5931 85.8568C66.7176 86.1015 63.2592 86.7093 63.2592 86.7093C63.2592 86.7093 60.7666 86.5082 60.0542 86.4871C58.7273 86.4537 57.3871 85.7091 52.6008 83.4966C52.0918 83.2378 33.7421 72.2993 33.5687 71.0034C33.4519 70.1255 34.0505 66.5669 35.9019 61.3295C38.521 62.5095 41.1114 63.7453 43.6743 65.0349C42.5401 67.6074 42.1923 68.4631 42.348 68.9842C42.407 69.1799 50.097 75.3119 54.2433 78.6046C55.7746 79.8226 56.8227 80.6526 56.8227 80.6526L60.7588 80.3936C60.7588 80.3936 63.467 80.3382 64.0739 81.7451C64.3329 82.3474 62.8882 81.7272 62.5647 81.7172C62.2559 81.7083 61.9491 81.6917 61.6846 81.8662C62.4337 82.2217 62.8248 82.2852 63.6484 82.3195C65.4698 82.3852 66.3455 82.4197 66.5745 82.6808C66.8411 82.9854 65.6377 83.422 63.685 83.5421C62.885 83.5855 62.1449 83.3465 61.7959 83.4121C61.6237 83.4477 61.6503 83.5579 61.8182 83.6777C62.1094 83.8901 62.8327 84.1356 63.6807 84.0845C64.4419 84.0356 65.7688 83.6165 66.6068 83.4966C67.9821 83.301 67.121 83.9309 66.9353 84.0698Z" fill="#F8A492"/>
<path d="M161.979 132.338C161.979 132.338 168.643 137.749 169.687 138.793C170.731 139.838 161.979 148.097 161.979 148.097C161.979 148.097 162.873 139.687 161.979 138.793C161.085 137.9 156.012 137.275 156.012 137.275L161.979 132.338Z" fill="#9E382D"/>
<path d="M165.695 134.116C165.695 134.116 172.862 137.91 172.862 139.418C172.862 140.926 163.057 153.433 161.767 154.145C159.925 155.163 153.567 155.685 152.519 154.636C151.47 153.587 154.369 151.37 156.012 149.727C157.655 148.084 158.994 145.604 158.994 144.033C158.994 142.462 155.925 138.211 158.994 138.211C162.062 138.211 165.695 134.116 165.695 134.116Z" fill="#EA7708"/>
<path d="M167.183 144.585L169.26 148.693C170.216 150.584 171.777 152.101 173.694 153.002L168.882 160.837C168.882 160.837 162.083 165.35 159.503 164.306C156.923 163.263 164.98 159.437 164.98 159.437L161.571 148.251L167.183 144.585Z" fill="#9E382D"/>
<path d="M119.814 41.8997C119.814 41.8997 118.53 46.023 119.814 47.3066C121.098 48.5904 123.232 49.9093 123.232 51.4106C123.232 52.9119 122.286 72.2943 126.716 73.2435C131.147 74.1928 147.028 57.8799 147.028 57.8799L140.573 50.0006C140.573 50.0006 130.383 62.1518 130.383 60.886C130.383 59.6203 126.269 49.8738 126.269 49.8738L128.295 45.8235C128.295 45.8235 129.56 41.0137 127.155 40.0011C124.751 38.9886 119.814 41.8997 119.814 41.8997Z" fill="#9E382D"/>
<path d="M126.686 69.3051C123.56 67.5727 123.529 54.9649 123.232 51.459C123.214 53.2828 122.329 72.3036 126.717 73.2438C131.147 74.193 147.028 57.8801 147.028 57.8801L144.05 54.2452C139.987 59.1002 129.639 70.9409 126.686 69.3051Z" fill="#822A21"/>
<path d="M123.021 50.5717C123.096 50.7264 123.154 50.8828 123.19 51.0413C123.144 50.6758 123.091 50.5017 123.021 50.5717Z" fill="#FF5921"/>
<path d="M156.866 35.6262C156.866 35.6262 155.427 34.7799 152.186 36.1723C148.945 37.5648 138.041 50.8869 138.041 50.8869L147.453 58.9876C147.453 58.9876 151.838 53.9793 156.141 47.3068C160.445 40.6341 156.866 35.6262 156.866 35.6262Z" fill="#EA7708"/>
<path d="M173.755 85.4417L171.11 87.0315C171.11 87.0315 121.776 96.074 119.814 104.048C117.852 112.023 158.262 138.793 158.262 138.793L165.888 132.718C165.888 132.718 140.209 115.013 143.104 112.117C146 109.222 180.128 102.719 180.128 102.719L173.755 85.4417Z" fill="#78759E"/>
<path d="M53.2666 76.3651H50.6084V165.071H53.2666V76.3651Z" fill="#40264F"/>
<path d="M135.985 76.3651H133.327V165.871H135.985V76.3651Z" fill="#40264F"/>
<path d="M180.128 86.9436C180.128 86.9436 156.754 93.5287 139.117 100.173C121.48 106.817 161.141 150.755 161.141 150.755L169.495 146.957C169.495 146.957 150.383 113.474 153.326 110.531C156.268 107.588 185.254 100.061 185.254 100.061L180.128 86.9436Z" fill="#A7A4BC"/>
<path d="M153.326 116.622H151.711V165.871H153.326V116.622Z" fill="#40264F"/>
<path d="M192.328 115.44H151.711V118.866H192.328V115.44Z" fill="#40264F"/>
<path d="M152.186 36.1722C152.186 36.1722 150.192 45.3174 150.952 52.0258C151.545 57.2713 163.72 76.0699 169.002 84.0202C170.539 86.3349 172.849 88.0252 175.52 88.7936L193.228 93.8894L196.519 96.2007C196.519 96.2007 197.025 90.125 195.633 79.7459C194.241 69.3668 171.457 31.394 166.267 31.394C161.078 31.394 152.186 36.1722 152.186 36.1722Z" fill="#FAA95D"/>
<path d="M154.259 40.9672C154.307 40.9672 154.356 40.9651 154.406 40.961C162.898 40.2359 165.883 32.4667 166.006 32.1367L166.201 31.6111L166.075 31.3964C160.861 31.5107 152.186 36.1721 152.186 36.1721C152.186 36.1721 152.107 36.5359 151.986 37.1715C152.194 39.026 152.595 40.9672 154.259 40.9672Z" fill="#FFFBF0"/>
<path opacity="0.3" d="M171.233 35.7596L165.695 34.8547C165.695 34.8547 158.661 52.7724 155.201 61.7629C156.329 63.8074 157.604 65.9958 158.933 68.2018C159.452 66.844 160.118 65.4672 160.883 64.7018C162.749 62.8365 164.86 63.8674 165.694 63.0328C166.529 62.1982 173.694 51.251 173.694 44.4682C173.694 37.6858 171.233 35.7596 171.233 35.7596Z" fill="#EA7708"/>
<path d="M151.711 113.921C151.711 113.921 156.142 104.555 167.787 94.9348C179.432 85.3152 206.013 74.9358 206.013 74.9358C206.013 74.9358 207.152 110.757 192.469 115.44H151.712V113.921H151.711Z" fill="#B9324A"/>
<path d="M191.033 110.889H153.447C152.251 112.781 151.711 113.921 151.711 113.921V115.44H192.469C203.971 111.771 205.764 88.9933 206 79.2976C203.792 93.5023 199.466 107.415 191.033 110.889Z" fill="#8B2544"/>
<path d="M155.463 15.6935L164.902 31.7258C164.902 31.7258 162.152 39.117 154.305 39.7872C153.109 39.8893 153.173 36.0405 152.897 34.8714L150.584 25.0634L155.463 15.6935Z" fill="#B84134"/>
<path d="M155.463 15.6935L150.584 25.0635L151.558 29.1935C153.843 25.4934 155.664 19.6824 156.025 16.6486L155.463 15.6935Z" fill="#822A21"/>
<path d="M151.618 5.61223C151.618 5.61223 155.463 12.3679 155.463 15.6936C155.463 19.0196 150.578 28.6851 146.525 27.3339C142.472 25.9828 140.913 14.1346 140.913 8.62634C140.913 3.11779 149.019 1.97465 151.618 5.61223Z" fill="#B84134"/>
<path d="M151.41 0C151.41 0 154.528 0.103948 154.528 2.59825C154.528 5.09269 157.645 3.53365 158.269 6.54777C158.893 9.56174 156.453 17.3759 156.453 17.3759C156.453 17.3759 153.488 15.1741 151.41 13.0955C149.331 11.0168 149.227 7.84695 148.188 7.84695C147.148 7.84695 144.342 8.21073 140.913 11.6404C137.483 15.0702 131.247 12.16 133.533 7.06745C135.82 1.97478 139.665 2.70245 144.135 2.18278C148.603 1.66282 151.41 0 151.41 0Z" fill="#4C081C"/>
<path d="M151.416 14.3007C151.416 14.3007 150.974 11.4656 152.152 11.4656C153.33 11.4656 154.54 15.1915 153.513 16.2194C152.485 17.2473 151.416 14.3007 151.416 14.3007Z" fill="#B84134"/>
<path d="M134.395 39.2102V45.9459C134.395 47.4931 133.141 48.7474 131.594 48.7474H129.193C127.646 48.7474 126.391 47.4931 126.391 45.9459V38.3557H134.395V39.2102Z" fill="#FFFBF0"/>
<path d="M125.298 45.4755H126.627V44.3365H125.298C124.67 44.3365 124.159 43.8252 124.159 43.1973V42.0581C124.159 41.4298 124.67 40.9189 125.298 40.9189H127.007V39.7797H125.298C124.042 39.7797 123.02 40.8018 123.02 42.0581V43.1973C123.02 44.4536 124.042 45.4755 125.298 45.4755Z" fill="#FFFBF0"/>
<path d="M151.711 113.921C154.822 105.019 162.962 96.1987 170.707 90.6181C179.082 84.5194 195.679 77.471 206.013 74.936C182.331 88.152 171.072 91.6127 157.021 107.28C155.138 109.377 153.351 111.57 151.711 113.921Z" fill="white"/>
<path d="M119.814 41.8997C119.814 41.8997 126.279 40.8405 127.338 41.8997C128.398 42.9589 122.167 43.8218 122.167 43.8218L119.814 41.8997Z" fill="#9E382D"/>
<path d="M121.055 45.4755C121.055 45.4755 126.27 45.052 126.389 43.9528C126.509 42.8535 121.578 43.5514 121.578 43.5514L121.055 45.4755Z" fill="#9E382D"/>
<path d="M122.642 41.4289C122.642 41.4289 124.986 41.534 126.391 40.9188C127.797 40.3037 123.723 40.1731 123.723 40.1731L122.642 41.4289Z" fill="#9E382D"/>
<path d="M169.077 148.185C169.077 148.185 175.363 151.512 175.363 152.835C175.363 154.158 166.833 165.277 165.632 165.752C165.15 165.943 156.338 165.793 156.012 165.466C155.092 164.546 159.143 163.318 160.584 161.877C162.025 160.436 163.199 158.261 163.199 156.883C163.199 155.505 160.508 151.776 163.199 151.776C165.89 151.776 169.077 148.185 169.077 148.185Z" fill="#EA7708"/>
<path d="M157.539 76.3652H29.0537C29.0537 74.9597 30.7716 73.8202 32.891 73.8202H153.703C155.822 73.8202 157.539 74.9597 157.539 76.3652Z" fill="#EA7708"/>
<path d="M164.073 53.46C164.073 53.46 155.139 73.24 151.694 73.8621C147.908 74.5454 128.335 73.8276 128.335 73.8276L122.931 73.8272C120.98 73.8555 114.317 73.8276 111.473 73.8276C112.336 71.256 119.331 69.0156 120.115 69.0156C122.31 69.0156 126.5 70.6381 127.75 70.6381C129.001 70.6381 142.01 68.2474 143.385 66.8717C144.761 65.4965 155.542 44.8313 155.542 44.8313L164.073 53.46Z" fill="#9E382D"/>
<path d="M159.822 62.1955C162.191 57.6268 164.073 53.46 164.073 53.46L155.542 44.8313C155.542 44.8313 152.664 50.3484 149.692 55.8711C152.277 58.0924 156.335 61.1981 159.822 62.1955Z" fill="#822A21"/>
<path d="M158.072 35.1191C155.188 39.394 151.266 50.629 150.628 51.8218C149.002 54.8576 160.076 59.7765 162.138 59.2609C164.201 58.7452 170.236 46.1836 171.511 41.509C172.427 38.1511 171.628 33.4891 168.42 31.5197C164.728 29.2537 160.427 31.63 158.072 35.1191Z" fill="#EA7708"/>
</svg>
